<svg id="Capa_1" data-name="Capa 1" xmlns="http://www.w3.org/2000/svg" viewBox="0 0 200 200"><defs><style>


.project9-1{
opacity:0.74;

animation: heartbeat 2s alternate infinite;
transform-origin: 50% 50%;
}


@keyframes heartbeat {
  to {

    transform:  scaleX(1.2) scaleY(1.2);
  }
}


.project9-2{
fill:#fff;
}

</style></defs><title>formas-cuadrado</title><rect x="0.5" y="0.5" width="199" height="199"/><path d="M199,1V199H1V1H199m1-1H0V200H200V0Z"/><g class="project9-1"><path class="project9-2" d="M53.26,114.84C49.53,101.55,64.7,104,70.92,97.14c4.93-5.41,4.78-13.59,5.49-20.41.52-4.91,2.76-7.34,7.5-8,1.42-.2,2.88-.26,4.28-.57,2.24-.51,4.06-1.38,5.24-3.41,3.39-5.85-1-13.9-4.15-18.75-.44-.67-1.52,0-1.08.63,2.71,4.11,5.39,9.06,5.06,14.16-.43,6.6-6.73,6-11.54,7-7,1.45-6.35,7.91-6.94,13.73-.49,4.9-1.21,10.93-4.75,14.7-3.23,3.46-8.05,4-12.18,5.81-5.71,2.54-7.44,7.26-5.8,13.11a.63.63,0,0,0,1.21-.33Z"/></g><g class="project9-1"><path class="project9-2" d="M66.1,125.23c-3.73-13.29,11.44-10.89,17.66-17.7,4.94-5.42,4.78-13.59,5.5-20.41.51-4.91,2.75-7.34,7.49-8,1.42-.19,2.88-.25,4.28-.56,2.24-.51,4.07-1.38,5.24-3.41,3.39-5.85-1-13.91-4.15-18.76-.44-.66-1.52,0-1.08.64,2.72,4.11,5.39,9.06,5.06,14.16-.43,6.6-6.73,6-11.54,7-7,1.46-6.35,7.92-6.94,13.74-.49,4.9-1.21,10.93-4.74,14.7-3.24,3.46-8.06,4-12.19,5.81-5.7,2.53-7.44,7.26-5.79,13.11a.62.62,0,0,0,1.2-.33Z"/></g><g class="project9-1"><path class="project9-2" d="M77.46,136.59c-3.74-13.3,11.44-10.89,17.65-17.71,4.94-5.41,4.79-13.59,5.5-20.4.51-4.92,2.76-7.35,7.5-8,1.42-.2,2.87-.25,4.28-.57,2.24-.51,4.06-1.38,5.24-3.41,3.39-5.84-1-13.9-4.15-18.75-.44-.67-1.53,0-1.08.63,2.71,4.12,5.38,9.06,5,14.17-.43,6.6-6.72,6-11.53,7C99,91,99.57,97.47,99,103.3c-.5,4.89-1.21,10.92-4.75,14.7-3.24,3.45-8,4-12.18,5.8-5.71,2.54-7.44,7.27-5.8,13.12a.63.63,0,0,0,1.21-.33Z"/></g></svg>