<svg id="Capa_1" data-name="Capa 1" xmlns="http://www.w3.org/2000/svg" xmlns:xlink="http://www.w3.org/1999/xlink" viewBox="0 0 510.24 289.13"><defs>


<style>

.form14-1{

fill:none;
}

.form14-2{
clip-path:url(#clip-path);
}

.form14-3{
fill:#c6c6c5;
}

.form14-3:nth-child(3n){
  animation: shiny 1s ease-in infinite alternate
}
        
    @keyframes shiny {
        
            from {opacity: 0}
            to {opacity:1}

}

</style>





<clipPath id="clip-path"><path class="form14-1" d="M253.16,192.4c-12.21,6-19,4-24.14,8.17-6.53,5.34-.9,13.08,4.45,20.43,6,8.22,11.27,15.49,21.76,17.3,19.38,3.33,42.25-14.48,45.91-17.33,13.34-10.39,16.24-20.34,22-40.22,6.33-21.71,2.54-28.48-2-33.3-1.84-1.93-13.41-14.13-30.09-14.44-13-.25-24.15,6.84-26.92,13.46-3.09,7.39,5.89,10.26,5.85,24.29,0,5.87-1.61,9-3.14,11.15C266,183.13,262.39,187.9,253.16,192.4Z"/></clipPath></defs><title>form</title><g class="form14-2"><path class="form14-3" d="M234.36,169.05a1.25,1.25,0,0,0,0-2.5,1.25,1.25,0,0,0,0,2.5Z"/><path class="form14-3" d="M267.06,159.86a1.25,1.25,0,0,0,0-2.5,1.25,1.25,0,0,0,0,2.5Z"/><path class="form14-3" d="M259.91,206.86a1.25,1.25,0,0,0,0-2.5,1.25,1.25,0,0,0,0,2.5Z"/><path class="form14-3" d="M237.43,181.31a1.25,1.25,0,0,0,0-2.5,1.25,1.25,0,0,0,0,2.5Z"/><path class="form14-3" d="M273.19,168a1.25,1.25,0,0,0,0-2.5,1.25,1.25,0,0,0,0,2.5Z"/><path class="form14-3" d="M258.88,183.36a1.25,1.25,0,0,0,0-2.5,1.25,1.25,0,0,0,0,2.5Z"/><path class="form14-3" d="M252.75,166a1.25,1.25,0,0,0,0-2.5,1.25,1.25,0,0,0,0,2.5Z"/><path class="form14-3" d="M225.16,147.6a1.25,1.25,0,0,0,0-2.5,1.25,1.25,0,0,0,0,2.5Z"/><path class="form14-3" d="M194.51,147.6a1.25,1.25,0,0,0,0-2.5,1.25,1.25,0,0,0,0,2.5Z"/><path class="form14-3" d="M197.58,188.47a1.25,1.25,0,0,0,0-2.5,1.25,1.25,0,0,0,0,2.5Z"/><path class="form14-3" d="M213.92,160.88a1.25,1.25,0,0,0,0-2.5,1.25,1.25,0,0,0,0,2.5Z"/><path class="form14-3" d="M210.86,176.21a1.25,1.25,0,0,0,0-2.5,1.25,1.25,0,0,0,0,2.5Z"/><path class="form14-3" d="M198.6,166a1.25,1.25,0,0,0,0-2.5,1.25,1.25,0,0,0,0,2.5Z"/><path class="form14-3" d="M216,154.75a1.25,1.25,0,0,0,0-2.5,1.25,1.25,0,0,0,0,2.5Z"/><path class="form14-3" d="M201.66,157.81a1.25,1.25,0,0,0,0-2.5,1.25,1.25,0,0,0,0,2.5Z"/><path class="form14-3" d="M212.9,138.4a1.25,1.25,0,0,0,0-2.5,1.25,1.25,0,0,0,0,2.5Z"/><path class="form14-3" d="M234.36,181.31a1.25,1.25,0,0,0,0-2.5,1.25,1.25,0,0,0,0,2.5Z"/><path class="form14-3" d="M268.08,133.29a1.25,1.25,0,0,0,0-2.5,1.25,1.25,0,0,0,0,2.5Z"/><path class="form14-3" d="M237.43,155.77a1.25,1.25,0,0,0,0-2.5,1.25,1.25,0,0,0,0,2.5Z"/><path class="form14-3" d="M246.62,163.94a1.25,1.25,0,0,0,0-2.5,1.25,1.25,0,0,0,0,2.5Z"/><path class="form14-3" d="M236.4,182.34a1.25,1.25,0,0,0,0-2.5,1.25,1.25,0,0,0,0,2.5Z"/><path class="form14-3" d="M223.12,162.92a1.25,1.25,0,0,0,0-2.5,1.25,1.25,0,0,0,0,2.5Z"/><path class="form14-3" d="M223.12,178.25a1.25,1.25,0,0,0,0-2.5,1.25,1.25,0,0,0,0,2.5Z"/><path class="form14-3" d="M200.64,196.64a1.25,1.25,0,0,0,0-2.5,1.25,1.25,0,0,0,0,2.5Z"/><path class="form14-3" d="M248.67,212a1.25,1.25,0,0,0,0-2.5,1.25,1.25,0,0,0,0,2.5Z"/><path class="form14-3" d="M246.62,183.36a1.25,1.25,0,0,0,0-2.5,1.25,1.25,0,0,0,0,2.5Z"/><path class="form14-3" d="M235.38,183.36a1.25,1.25,0,0,0,0-2.5,1.25,1.25,0,0,0,0,2.5Z"/><path class="form14-3" d="M212.9,202.77a1.25,1.25,0,0,0,0-2.5,1.25,1.25,0,0,0,0,2.5Z"/><path class="form14-3" d="M216,208.9a1.25,1.25,0,0,0,0-2.5,1.25,1.25,0,0,0,0,2.5Z"/><path class="form14-3" d="M236.4,202.77a1.25,1.25,0,0,0,0-2.5,1.25,1.25,0,0,0,0,2.5Z"/><path class="form14-3" d="M219,189.49a1.25,1.25,0,0,0,0-2.5,1.25,1.25,0,0,0,0,2.5Z"/><path class="form14-3" d="M209.84,183.36a1.25,1.25,0,0,0,0-2.5,1.25,1.25,0,0,0,0,2.5Z"/><path class="form14-3" d="M209.84,189.49a1.25,1.25,0,0,0,0-2.5,1.25,1.25,0,0,0,0,2.5Z"/><path class="form14-3" d="M254.8,225.25a1.25,1.25,0,0,0,0-2.5,1.25,1.25,0,0,0,0,2.5Z"/><path class="form14-3" d="M263,199.71a1.25,1.25,0,0,0,0-2.5,1.25,1.25,0,0,0,0,2.5Z"/><path class="form14-3" d="M243.56,198.68a1.25,1.25,0,0,0,0-2.5,1.25,1.25,0,0,0,0,2.5Z"/><path class="form14-3" d="M237.43,193.58a1.25,1.25,0,0,0,0-2.5,1.25,1.25,0,0,0,0,2.5Z"/><path class="form14-3" d="M253.77,155.77a1.25,1.25,0,0,0,0-2.5,1.25,1.25,0,0,0,0,2.5Z"/><path class="form14-3" d="M244.58,131.25a1.25,1.25,0,0,0,0-2.5,1.25,1.25,0,0,0,0,2.5Z"/><path class="form14-3" d="M222.1,124.09a1.25,1.25,0,0,0,0-2.5,1.25,1.25,0,0,0,0,2.5Z"/><path class="form14-3" d="M247.64,168a1.25,1.25,0,0,0,0-2.5,1.25,1.25,0,0,0,0,2.5Z"/><path class="form14-3" d="M245.6,148.62a1.25,1.25,0,0,0,0-2.5,1.25,1.25,0,0,0,0,2.5Z"/><path class="form14-3" d="M240.49,144.53a1.25,1.25,0,0,0,0-2.5,1.25,1.25,0,0,0,0,2.5Z"/><path class="form14-3" d="M231.29,138.4a1.25,1.25,0,0,0,0-2.5,1.25,1.25,0,0,0,0,2.5Z"/><path class="form14-3" d="M231.29,133.29a1.25,1.25,0,0,0,0-2.5,1.25,1.25,0,0,0,0,2.5Z"/><path class="form14-3" d="M237.43,126.14a1.25,1.25,0,0,0,0-2.5,1.25,1.25,0,0,0,0,2.5Z"/><path class="form14-3" d="M251.73,122.05a1.25,1.25,0,0,0,0-2.5,1.25,1.25,0,0,0,0,2.5Z"/><path class="form14-3" d="M260.93,140.44a1.25,1.25,0,0,0,0-2.5,1.25,1.25,0,0,0,0,2.5Z"/><path class="form14-3" d="M254.8,145.55a1.25,1.25,0,0,0,0-2.5,1.25,1.25,0,0,0,0,2.5Z"/><path class="form14-3" d="M278.3,157.81a1.25,1.25,0,0,0,0-2.5,1.25,1.25,0,0,0,0,2.5Z"/><path class="form14-3" d="M284.43,147.6a1.25,1.25,0,0,0,0-2.5,1.25,1.25,0,0,0,0,2.5Z"/><path class="form14-3" d="M277.28,130.22a1.25,1.25,0,0,0,0-2.5,1.25,1.25,0,0,0,0,2.5Z"/><path class="form14-3" d="M259.91,148.62a1.25,1.25,0,0,0,0-2.5,1.25,1.25,0,0,0,0,2.5Z"/><path class="form14-3" d="M272.17,148.62a1.25,1.25,0,0,0,0-2.5,1.25,1.25,0,0,0,0,2.5Z"/><path class="form14-3" d="M282.38,139.42a1.25,1.25,0,0,0,0-2.5,1.25,1.25,0,0,0,0,2.5Z"/><path class="form14-3" d="M288.52,138.4a1.25,1.25,0,0,0,0-2.5,1.25,1.25,0,0,0,0,2.5Z"/><path class="form14-3" d="M298.73,176.21a1.25,1.25,0,0,0,0-2.5,1.25,1.25,0,0,0,0,2.5Z"/><path class="form14-3" d="M283.41,190.51a1.25,1.25,0,0,0,0-2.5,1.25,1.25,0,0,0,0,2.5Z"/><path class="form14-3" d="M266,168a1.25,1.25,0,0,0,0-2.5,1.25,1.25,0,0,0,0,2.5Z"/><path class="form14-3" d="M259.91,173.14a1.25,1.25,0,0,0,0-2.5,1.25,1.25,0,0,0,0,2.5Z"/><path class="form14-3" d="M272.17,183.36a1.25,1.25,0,0,0,0-2.5,1.25,1.25,0,0,0,0,2.5Z"/><path class="form14-3" d="M264,198.68a1.25,1.25,0,0,0,0-2.5,1.25,1.25,0,0,0,0,2.5Z"/><path class="form14-3" d="M273.19,206.86a1.25,1.25,0,0,0,0-2.5,1.25,1.25,0,0,0,0,2.5Z"/><path class="form14-3" d="M283.41,205.84a1.25,1.25,0,0,0,0-2.5,1.25,1.25,0,0,0,0,2.5Z"/><path class="form14-3" d="M291.58,200.73a1.25,1.25,0,0,0,0-2.5,1.25,1.25,0,0,0,0,2.5Z"/><path class="form14-3" d="M285.45,180.29a1.25,1.25,0,0,0,0-2.5,1.25,1.25,0,0,0,0,2.5Z"/><path class="form14-3" d="M288.52,166a1.25,1.25,0,0,0,0-2.5,1.25,1.25,0,0,0,0,2.5Z"/><path class="form14-3" d="M296.69,159.86a1.25,1.25,0,0,0,0-2.5,1.25,1.25,0,0,0,0,2.5Z"/><path class="form14-3" d="M300.78,160.88a1.25,1.25,0,0,0,0-2.5,1.25,1.25,0,0,0,0,2.5Z"/><path class="form14-3" d="M320.19,185.4a1.25,1.25,0,0,0,0-2.5,1.25,1.25,0,0,0,0,2.5Z"/><path class="form14-3" d="M256.84,182.34a1.25,1.25,0,0,0,0-2.5,1.25,1.25,0,0,0,0,2.5Z"/><path class="form14-3" d="M256.84,194.6a1.25,1.25,0,0,0,0-2.5,1.25,1.25,0,0,0,0,2.5Z"/><path class="form14-3" d="M252.75,196.64a1.25,1.25,0,0,0,0-2.5,1.25,1.25,0,0,0,0,2.5Z"/><path class="form14-3" d="M251.73,209.92a1.25,1.25,0,0,0,0-2.5,1.25,1.25,0,0,0,0,2.5Z"/><path class="form14-3" d="M238.45,227.29a1.25,1.25,0,0,0,0-2.5,1.25,1.25,0,0,0,0,2.5Z"/><path class="form14-3" d="M228.23,220.14a1.25,1.25,0,0,0,0-2.5,1.25,1.25,0,0,0,0,2.5Z"/><path class="form14-3" d="M231.29,206.86a1.25,1.25,0,0,0,0-2.5,1.25,1.25,0,0,0,0,2.5Z"/><path class="form14-3" d="M217,193.58a1.25,1.25,0,0,0,0-2.5,1.25,1.25,0,0,0,0,2.5Z"/><path class="form14-3" d="M224.14,192.55a1.25,1.25,0,0,0,0-2.5,1.25,1.25,0,0,0,0,2.5Z"/><path class="form14-3" d="M275.23,175.18a1.25,1.25,0,0,0,0-2.5,1.25,1.25,0,0,0,0,2.5Z"/><path class="form14-3" d="M280.34,197.66a1.25,1.25,0,0,0,0-2.5,1.25,1.25,0,0,0,0,2.5Z"/><path class="form14-3" d="M330.41,188.47a1.25,1.25,0,0,0,0-2.5,1.25,1.25,0,0,0,0,2.5Z"/><path class="form14-3" d="M303.84,191.53a1.25,1.25,0,0,0,0-2.5,1.25,1.25,0,0,0,0,2.5Z"/><path class="form14-3" d="M297.71,187.45a1.25,1.25,0,0,0,0-2.5,1.25,1.25,0,0,0,0,2.5Z"/><path class="form14-3" d="M300.78,199.71a1.25,1.25,0,0,0,0-2.5,1.25,1.25,0,0,0,0,2.5Z"/><path class="form14-3" d="M318.15,206.86a1.25,1.25,0,0,0,0-2.5,1.25,1.25,0,0,0,0,2.5Z"/><path class="form14-3" d="M318.15,197.66a1.25,1.25,0,0,0,0-2.5,1.25,1.25,0,0,0,0,2.5Z"/><path class="form14-3" d="M311,190.51a1.25,1.25,0,0,0,0-2.5,1.25,1.25,0,0,0,0,2.5Z"/><path class="form14-3" d="M306.91,174.16a1.25,1.25,0,0,0,0-2.5,1.25,1.25,0,0,0,0,2.5Z"/><path class="form14-3" d="M310,170.07a1.25,1.25,0,0,0,0-2.5,1.25,1.25,0,0,0,0,2.5Z"/><path class="form14-3" d="M306.77,159.77l-1-1a1.25,1.25,0,0,0-1.77,1.77l1,1a1.25,1.25,0,0,0,1.77-1.76Z"/><path class="form14-3" d="M287.49,150.66a1.25,1.25,0,0,0,0-2.5,1.25,1.25,0,0,0,0,2.5Z"/><path class="form14-3" d="M319.17,140.44a1.25,1.25,0,0,0,0-2.5,1.25,1.25,0,0,0,0,2.5Z"/><path class="form14-3" d="M326.32,162.92a1.25,1.25,0,0,0,0-2.5,1.25,1.25,0,0,0,0,2.5Z"/><path class="form14-3" d="M332.45,173.14a1.25,1.25,0,0,0,0-2.5,1.25,1.25,0,0,0,0,2.5Z"/><path class="form14-3" d="M307.93,155.77a1.25,1.25,0,0,0,0-2.5,1.25,1.25,0,0,0,0,2.5Z"/><path class="form14-3" d="M303.84,149.64a1.25,1.25,0,0,0,0-2.5,1.25,1.25,0,0,0,0,2.5Z"/><path class="form14-3" d="M300.78,142.49a1.25,1.25,0,0,0,0-2.5,1.25,1.25,0,0,0,0,2.5Z"/><path class="form14-3" d="M300.78,136.36a1.25,1.25,0,0,0,0-2.5,1.25,1.25,0,0,0,0,2.5Z"/><path class="form14-3" d="M304.86,133.29a1.25,1.25,0,0,0,0-2.5,1.25,1.25,0,0,0,0,2.5Z"/><path class="form14-3" d="M307.93,139.42a1.25,1.25,0,0,0,0-2.5,1.25,1.25,0,0,0,0,2.5Z"/><path class="form14-3" d="M310,145.55a1.25,1.25,0,0,0,0-2.5,1.25,1.25,0,0,0,0,2.5Z"/><path class="form14-3" d="M336.54,173.14a1.25,1.25,0,0,0,0-2.5,1.25,1.25,0,0,0,0,2.5Z"/><path class="form14-3" d="M340.63,158.83a1.25,1.25,0,0,0,0-2.5,1.25,1.25,0,0,0,0,2.5Z"/><path class="form14-3" d="M341.51,156.7l-1-1a1.25,1.25,0,0,0-1.77,1.77l1,1a1.25,1.25,0,0,0,1.77-1.77Z"/><path class="form14-3" d="M318.15,158.83a1.25,1.25,0,0,0,0-2.5,1.25,1.25,0,0,0,0,2.5Z"/><path class="form14-3" d="M326.32,142.49a1.25,1.25,0,0,0,0-2.5,1.25,1.25,0,0,0,0,2.5Z"/><path class="form14-3" d="M328.36,141.46a1.25,1.25,0,0,0,0-2.5,1.25,1.25,0,0,0,0,2.5Z"/><path class="form14-3" d="M333.47,152.7a1.25,1.25,0,0,0,0-2.5,1.25,1.25,0,0,0,0,2.5Z"/><path class="form14-3" d="M324.28,154.75a1.25,1.25,0,0,0,0-2.5,1.25,1.25,0,0,0,0,2.5Z"/><path class="form14-3" d="M317.13,154.75a1.25,1.25,0,0,0,0-2.5,1.25,1.25,0,0,0,0,2.5Z"/><path class="form14-3" d="M332.45,139.42a1.25,1.25,0,0,0,0-2.5,1.25,1.25,0,0,0,0,2.5Z"/><path class="form14-3" d="M342.67,166a1.25,1.25,0,0,0,0-2.5,1.25,1.25,0,0,0,0,2.5Z"/><path class="form14-3" d="M349.82,177.23a1.25,1.25,0,0,0,0-2.5,1.25,1.25,0,0,0,0,2.5Z"/><path class="form14-3" d="M325.3,198.68a1.25,1.25,0,0,0,0-2.5,1.25,1.25,0,0,0,0,2.5Z"/><path class="form14-3" d="M291.58,217.08a1.25,1.25,0,0,0,0-2.5,1.25,1.25,0,0,0,0,2.5Z"/><path class="form14-3" d="M254.8,222.19a1.25,1.25,0,0,0,0-2.5,1.25,1.25,0,0,0,0,2.5Z"/><path class="form14-3" d="M260.93,209.92a1.25,1.25,0,0,0,0-2.5,1.25,1.25,0,0,0,0,2.5Z"/><path class="form14-3" d="M266,219.12a1.25,1.25,0,0,0,0-2.5,1.25,1.25,0,0,0,0,2.5Z"/><path class="form14-3" d="M268.08,219.12a1.25,1.25,0,0,0,0-2.5,1.25,1.25,0,0,0,0,2.5Z"/><path class="form14-3" d="M272.17,216.06a1.25,1.25,0,0,0,0-2.5,1.25,1.25,0,0,0,0,2.5Z"/><path class="form14-3" d="M274.21,214a1.25,1.25,0,0,0,0-2.5,1.25,1.25,0,0,0,0,2.5Z"/><path class="form14-3" d="M301.8,215a1.25,1.25,0,0,0,0-2.5,1.25,1.25,0,0,0,0,2.5Z"/><path class="form14-3" d="M301.8,215a1.25,1.25,0,0,0,0-2.5,1.25,1.25,0,0,0,0,2.5Z"/><path class="form14-3" d="M300.78,212a1.25,1.25,0,0,0,0-2.5,1.25,1.25,0,0,0,0,2.5Z"/><path class="form14-3" d="M299.75,238.53a1.25,1.25,0,0,0,0-2.5,1.25,1.25,0,0,0,0,2.5Z"/><path class="form14-3" d="M257.86,235.47a1.25,1.25,0,0,0,0-2.5,1.25,1.25,0,0,0,0,2.5Z"/><path class="form14-3" d="M277.28,221.16a1.25,1.25,0,0,0,0-2.5,1.25,1.25,0,0,0,0,2.5Z"/><path class="form14-3" d="M284.43,221.16a1.25,1.25,0,0,0,0-2.5,1.25,1.25,0,0,0,0,2.5Z"/><path class="form14-3" d="M279.32,238.53a1.25,1.25,0,0,0,0-2.5,1.25,1.25,0,0,0,0,2.5Z"/><path class="form14-3" d="M270.12,235.47a1.25,1.25,0,0,0,0-2.5,1.25,1.25,0,0,0,0,2.5Z"/><path class="form14-3" d="M266,230.36a1.25,1.25,0,0,0,0-2.5,1.25,1.25,0,0,0,0,2.5Z"/><path class="form14-3" d="M325.3,226.27a1.25,1.25,0,0,0,0-2.5,1.25,1.25,0,0,0,0,2.5Z"/><path class="form14-3" d="M280.34,234.45a1.25,1.25,0,0,0,0-2.5,1.25,1.25,0,0,0,0,2.5Z"/><path class="form14-3" d="M299.75,220.14a1.25,1.25,0,0,0,0-2.5,1.25,1.25,0,0,0,0,2.5Z"/><path class="form14-3" d="M302.82,227.29a1.25,1.25,0,0,0,0-2.5,1.25,1.25,0,0,0,0,2.5Z"/><path class="form14-3" d="M287.49,230.36a1.25,1.25,0,0,0,0-2.5,1.25,1.25,0,0,0,0,2.5Z"/><path class="form14-3" d="M305.89,242.62a1.25,1.25,0,0,0,0-2.5,1.25,1.25,0,0,0,0,2.5Z"/><path class="form14-3" d="M316.1,231.38a1.25,1.25,0,0,0,0-2.5,1.25,1.25,0,0,0,0,2.5Z"/><path class="form14-3" d="M301.8,224.23a1.25,1.25,0,0,0,0-2.5,1.25,1.25,0,0,0,0,2.5Z"/><path class="form14-3" d="M311,209.92a1.25,1.25,0,0,0,0-2.5,1.25,1.25,0,0,0,0,2.5Z"/><path class="form14-3" d="M312,213a1.25,1.25,0,0,0,0-2.5,1.25,1.25,0,0,0,0,2.5Z"/><path class="form14-3" d="M321.21,225.25a1.25,1.25,0,0,0,0-2.5,1.25,1.25,0,0,0,0,2.5Z"/><path class="form14-3" d="M306.91,225.25a1.25,1.25,0,0,0,0-2.5,1.25,1.25,0,0,0,0,2.5Z"/><path class="form14-3" d="M310,214a1.25,1.25,0,0,0,0-2.5,1.25,1.25,0,0,0,0,2.5Z"/><path class="form14-3" d="M332.45,205.84a1.25,1.25,0,0,0,0-2.5,1.25,1.25,0,0,0,0,2.5Z"/><path class="form14-3" d="M328.36,216.06a1.25,1.25,0,0,0,0-2.5,1.25,1.25,0,0,0,0,2.5Z"/><path class="form14-3" d="M341.65,209.92a1.25,1.25,0,0,0,0-2.5,1.25,1.25,0,0,0,0,2.5Z"/><path class="form14-3" d="M338.58,205.84a1.25,1.25,0,0,0,0-2.5,1.25,1.25,0,0,0,0,2.5Z"/><path class="form14-3" d="M335.46,199l1-2a1.25,1.25,0,0,0-2.16-1.26l-1,2a1.29,1.29,0,0,0,.45,1.71,1.27,1.27,0,0,0,1.71-.45Z"/><path class="form14-3" d="M342.67,189.49a1.25,1.25,0,0,0,0-2.5,1.25,1.25,0,0,0,0,2.5Z"/><path class="form14-3" d="M202.09,117.21a.63.63,0,0,0,0-1.25.63.63,0,0,0,0,1.25Z"/><path class="form14-3" d="M241.88,170.91a.63.63,0,0,0,0-1.25.63.63,0,0,0,0,1.25Z"/><path class="form14-3" d="M246.52,185.2a.63.63,0,0,0,0-1.25.63.63,0,0,0,0,1.25Z"/><path class="form14-3" d="M240.34,185.2a.63.63,0,0,0,0-1.25.63.63,0,0,0,0,1.25Z"/><path class="form14-3" d="M240.34,187.13a.63.63,0,0,0,0-1.25.63.63,0,0,0,0,1.25Z"/><path class="form14-3" d="M250.38,190.61a.63.63,0,0,0,0-1.25.63.63,0,0,0,0,1.25Z"/><path class="form14-3" d="M272,183.27a.63.63,0,0,0,0-1.25.63.63,0,0,0,0,1.25Z"/><path class="form14-3" d="M251.54,182.11a.63.63,0,0,0,0-1.25.63.63,0,0,0,0,1.25Z"/><path class="form14-3" d="M249.61,178.25a.63.63,0,0,0,0-1.25.63.63,0,0,0,0,1.25Z"/><path class="form14-3" d="M256.56,172.45a.63.63,0,0,0,0-1.25.63.63,0,0,0,0,1.25Z"/><path class="form14-3" d="M246.9,174.39a.63.63,0,0,0,0-1.25.63.63,0,0,0,0,1.25Z"/><path class="form14-3" d="M237.25,177.09a.63.63,0,0,0,0-1.25.63.63,0,0,0,0,1.25Z"/><path class="form14-3" d="M228.75,175.93a.63.63,0,0,0,0-1.25.63.63,0,0,0,0,1.25Z"/><path class="form14-3" d="M226,172.07a.63.63,0,0,0,0-1.25.63.63,0,0,0,0,1.25Z"/><path class="form14-3" d="M245,159.71a.63.63,0,0,0,0-1.25.63.63,0,0,0,0,1.25Z"/><path class="form14-3" d="M270.85,161.25a.63.63,0,0,0,0-1.25.63.63,0,0,0,0,1.25Z"/><path class="form14-3" d="M262.74,179.79a.63.63,0,0,0,0-1.25.63.63,0,0,0,0,1.25Z"/><path class="form14-3" d="M254.24,187.91a.63.63,0,0,0,0-1.25.63.63,0,0,0,0,1.25Z"/><path class="form14-3" d="M274.33,186.75a.63.63,0,0,0,0-1.25.63.63,0,0,0,0,1.25Z"/><path class="form14-3" d="M267.38,191a.63.63,0,0,0,0-1.25.63.63,0,0,0,0,1.25Z"/><path class="form14-3" d="M255,187.13a.63.63,0,0,0,0-1.25.63.63,0,0,0,0,1.25Z"/><path class="form14-3" d="M262.35,186.36a.63.63,0,0,0,0-1.25.63.63,0,0,0,0,1.25Z"/><path class="form14-3" d="M260.42,190.22a.63.63,0,0,0,0-1.25.63.63,0,0,0,0,1.25Z"/><path class="form14-3" d="M268.54,194.09a.63.63,0,0,0,0-1.25.63.63,0,0,0,0,1.25Z"/><path class="form14-3" d="M265.45,184.82a.63.63,0,0,0,0-1.25.63.63,0,0,0,0,1.25Z"/><path class="form14-3" d="M267,177.48a.63.63,0,0,0,0-1.25.63.63,0,0,0,0,1.25Z"/><path class="form14-3" d="M273.94,175.54a.63.63,0,0,0,0-1.25.63.63,0,0,0,0,1.25Z"/><path class="form14-3" d="M272.79,169.75a.63.63,0,0,0,0-1.25.63.63,0,0,0,0,1.25Z"/><path class="form14-3" d="M270.08,170.91a.63.63,0,0,0,0-1.25.63.63,0,0,0,0,1.25Z"/><path class="form14-3" d="M290.17,173.61a.63.63,0,0,0,0-1.25.63.63,0,0,0,0,1.25Z"/><path class="form14-3" d="M272.79,184.43a.63.63,0,0,0,0-1.25.63.63,0,0,0,0,1.25Z"/><path class="form14-3" d="M296,168.2a.63.63,0,0,0,0-1.25.63.63,0,0,0,0,1.25Z"/><path class="form14-3" d="M279,170.91a.63.63,0,0,0,0-1.25.63.63,0,0,0,0,1.25Z"/><path class="form14-3" d="M278.19,167.05a.63.63,0,0,0,0-1.25.63.63,0,0,0,0,1.25Z"/><path class="form14-3" d="M281.67,164a.63.63,0,0,0,0-1.25.63.63,0,0,0,0,1.25Z"/><path class="form14-3" d="M281.28,163.18a.63.63,0,0,0,0-1.25.63.63,0,0,0,0,1.25Z"/><path class="form14-3" d="M280.12,158.93a.63.63,0,0,0,0-1.25.63.63,0,0,0,0,1.25Z"/><path class="form14-3" d="M284.37,157a.63.63,0,0,0,0-1.25.63.63,0,0,0,0,1.25Z"/><path class="form14-3" d="M287.08,160.48a.63.63,0,0,0,0-1.25.63.63,0,0,0,0,1.25Z"/><path class="form14-3" d="M292.1,160.48a.63.63,0,0,0,0-1.25.63.63,0,0,0,0,1.25Z"/><path class="form14-3" d="M279.74,170.52a.63.63,0,0,0,0-1.25.63.63,0,0,0,0,1.25Z"/><path class="form14-3" d="M281.67,170.52a.63.63,0,0,0,0-1.25.63.63,0,0,0,0,1.25Z"/><path class="form14-3" d="M278.58,175.16a.63.63,0,0,0,0-1.25.63.63,0,0,0,0,1.25Z"/><path class="form14-3" d="M282.06,174.77a.63.63,0,0,0,0-1.25.63.63,0,0,0,0,1.25Z"/><path class="form14-3" d="M275.1,179a.63.63,0,0,0,0-1.25.63.63,0,0,0,0,1.25Z"/><path class="form14-3" d="M279.74,179a.63.63,0,0,0,0-1.25.63.63,0,0,0,0,1.25Z"/><path class="form14-3" d="M275.49,183.66a.63.63,0,0,0,0-1.25.63.63,0,0,0,0,1.25Z"/><path class="form14-3" d="M286.31,182.11a.63.63,0,0,0,0-1.25.63.63,0,0,0,0,1.25Z"/><path class="form14-3" d="M281.67,185.2a.63.63,0,0,0,0-1.25.63.63,0,0,0,0,1.25Z"/><path class="form14-3" d="M279.74,186.75a.63.63,0,0,0,0-1.25.63.63,0,0,0,0,1.25Z"/><path class="form14-3" d="M279,187.91a.63.63,0,0,0,0-1.25.63.63,0,0,0,0,1.25Z"/><path class="form14-3" d="M276.26,189.84a.63.63,0,0,0,0-1.25.63.63,0,0,0,0,1.25Z"/><path class="form14-3" d="M272.79,194.09a.63.63,0,0,0,0-1.25.63.63,0,0,0,0,1.25Z"/><path class="form14-3" d="M274.33,198a.63.63,0,0,0,0-1.25.63.63,0,0,0,0,1.25Z"/><path class="form14-3" d="M288.62,199.5a.63.63,0,0,0,0-1.25.63.63,0,0,0,0,1.25Z"/><path class="form14-3" d="M287.08,191.38a.63.63,0,0,0,0-1.25.63.63,0,0,0,0,1.25Z"/><path class="form14-3" d="M288.24,190.22a.63.63,0,0,0,0-1.25.63.63,0,0,0,0,1.25Z"/><path class="form14-3" d="M294.42,189.45a.63.63,0,0,0,0-1.25.63.63,0,0,0,0,1.25Z"/><path class="form14-3" d="M295.19,185.59a.63.63,0,0,0,0-1.25.63.63,0,0,0,0,1.25Z"/><path class="form14-3" d="M290.17,182.5a.63.63,0,0,0,0-1.25.63.63,0,0,0,0,1.25Z"/><path class="form14-3" d="M299.05,176.7a.63.63,0,0,0,0-1.25.63.63,0,0,0,0,1.25Z"/><path class="form14-3" d="M287.08,177.86a.63.63,0,0,0,0-1.25.63.63,0,0,0,0,1.25Z"/><path class="form14-3" d="M293.65,177.09a.63.63,0,0,0,0-1.25.63.63,0,0,0,0,1.25Z"/><path class="form14-3" d="M296,190.22a.63.63,0,0,0,0-1.25.63.63,0,0,0,0,1.25Z"/><path class="form14-3" d="M311.8,189.07a.63.63,0,0,0,0-1.25.63.63,0,0,0,0,1.25Z"/><path class="form14-3" d="M301.76,185.2a.63.63,0,0,0,0-1.25.63.63,0,0,0,0,1.25Z"/><path class="form14-3" d="M301.76,183.66a.63.63,0,0,0,0-1.25.63.63,0,0,0,0,1.25Z"/><path class="form14-3" d="M305.62,183.66a.63.63,0,0,0,0-1.25.63.63,0,0,0,0,1.25Z"/><path class="form14-3" d="M303.69,179a.63.63,0,0,0,0-1.25.63.63,0,0,0,0,1.25Z"/><path class="form14-3" d="M290.55,181.34a.63.63,0,0,0,0-1.25.63.63,0,0,0,0,1.25Z"/><path class="form14-3" d="M311.42,181a.63.63,0,0,0,0-1.25.63.63,0,0,0,0,1.25Z"/><path class="form14-3" d="M300.21,181.73a.63.63,0,0,0,0-1.25.63.63,0,0,0,0,1.25Z"/><path class="form14-3" d="M296.35,180.18a.63.63,0,0,0,0-1.25.63.63,0,0,0,0,1.25Z"/><path class="form14-3" d="M308.32,167.82a.63.63,0,0,0,0-1.25.63.63,0,0,0,0,1.25Z"/><path class="form14-3" d="M304.08,168.2a.63.63,0,0,0,0-1.25.63.63,0,0,0,0,1.25Z"/><path class="form14-3" d="M303.69,172.84a.63.63,0,0,0,0-1.25.63.63,0,0,0,0,1.25Z"/><path class="form14-3" d="M301,167.05a.63.63,0,0,0,0-1.25.63.63,0,0,0,0,1.25Z"/><path class="form14-3" d="M294.42,164.34a.63.63,0,0,0,0-1.25.63.63,0,0,0,0,1.25Z"/><path class="form14-3" d="M285.53,167.05a.63.63,0,0,0,0-1.25.63.63,0,0,0,0,1.25Z"/><path class="form14-3" d="M287.08,160.09a.63.63,0,0,0,0-1.25.63.63,0,0,0,0,1.25Z"/><path class="form14-3" d="M287.85,156.62a.63.63,0,0,0,0-1.25.63.63,0,0,0,0,1.25Z"/><path class="form14-3" d="M263.51,155.84a.63.63,0,0,0,0-1.25.63.63,0,0,0,0,1.25Z"/><path class="form14-3" d="M276.65,148.12a.63.63,0,0,0,0-1.25.63.63,0,0,0,0,1.25Z"/><path class="form14-3" d="M268.15,162a.63.63,0,0,0,0-1.25.63.63,0,0,0,0,1.25Z"/><path class="form14-3" d="M268.15,153.91a.63.63,0,0,0,0-1.25.63.63,0,0,0,0,1.25Z"/><path class="form14-3" d="M270.85,153.14a.63.63,0,0,0,0-1.25.63.63,0,0,0,0,1.25Z"/><path class="form14-3" d="M275.49,152.37a.63.63,0,0,0,0-1.25.63.63,0,0,0,0,1.25Z"/><path class="form14-3" d="M284.37,151.21a.63.63,0,0,0,0-1.25.63.63,0,0,0,0,1.25Z"/><path class="form14-3" d="M285.53,152.37a.63.63,0,0,0,0-1.25.63.63,0,0,0,0,1.25Z"/><path class="form14-3" d="M304.46,156.23a.63.63,0,0,0,0-1.25.63.63,0,0,0,0,1.25Z"/><path class="form14-3" d="M304.08,155.84a.63.63,0,0,0,0-1.25.63.63,0,0,0,0,1.25Z"/><path class="form14-3" d="M298.67,156.62a.63.63,0,0,0,0-1.25.63.63,0,0,0,0,1.25Z"/><path class="form14-3" d="M298.67,153.91a.63.63,0,0,0,0-1.25.63.63,0,0,0,0,1.25Z"/><path class="form14-3" d="M289.78,158.55a.63.63,0,0,0,0-1.25.63.63,0,0,0,0,1.25Z"/><path class="form14-3" d="M294.42,152a.63.63,0,0,0,0-1.25.63.63,0,0,0,0,1.25Z"/><path class="form14-3" d="M297.89,150.44a.63.63,0,0,0,0-1.25.63.63,0,0,0,0,1.25Z"/><path class="form14-3" d="M294.18,152.51v.39a.63.63,0,0,0,1.25,0v-.39a.63.63,0,0,0-1.25,0Z"/><path class="form14-3" d="M294.8,156.23a.63.63,0,0,0,0-1.25.63.63,0,0,0,0,1.25Z"/><path class="form14-3" d="M293.26,153.53a.63.63,0,0,0,0-1.25.63.63,0,0,0,0,1.25Z"/><path class="form14-3" d="M291.71,147a.63.63,0,0,0,0-1.25.63.63,0,0,0,0,1.25Z"/><path class="form14-3" d="M289.78,147a.63.63,0,0,0,0-1.25.63.63,0,0,0,0,1.25Z"/><path class="form14-3" d="M287.85,144.25a.63.63,0,0,0,0-1.25.63.63,0,0,0,0,1.25Z"/><path class="form14-3" d="M283.6,146.19a.63.63,0,0,0,0-1.25.63.63,0,0,0,0,1.25Z"/><path class="form14-3" d="M282.06,145a.63.63,0,0,0,0-1.25.63.63,0,0,0,0,1.25Z"/><path class="form14-3" d="M276.26,143.48a.63.63,0,0,0,0-1.25.63.63,0,0,0,0,1.25Z"/><path class="form14-3" d="M272.79,140a.63.63,0,0,0,0-1.25.63.63,0,0,0,0,1.25Z"/><path class="form14-3" d="M263.51,144.25a.63.63,0,0,0,0-1.25.63.63,0,0,0,0,1.25Z"/><path class="form14-3" d="M272,142.32a.63.63,0,0,0,0-1.25.63.63,0,0,0,0,1.25Z"/><path class="form14-3" d="M257.33,148.89a.63.63,0,0,0,0-1.25.63.63,0,0,0,0,1.25Z"/><path class="form14-3" d="M262.35,149.28a.63.63,0,0,0,0-1.25.63.63,0,0,0,0,1.25Z"/><path class="form14-3" d="M275.88,147a.63.63,0,0,0,0-1.25.63.63,0,0,0,0,1.25Z"/><path class="form14-3" d="M265.45,148.5a.63.63,0,0,0,0-1.25.63.63,0,0,0,0,1.25Z"/><path class="form14-3" d="M262.35,158.55a.63.63,0,0,0,0-1.25.63.63,0,0,0,0,1.25Z"/><path class="form14-3" d="M250,155.07a.63.63,0,0,0,0-1.25.63.63,0,0,0,0,1.25Z"/><path class="form14-3" d="M267,152a.63.63,0,0,0,0-1.25.63.63,0,0,0,0,1.25Z"/><path class="form14-3" d="M257.72,159.32a.63.63,0,0,0,0-1.25.63.63,0,0,0,0,1.25Z"/><path class="form14-3" d="M259.65,151.59a.63.63,0,0,0,0-1.25.63.63,0,0,0,0,1.25Z"/><path class="form14-3" d="M254.63,157a.63.63,0,0,0,0-1.25.63.63,0,0,0,0,1.25Z"/><path class="form14-3" d="M253.86,159.32a.63.63,0,0,0,0-1.25.63.63,0,0,0,0,1.25Z"/><path class="form14-3" d="M271.24,158.93a.63.63,0,0,0,0-1.25.63.63,0,0,0,0,1.25Z"/><path class="form14-3" d="M260,165.5a.63.63,0,0,0,0-1.25.63.63,0,0,0,0,1.25Z"/><path class="form14-3" d="M253.86,167.05a.63.63,0,0,0,0-1.25.63.63,0,0,0,0,1.25Z"/><path class="form14-3" d="M262.35,167.05a.63.63,0,0,0,0-1.25.63.63,0,0,0,0,1.25Z"/><path class="form14-3" d="M250,172.07a.63.63,0,0,0,0-1.25.63.63,0,0,0,0,1.25Z"/><path class="form14-3" d="M255.79,176.7a.63.63,0,0,0,0-1.25.63.63,0,0,0,0,1.25Z"/><path class="form14-3" d="M275.49,173.23a.63.63,0,0,0,0-1.25.63.63,0,0,0,0,1.25Z"/><path class="form14-3" d="M258.11,175.54a.63.63,0,0,0,0-1.25.63.63,0,0,0,0,1.25Z"/><path class="form14-3" d="M251.92,180.57a.63.63,0,0,0,0-1.25.63.63,0,0,0,0,1.25Z"/><path class="form14-3" d="M246.52,194.09a.63.63,0,0,0,0-1.25.63.63,0,0,0,0,1.25Z"/><path class="form14-3" d="M244.2,195.63a.63.63,0,0,0,0-1.25.63.63,0,0,0,0,1.25Z"/><path class="form14-3" d="M243,188.68a.63.63,0,0,0,0-1.25.63.63,0,0,0,0,1.25Z"/><path class="form14-3" d="M238,195.25a.63.63,0,0,0,0-1.25.63.63,0,0,0,0,1.25Z"/><path class="form14-3" d="M232.61,189.84a.63.63,0,0,0,0-1.25.63.63,0,0,0,0,1.25Z"/><path class="form14-3" d="M228.75,189.07a.63.63,0,0,0,0-1.25.63.63,0,0,0,0,1.25Z"/><path class="form14-3" d="M245.36,186a.63.63,0,0,0,0-1.25.63.63,0,0,0,0,1.25Z"/><path class="form14-3" d="M226.82,187.13a.63.63,0,0,0,0-1.25.63.63,0,0,0,0,1.25Z"/><path class="form14-3" d="M234.93,185.59a.63.63,0,0,0,0-1.25.63.63,0,0,0,0,1.25Z"/><path class="form14-3" d="M248.83,174.39a.63.63,0,0,0,0-1.25.63.63,0,0,0,0,1.25Z"/><path class="form14-3" d="M228.75,182.88h.77a.63.63,0,0,0,0-1.25h-.77a.63.63,0,0,0,0,1.25Z"/><path class="form14-3" d="M255.4,179a.63.63,0,0,0,0-1.25.63.63,0,0,0,0,1.25Z"/><path class="form14-3" d="M244.2,180.18a.63.63,0,0,0,0-1.25.63.63,0,0,0,0,1.25Z"/><path class="form14-3" d="M248.45,179a.63.63,0,0,0,0-1.25.63.63,0,0,0,0,1.25Z"/><path class="form14-3" d="M223.72,181.34a.63.63,0,0,0,0-1.25.63.63,0,0,0,0,1.25Z"/><path class="form14-3" d="M246.13,175.93a.63.63,0,0,0,0-1.25.63.63,0,0,0,0,1.25Z"/><path class="form14-3" d="M238.79,177.09a.63.63,0,0,0,0-1.25.63.63,0,0,0,0,1.25Z"/><path class="form14-3" d="M253.47,170.52a.63.63,0,0,0,0-1.25.63.63,0,0,0,0,1.25Z"/><path class="form14-3" d="M230.68,172.84a.63.63,0,0,0,0-1.25.63.63,0,0,0,0,1.25Z"/><path class="form14-3" d="M254.24,170.14a.63.63,0,0,0,0-1.25.63.63,0,0,0,0,1.25Z"/><path class="form14-3" d="M240.72,172.45a.63.63,0,0,0,0-1.25.63.63,0,0,0,0,1.25Z"/><path class="form14-3" d="M248.39,164.43l-.38.39a.62.62,0,0,0,.88.88l.39-.38a.63.63,0,0,0-.89-.89Z"/><path class="form14-3" d="M229.52,170.52a.63.63,0,0,0,0-1.25.63.63,0,0,0,0,1.25Z"/><path class="form14-3" d="M241.11,167.43a.63.63,0,0,0,0-1.25.63.63,0,0,0,0,1.25Z"/><path class="form14-3" d="M233,169a.63.63,0,0,0,0-1.25.63.63,0,0,0,0,1.25Z"/><path class="form14-3" d="M251.54,163.18a.63.63,0,0,0,0-1.25.63.63,0,0,0,0,1.25Z"/><path class="form14-3" d="M233,165.89a.63.63,0,0,0,0-1.25.63.63,0,0,0,0,1.25Z"/><path class="form14-3" d="M244.2,163.18a.63.63,0,0,0,0-1.25.63.63,0,0,0,0,1.25Z"/><path class="form14-3" d="M236.09,164.73a.63.63,0,0,0,0-1.25.63.63,0,0,0,0,1.25Z"/><path class="form14-3" d="M241.11,163.18a.63.63,0,0,0,0-1.25.63.63,0,0,0,0,1.25Z"/><path class="form14-3" d="M244.2,160.09a.63.63,0,0,0,0-1.25.63.63,0,0,0,0,1.25Z"/><path class="form14-3" d="M231.45,163.57a.63.63,0,0,0,0-1.25.63.63,0,0,0,0,1.25Z"/><path class="form14-3" d="M260.81,157.77a.63.63,0,0,0,0-1.25.63.63,0,0,0,0,1.25Z"/><path class="form14-3" d="M237.63,159.32a.63.63,0,0,0,0-1.25.63.63,0,0,0,0,1.25Z"/><path class="form14-3" d="M257.72,155.84a.63.63,0,0,0,0-1.25.63.63,0,0,0,0,1.25Z"/><path class="form14-3" d="M248.83,158.55a.63.63,0,0,0,0-1.25.63.63,0,0,0,0,1.25Z"/><path class="form14-3" d="M246.52,158.55a.63.63,0,0,0,0-1.25.63.63,0,0,0,0,1.25Z"/><path class="form14-3" d="M245,157a.63.63,0,0,0,0-1.25.63.63,0,0,0,0,1.25Z"/><path class="form14-3" d="M235.7,156.23a.63.63,0,0,0,0-1.25.63.63,0,0,0,0,1.25Z"/><path class="form14-3" d="M267.76,151.21a.63.63,0,0,0,0-1.25.63.63,0,0,0,0,1.25Z"/><path class="form14-3" d="M237.63,150.82a.63.63,0,0,0,0-1.25.63.63,0,0,0,0,1.25Z"/><path class="form14-3" d="M272,145.71h-.77a.63.63,0,0,0,0,1.25H272a.63.63,0,0,0,0-1.25Z"/><path class="form14-3" d="M252.31,150.82a.63.63,0,0,0,0-1.25.63.63,0,0,0,0,1.25Z"/><path class="form14-3" d="M261.2,150.44a.63.63,0,0,0,0-1.25.63.63,0,0,0,0,1.25Z"/><path class="form14-3" d="M248.45,152.75a.63.63,0,0,0,0-1.25.63.63,0,0,0,0,1.25Z"/><path class="form14-3" d="M228.75,154.3a.63.63,0,0,0,0-1.25.63.63,0,0,0,0,1.25Z"/><path class="form14-3" d="M251.54,152a.63.63,0,0,0,0-1.25.63.63,0,0,0,0,1.25Z"/><path class="form14-3" d="M242.65,153.53a.63.63,0,0,0,0-1.25.63.63,0,0,0,0,1.25Z"/><path class="form14-3" d="M253.08,151.59a.63.63,0,0,0,0-1.25.63.63,0,0,0,0,1.25Z"/><path class="form14-3" d="M268.92,152a.63.63,0,0,0,0-1.25.63.63,0,0,0,0,1.25Z"/><path class="form14-3" d="M245,153.14a.63.63,0,0,0,0-1.25.63.63,0,0,0,0,1.25Z"/><path class="form14-3" d="M285.15,200.27a.63.63,0,0,0,0-1.25.63.63,0,0,0,0,1.25Z"/><path class="form14-3" d="M262.74,204.9a.63.63,0,0,0,0-1.25.63.63,0,0,0,0,1.25Z"/><path class="form14-3" d="M287.85,201.43a.63.63,0,0,0,0-1.25.63.63,0,0,0,0,1.25Z"/><path class="form14-3" d="M271.63,201.43a.63.63,0,0,0,0-1.25.63.63,0,0,0,0,1.25Z"/><path class="form14-3" d="M282.44,199.11a.63.63,0,0,0,0-1.25.63.63,0,0,0,0,1.25Z"/><path class="form14-3" d="M270.08,200.65a.63.63,0,0,0,0-1.25.63.63,0,0,0,0,1.25Z"/><path class="form14-3" d="M275.88,200.65a.63.63,0,0,0,0-1.25.63.63,0,0,0,0,1.25Z"/><path class="form14-3" d="M262.74,201.43a.63.63,0,0,0,0-1.25.63.63,0,0,0,0,1.25Z"/><path class="form14-3" d="M260,201a.63.63,0,0,0,0-1.25.63.63,0,0,0,0,1.25Z"/><path class="form14-3" d="M244.59,201a.63.63,0,0,0,0-1.25.63.63,0,0,0,0,1.25Z"/><path class="form14-3" d="M250.38,205.68a.63.63,0,0,0,0-1.25.63.63,0,0,0,0,1.25Z"/><path class="form14-3" d="M257.33,200.65a.63.63,0,0,0,0-1.25.63.63,0,0,0,0,1.25Z"/><path class="form14-3" d="M251.15,200.27a.63.63,0,0,0,0-1.25.63.63,0,0,0,0,1.25Z"/><path class="form14-3" d="M260,198.72a.63.63,0,0,0,0-1.25.63.63,0,0,0,0,1.25Z"/><path class="form14-3" d="M245.36,203a.63.63,0,0,0,0-1.25.63.63,0,0,0,0,1.25Z"/><path class="form14-3" d="M243,204.52a.63.63,0,0,0,0-1.25.63.63,0,0,0,0,1.25Z"/><path class="form14-3" d="M244.2,207.61a.63.63,0,0,0,0-1.25.63.63,0,0,0,0,1.25Z"/><path class="form14-3" d="M226,203a.63.63,0,0,0,0-1.25.63.63,0,0,0,0,1.25Z"/><path class="form14-3" d="M234.16,205.29a.63.63,0,0,0,0-1.25.63.63,0,0,0,0,1.25Z"/><path class="form14-3" d="M226.43,199.5a.63.63,0,0,0,0-1.25.63.63,0,0,0,0,1.25Z"/><path class="form14-3" d="M234.93,198.34a.63.63,0,0,0,0-1.25.63.63,0,0,0,0,1.25Z"/><path class="form14-3" d="M219.09,196.4a.63.63,0,0,0,0-1.25.63.63,0,0,0,0,1.25Z"/><path class="form14-3" d="M227.59,193.7a.63.63,0,0,0,0-1.25.63.63,0,0,0,0,1.25Z"/><path class="form14-3" d="M224.11,195.25a.63.63,0,0,0,0-1.25.63.63,0,0,0,0,1.25Z"/><path class="form14-3" d="M231.06,194.47a.63.63,0,0,0,0-1.25.63.63,0,0,0,0,1.25Z"/><path class="form14-3" d="M230.68,195.63a.63.63,0,0,0,0-1.25.63.63,0,0,0,0,1.25Z"/><path class="form14-3" d="M231.45,198.34a.63.63,0,0,0,0-1.25.63.63,0,0,0,0,1.25Z"/><path class="form14-3" d="M234.16,202.2a.63.63,0,0,0,0-1.25.63.63,0,0,0,0,1.25Z"/><path class="form14-3" d="M238.4,207.61a.63.63,0,0,0,0-1.25.63.63,0,0,0,0,1.25Z"/><path class="form14-3" d="M236.86,213.79a.63.63,0,0,0,0-1.25.63.63,0,0,0,0,1.25Z"/><path class="form14-3" d="M246.52,215a.63.63,0,0,0,0-1.25.63.63,0,0,0,0,1.25Z"/><path class="form14-3" d="M248.06,214.17a.63.63,0,0,0,0-1.25.63.63,0,0,0,0,1.25Z"/><path class="form14-3" d="M259.65,211.86a.63.63,0,0,0,0-1.25.63.63,0,0,0,0,1.25Z"/><path class="form14-3" d="M255.79,213.79a.63.63,0,0,0,0-1.25.63.63,0,0,0,0,1.25Z"/><path class="form14-3" d="M262,218a.63.63,0,0,0,0-1.25.63.63,0,0,0,0,1.25Z"/><path class="form14-3" d="M251.54,208.77a.63.63,0,0,0,0-1.25.63.63,0,0,0,0,1.25Z"/><path class="form14-3" d="M254.24,205.68a.63.63,0,0,0,0-1.25.63.63,0,0,0,0,1.25Z"/><path class="form14-3" d="M260.81,211.86a.63.63,0,0,0,0-1.25.63.63,0,0,0,0,1.25Z"/><path class="form14-3" d="M266.22,208.38a.63.63,0,0,0,0-1.25.63.63,0,0,0,0,1.25Z"/><path class="form14-3" d="M265.83,215.33a.63.63,0,0,0,0-1.25.63.63,0,0,0,0,1.25Z"/><path class="form14-3" d="M270.08,213.79a.63.63,0,0,0,0-1.25.63.63,0,0,0,0,1.25Z"/><path class="form14-3" d="M273.17,209.93a.63.63,0,0,0,0-1.25.63.63,0,0,0,0,1.25Z"/><path class="form14-3" d="M276.26,211.47a.63.63,0,0,0,0-1.25.63.63,0,0,0,0,1.25Z"/><path class="form14-3" d="M287.46,211.47a.63.63,0,0,0,0-1.25.63.63,0,0,0,0,1.25Z"/><path class="form14-3" d="M271.68,207.81l.39-.39c.57-.57-.32-1.45-.89-.88l-.38.39a.62.62,0,0,0,.88.88Z"/><path class="form14-3" d="M294,207.22a.63.63,0,0,0,0-1.25.63.63,0,0,0,0,1.25Z"/><path class="form14-3" d="M282.83,209.54a.63.63,0,0,0,0-1.25.63.63,0,0,0,0,1.25Z"/><path class="form14-3" d="M282.06,220a.63.63,0,0,0,0-1.25.63.63,0,0,0,0,1.25Z"/><path class="form14-3" d="M282.83,211.47a.63.63,0,0,0,0-1.25.63.63,0,0,0,0,1.25Z"/><path class="form14-3" d="M280.12,211.86a.63.63,0,0,0,0-1.25.63.63,0,0,0,0,1.25Z"/><path class="form14-3" d="M280.12,208a.63.63,0,0,0,0-1.25.63.63,0,0,0,0,1.25Z"/><path class="form14-3" d="M299.83,206.06a.63.63,0,0,0,0-1.25.63.63,0,0,0,0,1.25Z"/><path class="form14-3" d="M287.46,209.54a.63.63,0,0,0,0-1.25.63.63,0,0,0,0,1.25Z"/><path class="form14-3" d="M273.56,204.13a.63.63,0,0,0,0-1.25.63.63,0,0,0,0,1.25Z"/><path class="form14-3" d="M291.71,201.81a.63.63,0,0,0,0-1.25.63.63,0,0,0,0,1.25Z"/><path class="form14-3" d="M295.19,198.72a.63.63,0,0,0,0-1.25.63.63,0,0,0,0,1.25Z"/><path class="form14-3" d="M287.08,194.86a.63.63,0,0,0,0-1.25.63.63,0,0,0,0,1.25Z"/><path class="form14-3" d="M310.64,192.93a.63.63,0,0,0,0-1.25.63.63,0,0,0,0,1.25Z"/><path class="form14-3" d="M300.21,196a.63.63,0,0,0,0-1.25.63.63,0,0,0,0,1.25Z"/><path class="form14-3" d="M298.28,196a.63.63,0,0,0,0-1.25.63.63,0,0,0,0,1.25Z"/><path class="form14-3" d="M295.19,196a.63.63,0,0,0,0-1.25.63.63,0,0,0,0,1.25Z"/><path class="form14-3" d="M303.69,197.18a.63.63,0,0,0,0-1.25.63.63,0,0,0,0,1.25Z"/><path class="form14-3" d="M302.53,198.72a.63.63,0,0,0,0-1.25.63.63,0,0,0,0,1.25Z"/><path class="form14-3" d="M295.19,202.59a.63.63,0,0,0,0-1.25.63.63,0,0,0,0,1.25Z"/><path class="form14-3" d="M296.74,206.45a.63.63,0,0,0,0-1.25.63.63,0,0,0,0,1.25Z"/><path class="form14-3" d="M307.94,212.24a.63.63,0,0,0,0-1.25.63.63,0,0,0,0,1.25Z"/><path class="form14-3" d="M307.55,207.61a.63.63,0,0,0,0-1.25.63.63,0,0,0,0,1.25Z"/><path class="form14-3" d="M304.46,204.13a.63.63,0,0,0,0-1.25.63.63,0,0,0,0,1.25Z"/><path class="form14-3" d="M312.57,198.72a.63.63,0,0,0,0-1.25.63.63,0,0,0,0,1.25Z"/><path class="form14-3" d="M303.69,198a.63.63,0,0,0,0-1.25.63.63,0,0,0,0,1.25Z"/><path class="form14-3" d="M311.42,195.63a.63.63,0,0,0,0-1.25.63.63,0,0,0,0,1.25Z"/><path class="form14-3" d="M308.32,204.9a.63.63,0,0,0,0-1.25.63.63,0,0,0,0,1.25Z"/><path class="form14-3" d="M309.48,198.34a.63.63,0,0,0,0-1.25.63.63,0,0,0,0,1.25Z"/><path class="form14-3" d="M307.94,194.09a.63.63,0,0,0,0-1.25.63.63,0,0,0,0,1.25Z"/><path class="form14-3" d="M313,186.75a.63.63,0,0,0,0-1.25.63.63,0,0,0,0,1.25Z"/><path class="form14-3" d="M307.17,187.13a.63.63,0,0,0,0-1.25.63.63,0,0,0,0,1.25Z"/><path class="form14-3" d="M324.55,182.5a.63.63,0,0,0,0-1.25.63.63,0,0,0,0,1.25Z"/><path class="form14-3" d="M310.64,181a.63.63,0,0,0,0-1.25.63.63,0,0,0,0,1.25Z"/><path class="form14-3" d="M336.14,175.16a.63.63,0,0,0,0-1.25.63.63,0,0,0,0,1.25Z"/><path class="form14-3" d="M304.08,178.25a.63.63,0,0,0,0-1.25.63.63,0,0,0,0,1.25Z"/><path class="form14-3" d="M310.64,175.93a.63.63,0,0,0,0-1.25.63.63,0,0,0,0,1.25Z"/><path class="form14-3" d="M315.66,173.61a.63.63,0,0,0,0-1.25.63.63,0,0,0,0,1.25Z"/><path class="form14-3" d="M316.44,172.84a.63.63,0,0,0,0-1.25.63.63,0,0,0,0,1.25Z"/><path class="form14-3" d="M316.82,172.45a.63.63,0,0,0,0-1.25.63.63,0,0,0,0,1.25Z"/><path class="form14-3" d="M322.62,172.84a.63.63,0,0,0,0-1.25.63.63,0,0,0,0,1.25Z"/><path class="form14-3" d="M307.17,183.66a.63.63,0,0,0,0-1.25.63.63,0,0,0,0,1.25Z"/><path class="form14-3" d="M329.57,179.41a.63.63,0,0,0,0-1.25.63.63,0,0,0,0,1.25Z"/><path class="form14-3" d="M318.75,181a.63.63,0,0,0,0-1.25.63.63,0,0,0,0,1.25Z"/><path class="form14-3" d="M322.62,175.54a.63.63,0,0,0,0-1.25.63.63,0,0,0,0,1.25Z"/><path class="form14-3" d="M319.53,176.32a.63.63,0,0,0,0-1.25.63.63,0,0,0,0,1.25Z"/><path class="form14-3" d="M311.8,178.63a.63.63,0,0,0,0-1.25.63.63,0,0,0,0,1.25Z"/><path class="form14-3" d="M318.75,175.54a.63.63,0,0,0,0-1.25.63.63,0,0,0,0,1.25Z"/><path class="form14-3" d="M314.12,171.3a.63.63,0,0,0,0-1.25.63.63,0,0,0,0,1.25Z"/><path class="form14-3" d="M320.3,167.43a.63.63,0,0,0,0-1.25.63.63,0,0,0,0,1.25Z"/><path class="form14-3" d="M317.6,167.43a.63.63,0,0,0,0-1.25.63.63,0,0,0,0,1.25Z"/><path class="form14-3" d="M313.35,166.27a.63.63,0,0,0,0-1.25.63.63,0,0,0,0,1.25Z"/><path class="form14-3" d="M309.1,161.64a.63.63,0,0,0,0-1.25.63.63,0,0,0,0,1.25Z"/><path class="form14-3" d="M313,159.71a.63.63,0,0,0,0-1.25.63.63,0,0,0,0,1.25Z"/><path class="form14-3" d="M306.39,171.68a.63.63,0,0,0,0-1.25.63.63,0,0,0,0,1.25Z"/><path class="form14-3" d="M304.46,163.57a.63.63,0,0,0,0-1.25.63.63,0,0,0,0,1.25Z"/><path class="form14-3" d="M298.28,164.73a.63.63,0,0,0,0-1.25.63.63,0,0,0,0,1.25Z"/><path class="form14-3" d="M312.19,164a.63.63,0,0,0,0-1.25.63.63,0,0,0,0,1.25Z"/><path class="form14-3" d="M316.05,163.18a.63.63,0,0,0,0-1.25.63.63,0,0,0,0,1.25Z"/><path class="form14-3" d="M323,164.34a.63.63,0,0,0,0-1.25.63.63,0,0,0,0,1.25Z"/><path class="form14-3" d="M324.55,170.14a.63.63,0,0,0,0-1.25.63.63,0,0,0,0,1.25Z"/><path class="form14-3" d="M324.94,171.3a.63.63,0,0,0,0-1.25.63.63,0,0,0,0,1.25Z"/><path class="form14-3" d="M323.78,176.32a.63.63,0,0,0,0-1.25.63.63,0,0,0,0,1.25Z"/><path class="form14-3" d="M314.89,181.34a.63.63,0,0,0,0-1.25.63.63,0,0,0,0,1.25Z"/><path class="form14-3" d="M314.89,182.5a.63.63,0,0,0,0-1.25.63.63,0,0,0,0,1.25Z"/><path class="form14-3" d="M317.6,187.52a.63.63,0,0,0,0-1.25.63.63,0,0,0,0,1.25Z"/><path class="form14-3" d="M315.28,192.54a.63.63,0,0,0,0-1.25.63.63,0,0,0,0,1.25Z"/><path class="form14-3" d="M314.51,195.63a.63.63,0,0,0,0-1.25.63.63,0,0,0,0,1.25Z"/><path class="form14-3" d="M317.21,198a.63.63,0,0,0,0-1.25.63.63,0,0,0,0,1.25Z"/><path class="form14-3" d="M323.39,197.18a.63.63,0,0,0,0-1.25.63.63,0,0,0,0,1.25Z"/><path class="form14-3" d="M319.91,192.54a.63.63,0,0,0,0-1.25.63.63,0,0,0,0,1.25Z"/><path class="form14-3" d="M320.22,192.05l1.16-.77c.66-.44,0-1.53-.63-1.08l-1.16.77c-.67.45,0,1.53.63,1.08Z"/><path class="form14-3" d="M327.25,188.68a.63.63,0,0,0,0-1.25.63.63,0,0,0,0,1.25Z"/><path class="form14-3" d="M328.8,186.36a.63.63,0,0,0,0-1.25.63.63,0,0,0,0,1.25Z"/><path class="form14-3" d="M319.91,188.68a.63.63,0,0,0,0-1.25.63.63,0,0,0,0,1.25Z"/><path class="form14-3" d="M326.87,197.18a.63.63,0,0,0,0-1.25.63.63,0,0,0,0,1.25Z"/><path class="form14-3" d="M325.32,189.45a.63.63,0,0,0,0-1.25.63.63,0,0,0,0,1.25Z"/><path class="form14-3" d="M319.91,192.54a.63.63,0,0,0,0-1.25.63.63,0,0,0,0,1.25Z"/><path class="form14-3" d="M325.32,194.09a.63.63,0,0,0,0-1.25.63.63,0,0,0,0,1.25Z"/><path class="form14-3" d="M321.07,195.25a.63.63,0,0,0,0-1.25.63.63,0,0,0,0,1.25Z"/><path class="form14-3" d="M319.53,200.27a.63.63,0,0,0,0-1.25.63.63,0,0,0,0,1.25Z"/><path class="form14-3" d="M326.09,205.29a.63.63,0,0,0,0-1.25.63.63,0,0,0,0,1.25Z"/><path class="form14-3" d="M318.75,204.9a.63.63,0,0,0,0-1.25.63.63,0,0,0,0,1.25Z"/><path class="form14-3" d="M312.57,202.59a.63.63,0,0,0,0-1.25.63.63,0,0,0,0,1.25Z"/><path class="form14-3" d="M312.19,202.59a.63.63,0,0,0,0-1.25.63.63,0,0,0,0,1.25Z"/><path class="form14-3" d="M301.37,203.74a.63.63,0,0,0,0-1.25.63.63,0,0,0,0,1.25Z"/><path class="form14-3" d="M301.37,203.74a.63.63,0,0,0,0-1.25.63.63,0,0,0,0,1.25Z"/><path class="form14-3" d="M292.87,206.83a.63.63,0,0,0,0-1.25.63.63,0,0,0,0,1.25Z"/><path class="form14-3" d="M291.33,206.83a.63.63,0,0,0,0-1.25.63.63,0,0,0,0,1.25Z"/><path class="form14-3" d="M292.87,212.24a.63.63,0,0,0,0-1.25.63.63,0,0,0,0,1.25Z"/><path class="form14-3" d="M297.12,211.47a.63.63,0,0,0,0-1.25.63.63,0,0,0,0,1.25Z"/><path class="form14-3" d="M296.35,213.4a.63.63,0,0,0,0-1.25.63.63,0,0,0,0,1.25Z"/><path class="form14-3" d="M296,218.81a.63.63,0,0,0,0-1.25.63.63,0,0,0,0,1.25Z"/><path class="form14-3" d="M290.55,221.51a.63.63,0,0,0,0-1.25.63.63,0,0,0,0,1.25Z"/><path class="form14-3" d="M288.62,220.74a.63.63,0,0,0,0-1.25.63.63,0,0,0,0,1.25Z"/><path class="form14-3" d="M285.15,216.88a.63.63,0,0,0,0-1.25.63.63,0,0,0,0,1.25Z"/><path class="form14-3" d="M272,219.2a.63.63,0,0,0,0-1.25.63.63,0,0,0,0,1.25Z"/><path class="form14-3" d="M282.06,216.11a.63.63,0,0,0,0-1.25.63.63,0,0,0,0,1.25Z"/><path class="form14-3" d="M277.42,217.27a.63.63,0,0,0,0-1.25.63.63,0,0,0,0,1.25Z"/><path class="form14-3" d="M284,214.17a.63.63,0,0,0,0-1.25.63.63,0,0,0,0,1.25Z"/><path class="form14-3" d="M282.83,213.79a.63.63,0,0,0,0-1.25.63.63,0,0,0,0,1.25Z"/><path class="form14-3" d="M274.72,215a.63.63,0,0,0,0-1.25.63.63,0,0,0,0,1.25Z"/><path class="form14-3" d="M285.15,219.58a.63.63,0,0,0,0-1.25.63.63,0,0,0,0,1.25Z"/><path class="form14-3" d="M276.65,221.9a.63.63,0,0,0,0-1.25.63.63,0,0,0,0,1.25Z"/><path class="form14-3" d="M268.54,223.06a.63.63,0,0,0,0-1.25.63.63,0,0,0,0,1.25Z"/><path class="form14-3" d="M273.56,225.38a.63.63,0,0,0,0-1.25.63.63,0,0,0,0,1.25Z"/><path class="form14-3" d="M290.17,227.7a.63.63,0,0,0,0-1.25.63.63,0,0,0,0,1.25Z"/><path class="form14-3" d="M292.1,227.7a.63.63,0,0,0,0-1.25.63.63,0,0,0,0,1.25Z"/><path class="form14-3" d="M295.58,227.31a.63.63,0,0,0,0-1.25.63.63,0,0,0,0,1.25Z"/><path class="form14-3" d="M321.46,226.92a.63.63,0,0,0,0-1.25.63.63,0,0,0,0,1.25Z"/><path class="form14-3" d="M223.72,204.52a.63.63,0,0,0,0-1.25.63.63,0,0,0,0,1.25Z"/><path class="form14-3" d="M228,211.47a.63.63,0,0,0,0-1.25.63.63,0,0,0,0,1.25Z"/><path class="form14-3" d="M211,207.22a.63.63,0,0,0,0-1.25.63.63,0,0,0,0,1.25Z"/><path class="form14-3" d="M243.81,204.9a.63.63,0,0,0,0-1.25.63.63,0,0,0,0,1.25Z"/><path class="form14-3" d="M236.47,208.77a.63.63,0,0,0,0-1.25.63.63,0,0,0,0,1.25Z"/><path class="form14-3" d="M253.86,220a.63.63,0,0,0,0-1.25.63.63,0,0,0,0,1.25Z"/><path class="form14-3" d="M257.33,218a.63.63,0,0,0,0-1.25.63.63,0,0,0,0,1.25Z"/><path class="form14-3" d="M248.45,218.81a.63.63,0,0,0,0-1.25.63.63,0,0,0,0,1.25Z"/><path class="form14-3" d="M233.38,220a.63.63,0,0,0,0-1.25.63.63,0,0,0,0,1.25Z"/><path class="form14-3" d="M249.61,219.2a.63.63,0,0,0,0-1.25.63.63,0,0,0,0,1.25Z"/><path class="form14-3" d="M236.09,221.51a.63.63,0,0,0,0-1.25.63.63,0,0,0,0,1.25Z"/><path class="form14-3" d="M239.56,216.49a.63.63,0,0,0,0-1.25.63.63,0,0,0,0,1.25Z"/><path class="form14-3" d="M229.52,215.33a.63.63,0,0,0,0-1.25.63.63,0,0,0,0,1.25Z"/><path class="form14-3" d="M210.59,214.56a.63.63,0,0,0,0-1.25.63.63,0,0,0,0,1.25Z"/><path class="form14-3" d="M217.54,210.31a.63.63,0,0,0,0-1.25.63.63,0,0,0,0,1.25Z"/><path class="form14-3" d="M219.09,212.24a.63.63,0,0,0,0-1.25.63.63,0,0,0,0,1.25Z"/><path class="form14-3" d="M243.81,218a.63.63,0,0,0,0-1.25.63.63,0,0,0,0,1.25Z"/><path class="form14-3" d="M241.11,220.74a.63.63,0,0,0,0-1.25.63.63,0,0,0,0,1.25Z"/><path class="form14-3" d="M249.22,226.92a.63.63,0,0,0,0-1.25.63.63,0,0,0,0,1.25Z"/><path class="form14-3" d="M251.54,226.92a.63.63,0,0,0,0-1.25.63.63,0,0,0,0,1.25Z"/><path class="form14-3" d="M247.29,233.88a.63.63,0,0,0,0-1.25.63.63,0,0,0,0,1.25Z"/><path class="form14-3" d="M260.42,235a.63.63,0,0,0,0-1.25.63.63,0,0,0,0,1.25Z"/><path class="form14-3" d="M270.08,236.19a.63.63,0,0,0,0-1.25.63.63,0,0,0,0,1.25Z"/><path class="form14-3" d="M272.4,237a.63.63,0,0,0,0-1.25.63.63,0,0,0,0,1.25Z"/><path class="form14-3" d="M275.49,232.72a.63.63,0,0,0,0-1.25.63.63,0,0,0,0,1.25Z"/><path class="form14-3" d="M279.35,229.24a.63.63,0,0,0,0-1.25.63.63,0,0,0,0,1.25Z"/><path class="form14-3" d="M287.08,226.92a.63.63,0,0,0,0-1.25.63.63,0,0,0,0,1.25Z"/><path class="form14-3" d="M277.81,227.31a.63.63,0,0,0,0-1.25.63.63,0,0,0,0,1.25Z"/><path class="form14-3" d="M257.72,228.08a.63.63,0,0,0,0-1.25.63.63,0,0,0,0,1.25Z"/><path class="form14-3" d="M265.06,223.45a.63.63,0,0,0,0-1.25.63.63,0,0,0,0,1.25Z"/><path class="form14-3" d="M263.13,223.45a.63.63,0,0,0,0-1.25.63.63,0,0,0,0,1.25Z"/><path class="form14-3" d="M260,223.83a.63.63,0,0,0,0-1.25.63.63,0,0,0,0,1.25Z"/><path class="form14-3" d="M276.26,217.65a.63.63,0,0,0,0-1.25.63.63,0,0,0,0,1.25Z"/><path class="form14-3" d="M284,228.47h.38a.63.63,0,0,0,0-1.25H284a.63.63,0,0,0,0,1.25Z"/><path class="form14-3" d="M306.78,224.6a.63.63,0,0,0,0-1.25.63.63,0,0,0,0,1.25Z"/><path class="form14-3" d="M308.32,220a.63.63,0,0,0,0-1.25.63.63,0,0,0,0,1.25Z"/><path class="form14-3" d="M312.19,220.74a.63.63,0,0,0,0-1.25.63.63,0,0,0,0,1.25Z"/><path class="form14-3" d="M307.94,219.58a.63.63,0,0,0,0-1.25.63.63,0,0,0,0,1.25Z"/><path class="form14-3" d="M317.6,215.72a.63.63,0,0,0,0-1.25.63.63,0,0,0,0,1.25Z"/><path class="form14-3" d="M300.6,216.88a.63.63,0,0,0,0-1.25.63.63,0,0,0,0,1.25Z"/><path class="form14-3" d="M327.25,214.56a.63.63,0,0,0,0-1.25.63.63,0,0,0,0,1.25Z"/><path class="form14-3" d="M311.8,214.56a.63.63,0,0,0,0-1.25.63.63,0,0,0,0,1.25Z"/><path class="form14-3" d="M299.83,217.65a.63.63,0,0,0,0-1.25.63.63,0,0,0,0,1.25Z"/><path class="form14-3" d="M310.26,216.11a.63.63,0,0,0,0-1.25.63.63,0,0,0,0,1.25Z"/><path class="form14-3" d="M304.46,216.88a.63.63,0,0,0,0-1.25.63.63,0,0,0,0,1.25Z"/><path class="form14-3" d="M328.8,210.7a.63.63,0,0,0,0-1.25.63.63,0,0,0,0,1.25Z"/><path class="form14-3" d="M314.89,211.47a.63.63,0,0,0,0-1.25.63.63,0,0,0,0,1.25Z"/><path class="form14-3" d="M323.39,208.38a.63.63,0,0,0,0-1.25.63.63,0,0,0,0,1.25Z"/><path class="form14-3" d="M316.82,210.31h.39a.63.63,0,0,0,0-1.25h-.39a.63.63,0,0,0,0,1.25Z"/><path class="form14-3" d="M328,211.08a.63.63,0,0,0,0-1.25.63.63,0,0,0,0,1.25Z"/><path class="form14-3" d="M323.39,215a.63.63,0,0,0,0-1.25.63.63,0,0,0,0,1.25Z"/><path class="form14-3" d="M321.46,211.08a.63.63,0,0,0,0-1.25.63.63,0,0,0,0,1.25Z"/><path class="form14-3" d="M319.53,206.45a.63.63,0,0,0,0-1.25.63.63,0,0,0,0,1.25Z"/><path class="form14-3" d="M323.78,202.59a.63.63,0,0,0,0-1.25.63.63,0,0,0,0,1.25Z"/><path class="form14-3" d="M327.25,199.5a.63.63,0,0,0,0-1.25.63.63,0,0,0,0,1.25Z"/><path class="form14-3" d="M330.34,196.4a.63.63,0,0,0,0-1.25.63.63,0,0,0,0,1.25Z"/><path class="form14-3" d="M331.89,193.7a.63.63,0,0,0,0-1.25.63.63,0,0,0,0,1.25Z"/><path class="form14-3" d="M333.43,191.77a.63.63,0,0,0,0-1.25.63.63,0,0,0,0,1.25Z"/><path class="form14-3" d="M335,187.91a.63.63,0,0,0,0-1.25.63.63,0,0,0,0,1.25Z"/><path class="form14-3" d="M335,183.66a.63.63,0,0,0,0-1.25.63.63,0,0,0,0,1.25Z"/><path class="form14-3" d="M333.05,181a.63.63,0,0,0,0-1.25.63.63,0,0,0,0,1.25Z"/><path class="form14-3" d="M330.34,175.93a.63.63,0,0,0,0-1.25.63.63,0,0,0,0,1.25Z"/><path class="form14-3" d="M330.34,170.52a.63.63,0,0,0,0-1.25.63.63,0,0,0,0,1.25Z"/><path class="form14-3" d="M330,169.75a.63.63,0,0,0,0-1.25.63.63,0,0,0,0,1.25Z"/><path class="form14-3" d="M326.09,152a.63.63,0,0,0,0-1.25.63.63,0,0,0,0,1.25Z"/><path class="form14-3" d="M311.8,152.37a.63.63,0,0,0,0-1.25.63.63,0,0,0,0,1.25Z"/><path class="form14-3" d="M306.78,150.44a.63.63,0,0,0,0-1.25.63.63,0,0,0,0,1.25Z"/><path class="form14-3" d="M298.67,149.66a.63.63,0,0,0,0-1.25.63.63,0,0,0,0,1.25Z"/><path class="form14-3" d="M303.69,140.78a.63.63,0,0,0,0-1.25.63.63,0,0,0,0,1.25Z"/><path class="form14-3" d="M292.1,143.1a.63.63,0,0,0,0-1.25.63.63,0,0,0,0,1.25Z"/><path class="form14-3" d="M302.92,143.1a.63.63,0,0,0,0-1.25.63.63,0,0,0,0,1.25Z"/><path class="form14-3" d="M298.67,145.41a.63.63,0,0,0,0-1.25.63.63,0,0,0,0,1.25Z"/><path class="form14-3" d="M311.42,147.73a.63.63,0,0,0,0-1.25.63.63,0,0,0,0,1.25Z"/><path class="form14-3" d="M326.87,189.84a.63.63,0,0,0,0-1.25.63.63,0,0,0,0,1.25Z"/><path class="form14-3" d="M263.51,151.21a.63.63,0,0,0,0-1.25.63.63,0,0,0,0,1.25Z"/><path class="form14-3" d="M239.56,147.34a.63.63,0,0,0,0-1.25.63.63,0,0,0,0,1.25Z"/><path class="form14-3" d="M223.72,162.8a.63.63,0,0,0,0-1.25.63.63,0,0,0,0,1.25Z"/><path class="form14-3" d="M235.31,149.66a.63.63,0,0,0,0-1.25.63.63,0,0,0,0,1.25Z"/><path class="form14-3" d="M226.43,152a.63.63,0,0,0,0-1.25.63.63,0,0,0,0,1.25Z"/><path class="form14-3" d="M222.57,161.25a.63.63,0,0,0,0-1.25.63.63,0,0,0,0,1.25Z"/><path class="form14-3" d="M215.23,160.48a.63.63,0,0,0,0-1.25.63.63,0,0,0,0,1.25Z"/><path class="form14-3" d="M225.27,160.48a.63.63,0,0,0,0-1.25.63.63,0,0,0,0,1.25Z"/><path class="form14-3" d="M208.66,158.55a.63.63,0,0,0,0-1.25.63.63,0,0,0,0,1.25Z"/><path class="form14-3" d="M213.29,170.52a.63.63,0,0,0,0-1.25.63.63,0,0,0,0,1.25Z"/><path class="form14-3" d="M200.55,172.84a.63.63,0,0,0,0-1.25.63.63,0,0,0,0,1.25Z"/><path class="form14-3" d="M218.32,170.14a.63.63,0,0,0,0-1.25.63.63,0,0,0,0,1.25Z"/><path class="form14-3" d="M209.05,171.3a.63.63,0,0,0,0-1.25.63.63,0,0,0,0,1.25Z"/><path class="form14-3" d="M219.09,167.43a.63.63,0,0,0,0-1.25.63.63,0,0,0,0,1.25Z"/><path class="form14-3" d="M211,172.45a.63.63,0,0,0,0-1.25.63.63,0,0,0,0,1.25Z"/><path class="form14-3" d="M222.18,172.84a.63.63,0,0,0,0-1.25.63.63,0,0,0,0,1.25Z"/><path class="form14-3" d="M212.52,177.48h.39a.63.63,0,0,0,0-1.25h-.39a.63.63,0,0,0,0,1.25Z"/><path class="form14-3" d="M219.86,175.93a.63.63,0,0,0,0-1.25.63.63,0,0,0,0,1.25Z"/><path class="form14-3" d="M217.16,178.25a.63.63,0,0,0,0-1.25.63.63,0,0,0,0,1.25Z"/><path class="form14-3" d="M216.77,182.11a.63.63,0,0,0,0-1.25.63.63,0,0,0,0,1.25Z"/><path class="form14-3" d="M224.5,183.27a.63.63,0,0,0,0-1.25.63.63,0,0,0,0,1.25Z"/><path class="form14-3" d="M215.23,186.36a.63.63,0,0,0,0-1.25.63.63,0,0,0,0,1.25Z"/><path class="form14-3" d="M215.23,186.36a.63.63,0,0,0,0-1.25.63.63,0,0,0,0,1.25Z"/><path class="form14-3" d="M225.27,181a.63.63,0,0,0,0-1.25.63.63,0,0,0,0,1.25Z"/><path class="form14-3" d="M221.41,180.57a.63.63,0,0,0,0-1.25.63.63,0,0,0,0,1.25Z"/><path class="form14-3" d="M223,183.27a.63.63,0,0,0,0-1.25.63.63,0,0,0,0,1.25Z"/><path class="form14-3" d="M226,186.75a.63.63,0,0,0,0-1.25.63.63,0,0,0,0,1.25Z"/><path class="form14-3" d="M219.86,185.59a.63.63,0,0,0,0-1.25.63.63,0,0,0,0,1.25Z"/><path class="form14-3" d="M217.93,184.43a.63.63,0,0,0,0-1.25.63.63,0,0,0,0,1.25Z"/><path class="form14-3" d="M218.32,179.79a.63.63,0,0,0,0-1.25.63.63,0,0,0,0,1.25Z"/><path class="form14-3" d="M212.52,179.79a.63.63,0,0,0,0-1.25.63.63,0,0,0,0,1.25Z"/><path class="form14-3" d="M221.79,175.54a.63.63,0,0,0,0-1.25.63.63,0,0,0,0,1.25Z"/><path class="form14-3" d="M253.47,178.63a.63.63,0,0,0,0-1.25.63.63,0,0,0,0,1.25Z"/><path class="form14-3" d="M263.9,177.09a.63.63,0,0,0,0-1.25.63.63,0,0,0,0,1.25Z"/><path class="form14-3" d="M262.74,176.32a.63.63,0,0,0,0-1.25.63.63,0,0,0,0,1.25Z"/><path class="form14-3" d="M260.42,179a.63.63,0,0,0,0-1.25.63.63,0,0,0,0,1.25Z"/><path class="form14-3" d="M260.42,171.3a.63.63,0,0,0,0-1.25.63.63,0,0,0,0,1.25Z"/><path class="form14-3" d="M257,177.09a.63.63,0,0,0,0-1.25.63.63,0,0,0,0,1.25Z"/><path class="form14-3" d="M262.74,178.25a.63.63,0,0,0,0-1.25.63.63,0,0,0,0,1.25Z"/><path class="form14-3" d="M261.58,175.93a.63.63,0,0,0,0-1.25.63.63,0,0,0,0,1.25Z"/><path class="form14-3" d="M254.63,177.86a.63.63,0,0,0,0-1.25.63.63,0,0,0,0,1.25Z"/><path class="form14-3" d="M260.42,181a.63.63,0,0,0,0-1.25.63.63,0,0,0,0,1.25Z"/><path class="form14-3" d="M263.13,180.18a.63.63,0,0,0,0-1.25.63.63,0,0,0,0,1.25Z"/><path class="form14-3" d="M260,186a.63.63,0,0,0,0-1.25.63.63,0,0,0,0,1.25Z"/><path class="form14-3" d="M252.7,182.11a.63.63,0,0,0,0-1.25.63.63,0,0,0,0,1.25Z"/><path class="form14-3" d="M259.26,179.41a.63.63,0,0,0,0-1.25.63.63,0,0,0,0,1.25Z"/><path class="form14-3" d="M260,178.63a.63.63,0,0,0,0-1.25.63.63,0,0,0,0,1.25Z"/><path class="form14-3" d="M262.35,175.54a.63.63,0,0,0,0-1.25.63.63,0,0,0,0,1.25Z"/><path class="form14-3" d="M264.67,174a.63.63,0,0,0,0-1.25.63.63,0,0,0,0,1.25Z"/><path class="form14-3" d="M254.63,140a.63.63,0,0,0,0-1.25.63.63,0,0,0,0,1.25Z"/><path class="form14-3" d="M247.29,145.41a.63.63,0,0,0,0-1.25.63.63,0,0,0,0,1.25Z"/><path class="form14-3" d="M255.79,140.39a.63.63,0,0,0,0-1.25.63.63,0,0,0,0,1.25Z"/><path class="form14-3" d="M254.24,141.55a.63.63,0,0,0,0-1.25.63.63,0,0,0,0,1.25Z"/><path class="form14-3" d="M251.92,143.1a.63.63,0,0,0,0-1.25.63.63,0,0,0,0,1.25Z"/><path class="form14-3" d="M250,139.23a.63.63,0,0,0,0-1.25.63.63,0,0,0,0,1.25Z"/><path class="form14-3" d="M256.56,139.62a.63.63,0,0,0,0-1.25.63.63,0,0,0,0,1.25Z"/><path class="form14-3" d="M262,139.05l.39-.39a.62.62,0,0,0-.88-.88l-.39.39a.62.62,0,0,0,.88.88Z"/><path class="form14-3" d="M268.54,136.14a.63.63,0,0,0,0-1.25.63.63,0,0,0,0,1.25Z"/><path class="form14-3" d="M263.13,147.73a.63.63,0,0,0,0-1.25.63.63,0,0,0,0,1.25Z"/><path class="form14-3" d="M270.08,147.34a.63.63,0,0,0,0-1.25.63.63,0,0,0,0,1.25Z"/><path class="form14-3" d="M266.22,139.62a.63.63,0,0,0,0-1.25.63.63,0,0,0,0,1.25Z"/><path class="form14-3" d="M267.76,136.91a.63.63,0,0,0,0-1.25.63.63,0,0,0,0,1.25Z"/><path class="form14-3" d="M271.24,136.14a.63.63,0,0,0,0-1.25.63.63,0,0,0,0,1.25Z"/><path class="form14-3" d="M261.2,131.89a.63.63,0,0,0,0-1.25.63.63,0,0,0,0,1.25Z"/><path class="form14-3" d="M247.29,143.1a.63.63,0,0,0,0-1.25.63.63,0,0,0,0,1.25Z"/></g></svg>