<svg id="Capa_1" data-name="Capa 1" xmlns="http://www.w3.org/2000/svg" xmlns:xlink="http://www.w3.org/1999/xlink" viewBox="0 0 510.24 289.13"><defs><style>

//pensar animación

.form13-1,.form13-3{
fill:none;

}

.form13-2{
clip-path:url(#clip-path);
}

.form13-3{
stroke:#c6c6c5;
stroke-linecap:round;
stroke-miterlimit:10;
stroke-width:0.75px;
stroke-dasharray:1 6;

}

.form13-3:nth-child(2n){animation: shiny 1s ease-in infinite alternate}
        
@keyframes shiny {
        
            from {opacity: 0}
            to {opacity:1}
}


</style>

<clipPath id="clip-path"><polygon class="form13-1" points="251.9 75.21 307.64 68.65 368.85 61 332.78 98.16 368.85 193.25 346.99 185.6 338.25 174.91 325.13 156.09 231.13 122.21 251.9 75.21"/></clipPath></defs><title>form</title><g class="form13-2"><line class="form13-3" x1="331.99" y1="234.2" x2="453.11" y2="66.93"/><line class="form13-3" x1="321.47" y1="232.34" x2="442.59" y2="65.08"/><line class="form13-3" x1="310.96" y1="230.48" x2="432.07" y2="63.22"/><line class="form13-3" x1="300.44" y1="228.62" x2="421.56" y2="61.36"/><line class="form13-3" x1="289.92" y1="226.76" x2="411.04" y2="59.5"/><line class="form13-3" x1="279.41" y1="224.9" x2="400.52" y2="57.64"/><line class="form13-3" x1="268.89" y1="223.04" x2="390.01" y2="55.78"/><line class="form13-3" x1="258.37" y1="221.19" x2="379.49" y2="53.92"/><line class="form13-3" x1="247.86" y1="219.33" x2="368.97" y2="52.07"/><line class="form13-3" x1="237.34" y1="217.47" x2="358.46" y2="50.21"/><line class="form13-3" x1="226.82" y1="215.61" x2="347.94" y2="48.35"/><line class="form13-3" x1="216.31" y1="213.75" x2="337.43" y2="46.49"/><line class="form13-3" x1="205.79" y1="211.89" x2="326.91" y2="44.63"/><line class="form13-3" x1="195.27" y1="210.03" x2="316.39" y2="42.77"/><line class="form13-3" x1="184.76" y1="208.18" x2="305.88" y2="40.91"/><line class="form13-3" x1="174.24" y1="206.32" x2="295.36" y2="39.06"/><line class="form13-3" x1="163.72" y1="204.46" x2="284.84" y2="37.2"/></g></svg>