<svg id="Capa_1" data-name="Capa 1" xmlns="http://www.w3.org/2000/svg" viewBox="0 0 200 200"><defs><style>

.project17-1{
fill:#fff;


animation: project17 10s infinite linear;
transform-origin: 50% 50%;
}

    @keyframes project17 {
        from {transform: rotate(0deg)}
        to {transform: rotate(360deg)}  

}

</style></defs><title>formas-cuadrado</title><rect x="0.5" y="0.5" width="199" height="199"/><path d="M199,1V199H1V1H199m1-1H0V200H200V0Z"/><path class="project17-1" d="M134.05,138.73a.7.7,0,0,0,0,.3c.29.72-.06,1.15-.62,1.52a2.55,2.55,0,0,0-.47.4.65.65,0,0,1-.82.2.79.79,0,0,0-.93.18,2.18,2.18,0,0,1-.7.27.18.18,0,0,0,0,.06c0,.41.17,1,0,1.19A5.65,5.65,0,0,1,129,144c-.14.09-.41-.07-.63-.07a2.72,2.72,0,0,0-.7.06c-.28.07-.54.19-.88.31a.22.22,0,0,0,0,.13c.2.92-.32,1.34-1.06,1.71-.5.24-.93.56-1.48.13-.08-.07-.28,0-.42,0-.32.1-.63.22-1,.37.24,1-.47,1.41-1.37,1.75-.45.17-.79.31-1.22,0-.14-.11-.43-.05-.65,0s-.54.1-.89.17c0,0-.05.06-.05.16.06.9-.49,1.2-1.25,1.42-.57.17-1.07.4-1.58-.12-.08-.08-.31,0-.47,0a2.75,2.75,0,0,1-.86,0s-.07,0-.07.06c-.07,1.47-1.29,1.42-2.26,1.68-.13,0-.33-.11-.46-.22a.85.85,0,0,0-.93-.23,2.23,2.23,0,0,1-.79-.05s0,0,0,0c-.18.38-.26,1-.55,1.11a5.9,5.9,0,0,1-1.85.36c-.14,0-.31-.22-.48-.31a4.31,4.31,0,0,0-.76-.27,6.85,6.85,0,0,0-.88-.09.44.44,0,0,0-.11.2,1.2,1.2,0,0,1-1.44,1,2.53,2.53,0,0,0-.67.05.58.58,0,0,1-.72-.32.71.71,0,0,0-.77-.37,3.11,3.11,0,0,1-.86-.16,1.06,1.06,0,0,0-.2.33,1,1,0,0,1-1.2.71,2.76,2.76,0,0,0-.76,0,.87.87,0,0,1-1-.45c-.11-.18-.39-.25-.61-.33a6.87,6.87,0,0,0-.89-.24.39.39,0,1,1,0,0c-.38.93-1.1,1-2,.84-.51-.09-1-.1-1.2-.71,0-.14-.32-.21-.5-.28s-.53-.17-.91-.29a.79.79,0,0,0-.19.25,1,1,0,0,1-1.41.51,3,3,0,0,0-.6-.1c-.43,0-.77-.16-.91-.66,0-.17-.31-.31-.5-.42s-.53-.22-.9-.38c.11,0,.07,0,.05,0-.32.27-.64.77-1,.77a5.67,5.67,0,0,1-1.82-.46c-.14,0-.24-.3-.3-.49a.77.77,0,0,0-.59-.56,3.75,3.75,0,0,1-.77-.44c.05,0,0,0-.08,0a1.42,1.42,0,0,1-2,.34c-.51-.25-1.08-.36-1.09-1.1,0-.11-.26-.22-.4-.32l-.77-.54c.09,0,0,0,0,0-1,1.05-1.87.31-2.75-.15-.16-.08-.23-.39-.28-.6a.76.76,0,0,0-.46-.62,3.77,3.77,0,0,1-.69-.56c.08,0,0,0,0,0-1.09,1-1.91.1-2.77-.43-.13-.09-.1-.41-.19-.6a4.21,4.21,0,0,0-.39-.64,2.86,2.86,0,0,1-.49-.64.18.18,0,0,0-.1,0c-1.13.91-1.89,0-2.69-.59a.81.81,0,0,1-.17-.54,1,1,0,0,0-.43-.86,3.09,3.09,0,0,1-.51-.64c.09,0,.06,0,0,0-.4.12-.9.45-1.19.31a5.61,5.61,0,0,1-1.46-1.18c-.13-.13,0-.45-.1-.68a2.63,2.63,0,0,0-.27-.65,8.49,8.49,0,0,0-.53-.73,3.51,3.51,0,0,0-.53.13.9.9,0,0,1-1.15-.35,3.34,3.34,0,0,0-.45-.47,1.09,1.09,0,0,1-.41-1.25c0-.14-.14-.35-.23-.52s-.29-.45-.48-.76a.94.94,0,0,0-.36,0c-.64.26-1,0-1.4-.56a3.23,3.23,0,0,0-.46-.52.72.72,0,0,1-.19-.9.71.71,0,0,0-.18-.83,2.8,2.8,0,0,1-.3-.69,7.78,7.78,0,0,0-.84,0,.61.61,0,0,1-.68-.36,4.57,4.57,0,0,0-.47-.68,1.06,1.06,0,0,1-.24-1.35c.07-.13-.07-.37-.12-.56s-.18-.5-.3-.84a.73.73,0,0,0-.26,0,1.21,1.21,0,0,1-1.48-.9,1.8,1.8,0,0,0-.35-.58.62.62,0,0,1,0-.77.71.71,0,0,0,0-.92,2.34,2.34,0,0,1-.2-.81s0,0,0,0c-.42-.07-1,0-1.21-.23a5.53,5.53,0,0,1-.82-1.69c-.06-.16.16-.39.19-.6a3.16,3.16,0,0,0,0-.75,7.88,7.88,0,0,0-.16-.87l-.14,0c-.35-.09-.89-.07-1-.3a6.69,6.69,0,0,1-.68-1.81c0-.15.21-.37.28-.57a2.05,2.05,0,0,0,.1-.65c0-.28-.07-.57-.11-.93a2.36,2.36,0,0,0-.6-.19c-.52-.06-.67-.37-.72-.82a1.4,1.4,0,0,0-.11-.5,1.09,1.09,0,0,1,.19-1.46c.1-.1.09-.34.09-.52a2.7,2.7,0,0,1,.07-.89h0c-.38-.2-1-.27-1.18-.58a5.64,5.64,0,0,1-.37-1.85c0-.15.23-.31.31-.49a2.63,2.63,0,0,0,.28-.7c0-.28,0-.57.07-.94,0,0,0-.07-.14-.09a1.28,1.28,0,0,1-1-1.58,2.14,2.14,0,0,0-.05-.62.52.52,0,0,1,.28-.62.76.76,0,0,0,.41-.85,2.11,2.11,0,0,1,.18-.78.62.62,0,0,0-.22-.15,1.18,1.18,0,0,1-.82-1.55,1.69,1.69,0,0,0,0-.55.8.8,0,0,1,.43-.86,1.43,1.43,0,0,0,.36-.64,6.41,6.41,0,0,0,.23-.85,1.15,1.15,0,0,0-.18-.16c-.26-.21-.72-.41-.74-.64,0-.65-.15-1.52.2-1.94a3.53,3.53,0,0,0,1-1.54c0-.07.13-.11.22-.18a1.16,1.16,0,0,0-.28-.3c-.73-.37-.77-1-.54-1.65a2,2,0,0,0,.1-.6c0-.36.22-.53.54-.69a1.41,1.41,0,0,0,.5-.55,7.84,7.84,0,0,0,.38-.85.87.87,0,0,0-.24-.25,1.07,1.07,0,0,1-.37-1.5,3.55,3.55,0,0,0,.17-.64.89.89,0,0,1,.68-.74c.19-.06.35-.3.49-.49s.28-.48.46-.8a.74.74,0,0,0-.09-.14c-.2-.3-.62-.64-.58-.9.1-.63.24-1.48.68-1.77a3.72,3.72,0,0,0,1.36-1.25s.09,0,.13-.07L50,80s0-.06,0-.07c-1-1-.37-1.86.11-2.75a.9.9,0,0,1,.54-.3.82.82,0,0,0,.73-.53c.07-.21.31-.36.52-.59a1,1,0,0,0-.06-.19c-.15-.31-.52-.7-.44-.93a3.18,3.18,0,0,1,1-1.68c.54-.31,1.18-.42,1.56-1,0,0,.18,0,.28-.06s0-.1,0-.12c-.92-1.15,0-1.88.59-2.7,0,0,0-.08.07-.07.83.09,1.32-.56,2-1,0,.06,0,0,0,0-.12-.4-.45-.91-.31-1.19a3,3,0,0,1,1.27-1.42c.56-.24,1.22-.26,1.69-.74,0-.06.19,0,.31,0a2.47,2.47,0,0,0-.11-.53,1.07,1.07,0,0,1,.46-1.47,1.85,1.85,0,0,0,.39-.4,1,1,0,0,1,1-.34,1.25,1.25,0,0,0,.63-.17,8.39,8.39,0,0,0,.79-.53c0,.06,0,0,0-.1a1.32,1.32,0,0,1,.74-1.77A1.28,1.28,0,0,0,64.1,59a.74.74,0,0,1,.9-.23,1.43,1.43,0,0,0,.7-.11,4,4,0,0,1,.8-.29l0,0c-.47-1.42.7-1.8,1.52-2.38.11-.08.36,0,.52,0a.88.88,0,0,0,1-.09,2.41,2.41,0,0,1,.74-.22,1.1,1.1,0,0,0,0-.35,1.15,1.15,0,0,1,.87-1.4,3.08,3.08,0,0,0,.55-.33.67.67,0,0,1,.9,0,.62.62,0,0,0,.79,0,4,4,0,0,1,.9-.25c-.07.09,0,.07,0,0,.06-.42,0-1,.21-1.22a5.92,5.92,0,0,1,1.69-.83.77.77,0,0,1,.55.18.76.76,0,0,0,.85.07,3.3,3.3,0,0,1,.83-.16,7,7,0,0,1,.19-.83A.94.94,0,0,1,79,50.1c.28-.16.61-.2.9-.35a1,1,0,0,1,1.3.14c.11.1.37.06.56,0a2.73,2.73,0,0,1,.9,0c.17-.4.18-1.06.48-1.23a6,6,0,0,1,1.8-.53c.15,0,.37.14.51.27a.81.81,0,0,0,.84.19,2.65,2.65,0,0,1,.83,0s0,0,0,0c.17-.39.25-1,.54-1.12a5.9,5.9,0,0,1,1.85-.36c.14,0,.31.22.48.3a3.67,3.67,0,0,0,.76.28,6.83,6.83,0,0,0,.89.09.44.44,0,0,0,.11-.2c.16-.83.74-1,1.49-1a2.47,2.47,0,0,0,.61,0,.59.59,0,0,1,.73.31.7.7,0,0,0,.77.37,3,3,0,0,1,.85.16,1.17,1.17,0,0,0,.21-.33,1,1,0,0,1,1.27-.7,2.49,2.49,0,0,0,.61,0,.91.91,0,0,1,1,.51c.08.15.35.22.55.28s.55.13.91.22l.11-.12c.22-.28.42-.77.67-.79a9,9,0,0,1,2,.15c.11,0,.21.24.28.39a.81.81,0,0,0,.75.51,2.47,2.47,0,0,1,.66.23l.1.23c.08-.15.18-.3.25-.45a1,1,0,0,1,1.4-.51,3.11,3.11,0,0,0,.61.1.91.91,0,0,1,.9.67c0,.17.31.31.51.41a8.75,8.75,0,0,0,.87.37c-.07,0,0,0,0,0,.31-.26.62-.74.93-.73a6.2,6.2,0,0,1,1.81.47.6.6,0,0,1,.27.41.85.85,0,0,0,.64.65,4.8,4.8,0,0,1,.71.43l.12-.07c.32-.22.66-.66.94-.62a9,9,0,0,1,1.83.62c0,.88.91,1.09,1.4,1.64,0,0,0,0,0,0,1-1,1.86-.39,2.74.11a.88.88,0,0,1,.32.58.82.82,0,0,0,.52.69,2.86,2.86,0,0,1,.61.52,1,1,0,0,0,.33-.15,1.08,1.08,0,0,1,1.54,0,5.08,5.08,0,0,0,.76.42.63.63,0,0,1,.37.65c0,.25.2.51.37.73a2.44,2.44,0,0,1,.48.65s.08,0,.1,0c1.13-.91,1.89,0,2.69.58a.76.76,0,0,1,.17.55,1,1,0,0,0,.43.86,3.07,3.07,0,0,1,.53.66c-.11,0-.08,0-.06,0,.41-.12.9-.45,1.19-.32a5.3,5.3,0,0,1,1.46,1.18c.14.14.06.48.12.72a1.78,1.78,0,0,0,.22.58c.15.25.35.48.57.78,0,0,0,0,.08,0,.36-.07.84-.32,1.06-.17.55.36,1.24.84,1.37,1.39a4.7,4.7,0,0,0,.58,1.75c0,.06,0,.16,0,.28a1.4,1.4,0,0,0,.47,0c.67-.28,1.09,0,1.44.56a1.92,1.92,0,0,0,.36.44.88.88,0,0,1,.28,1,1.31,1.31,0,0,0,.13.68,6.48,6.48,0,0,0,.39.84c-.1,0,0,0,0,0,.41,0,1-.18,1.19,0a5.85,5.85,0,0,1,1.13,1.51c.08.13,0,.4-.07.58a.84.84,0,0,0,.09.86,3,3,0,0,1,.26.78.43.43,0,0,0,.19,0,1.35,1.35,0,0,1,1.63,1c.07.18.23.32.26.5a1.26,1.26,0,0,1,0,.74.85.85,0,0,0,0,.94,2.34,2.34,0,0,1,.2.83c1.15-.3,1.48.56,1.86,1.43a1,1,0,0,1,0,1.09,1.4,1.4,0,0,0,0,.74,6.49,6.49,0,0,0,.14.85.33.33,0,0,0,.21,0c.84,0,1.22.44,1.35,1.2a2,2,0,0,0,.19.53.63.63,0,0,1-.11.83.74.74,0,0,0-.14.88,2.71,2.71,0,0,1,.06.8l.21.08c.33.13.84.17.94.39a3,3,0,0,1,.43,1.85,5.05,5.05,0,0,0-.39,1.84c0,.06-.05.12-.09.2l.15.11c.37.18.93.26,1.05.54a6,6,0,0,1,.35,1.85c0,.13-.17.32-.3.43a.81.81,0,0,0-.29.81,3.87,3.87,0,0,1-.09.86s0,0,.1.06c1,.18,1.13.86,1.14,1.72,0,.55.07,1-.51,1.36-.11.06-.1.35-.14.54l-.17.89a1.58,1.58,0,0,0,.39.24.86.86,0,0,1,.64,1,2.84,2.84,0,0,0,0,.77,1,1,0,0,1-.54,1.09c-.13.06-.2.32-.25.5s-.14.58-.23,1c0-.06,0,0,0,0,.31.26.84.48.89.78a6.67,6.67,0,0,1-.14,1.93c0,.13-.25.25-.41.33a.77.77,0,0,0-.49.71,3.67,3.67,0,0,1-.28.77.59.59,0,0,0,.2.2c.72.37.75,1,.54,1.63a2.13,2.13,0,0,0-.1.56.67.67,0,0,1-.56.73c-.32.08-.44.31-.52.62a4.46,4.46,0,0,1-.34.79.29.29,0,0,0,.1.13c.73.48.72,1.1.46,1.85-.19.56-.28,1.13-1,1.24-.1,0-.18.21-.25.33s-.31.54-.5.89c0-.06,0,0,0,.06.23.31.68.65.64.93a7.72,7.72,0,0,1-.61,1.83c0,.09-.19.16-.29.17a1,1,0,0,0-.91.75c0,.18-.26.32-.44.52,0-.06,0,0,0,0,1.05,1,.35,1.87-.13,2.75-.09.17-.38.26-.6.3a.78.78,0,0,0-.64.49,3.27,3.27,0,0,1-.55.65l.57,1.07-.6,1.08c-.25.48-.51.92-1.19.84-.14,0-.31.25-.47.39l-.6.59c0-.06,0,0,0,.09.14.37.48.81.37,1.07-.29.74-.8,1.77-1.54,1.51a.85.85,0,0,0-1.25.72c0,.28-.06.21-.35.28.84,1,.22,1.67-.42,2.38a1.2,1.2,0,0,1-1,.45,1.2,1.2,0,0,0-.62.24,8,8,0,0,0-.75.56,1.44,1.44,0,0,0,.08.39,1,1,0,0,1-.41,1.4,2.55,2.55,0,0,0-.44.43,1,1,0,0,1-1,.35,1.33,1.33,0,0,0-.67.2A8,8,0,0,0,134.05,138.73ZM48.51,100a50,50,0,1,0,50.57-50A50,50,0,0,0,48.51,100Z"/></svg>