<svg id="Capa_1" data-name="Capa 1" xmlns="http://www.w3.org/2000/svg" xmlns:xlink="http://www.w3.org/1999/xlink" viewBox="0 0 200 200"><defs><style>



.project4-1,.project4-5{
fill:none;

}

.project4-2{
fill:#fff;
opacity:0.5;

animation: heartbeat 1s alternate infinite;
transform-origin: 50% 50%;
}

@keyframes heartbeat {
  to {

    transform:  scaleX(1.2) scaleY(1.2) rotate(-45deg);
  }
}

.project4-3{
clip-path:url(#clip-path);
}

.project4-4{
clip-path:url(#clip-path-2);
}

.project4-5{
stroke:#c6c6c5;
stroke-linecap:round;
stroke-miterlimit:10;
stroke-width:0.75px;
stroke-dasharray:1 6;
}




</style><clipPath id="clip-path"><polygon class="project4-1" points="-184.19 250.82 -109.63 242.05 -27.76 231.82 -76.01 281.52 -27.76 408.71 -57 398.48 -68.7 384.19 -86.24 359.01 -211.97 313.69 -184.19 250.82"/></clipPath><clipPath id="clip-path-2"><path class="project4-1" d="M53.18,326.49c-19.48,9.49-30.37,6.37-38.5,13-10.41,8.51-1.43,20.85,7.09,32.56,9.53,13.1,18,24.71,34.7,27.58,30.9,5.31,67.35-23.08,73.19-27.63,21.27-16.57,25.89-32.42,35.14-64.11,10.1-34.61,4-45.41-3.23-53.09-2.93-3.09-21.38-22.53-48-23-20.78-.4-38.5,10.91-42.91,21.46C65.75,265,80.07,269.62,80,292c0,9.35-2.56,14.33-5,17.76C73.62,311.71,67.89,319.31,53.18,326.49Z"/></clipPath></defs><title>pantallas</title><circle class="project4-2" cx="100.34" cy="100.04" r="47.43"/><g class="project4-4"><line class="project4-5" x1="-13.31" y1="406.26" x2="136.57" y2="199.27"/><line class="project4-5" x1="-26.33" y1="403.96" x2="123.56" y2="196.97"/><line class="project4-5" x1="-39.34" y1="401.66" x2="110.54" y2="194.67"/><line class="project4-5" x1="-52.36" y1="399.36" x2="97.53" y2="192.37"/><line class="project4-5" x1="-65.37" y1="397.06" x2="84.51" y2="190.07"/><line class="project4-5" x1="-78.39" y1="394.76" x2="71.5" y2="187.77"/><line class="project4-5" x1="-5.46" y1="406.23" x2="144.43" y2="199.24"/><line class="project4-5" x1="-18.47" y1="403.93" x2="131.41" y2="196.94"/><line class="project4-5" x1="-31.48" y1="401.63" x2="118.4" y2="194.64"/><line class="project4-5" x1="-44.5" y1="399.33" x2="105.39" y2="192.34"/><line class="project4-5" x1="-57.51" y1="397.03" x2="92.37" y2="190.04"/><line class="project4-5" x1="-70.53" y1="394.73" x2="79.36" y2="187.74"/><line class="project4-5" x1="-83.54" y1="392.43" x2="66.34" y2="185.44"/></g></svg>