<svg id="Capa_1" data-name="Capa 1" xmlns="http://www.w3.org/2000/svg" xmlns:xlink="http://www.w3.org/1999/xlink" viewBox="0 0 200 200"><defs><style>


.project13-1,.project13-5{
fill:none;
}

.project13-2{
clip-path:url(#clip-path);
}

.project13-3{
fill:#c6c6c5;
}
.project13-5:nth-child(2n){
animation: shiny 1s ease-in infinite alternate
}

        
@keyframes shiny {
        
            from {opacity: 0}
            to {opacity:1}
}

.project13-4{
clip-path:url(#clip-path-2);
}

.project13-5{
stroke:#c6c6c5;
stroke-linecap:round;
stroke-miterlimit:10;
stroke-width:0.75px;
stroke-dasharray:1 6;

}




</style><clipPath id="clip-path"><path class="project13-1" d="M279.18,109.49c-19.48,9.49-30.37,6.37-38.5,13-10.41,8.51-1.43,20.85,7.09,32.56,9.53,13.1,18,24.71,34.7,27.58,30.9,5.31,67.35-23.08,73.19-27.63,21.27-16.57,25.89-32.42,35.14-64.11,10.1-34.61,4.05-45.41-3.23-53.09-2.93-3.09-21.38-22.53-48-23-20.78-.4-38.5,10.91-42.91,21.46C291.75,48,306.07,52.62,306,75c0,9.35-2.56,14.33-5,17.76C299.62,94.71,293.89,102.31,279.18,109.49Z"/></clipPath><clipPath id="clip-path-2"><polygon class="project13-1" points="32.67 32.56 107.23 23.79 189.1 13.55 140.86 63.26 189.1 190.45 159.87 180.22 148.17 165.92 130.63 140.74 4.9 95.42 32.67 32.56"/></clipPath></defs><title>formas-cuadrado</title><rect x="0.5" y="0.5" width="199" height="199"/><path d="M199,1V199H1V1H199m1-1H0V200H200V0Z"/><g class="project13-2"><path class="project13-3" d="M185.67,37.31a1.25,1.25,0,0,0,0-2.5,1.25,1.25,0,0,0,0,2.5Z"/><path class="project13-3" d="M190.55,102.47a1.25,1.25,0,0,0,0-2.5,1.25,1.25,0,0,0,0,2.5Z"/><path class="project13-3" d="M192.18,66.63a1.25,1.25,0,0,0,0-2.5,1.25,1.25,0,0,0,0,2.5Z"/><path class="project13-3" d="M197.07,53.6a1.25,1.25,0,0,0,0-2.5,1.25,1.25,0,0,0,0,2.5Z"/><path class="project13-3" d="M195.44,115.51a1.25,1.25,0,0,0,0-2.5,1.25,1.25,0,0,0,0,2.5Z"/><path class="project13-3" d="M195.29,77.93a.63.63,0,0,0,0-1.25.63.63,0,0,0,0,1.25Z"/></g><g class="project13-4"><line class="project13-5" x1="139.8" y1="245.21" x2="301.81" y2="21.49"/><line class="project13-5" x1="125.73" y1="242.73" x2="287.74" y2="19"/><line class="project13-5" x1="111.67" y1="240.24" x2="273.67" y2="16.52"/><line class="project13-5" x1="97.6" y1="237.76" x2="259.61" y2="14.03"/><line class="project13-5" x1="83.53" y1="235.27" x2="245.54" y2="11.54"/><line class="project13-5" x1="69.47" y1="232.78" x2="231.47" y2="9.06"/><line class="project13-5" x1="55.4" y1="230.3" x2="217.41" y2="6.57"/><line class="project13-5" x1="41.33" y1="227.81" x2="203.34" y2="4.09"/><line class="project13-5" x1="27.27" y1="225.33" x2="189.27" y2="1.6"/><line class="project13-5" x1="13.2" y1="222.84" x2="175.21" y2="-0.89"/><line class="project13-5" x1="-0.87" y1="220.35" x2="161.14" y2="-3.37"/><line class="project13-5" x1="-14.93" y1="217.87" x2="147.07" y2="-5.86"/><line class="project13-5" x1="-29" y1="215.38" x2="133.01" y2="-8.34"/><line class="project13-5" x1="-43.07" y1="212.9" x2="118.94" y2="-10.83"/><line class="project13-5" x1="-57.13" y1="210.41" x2="104.87" y2="-13.32"/><line class="project13-5" x1="-71.2" y1="207.92" x2="90.81" y2="-15.8"/><line class="project13-5" x1="-85.27" y1="205.44" x2="76.74" y2="-18.29"/></g></svg>