<svg id="Capa_1" data-name="Capa 1" xmlns="http://www.w3.org/2000/svg" viewBox="0 0 510.24 289.13"><defs><style>


.form17-1{
fill:#fff;


animation: form17 10s infinite linear;
transform-origin: 50% 50%;
}

    @keyframes form17 {
        from {transform: rotate(0deg)}
        to {transform: rotate(360deg)}  

}



</style>



</defs><title>form</title><path class="form17-1" d="M283,175.48a.6.6,0,0,0,0,.24c.22.55-.05.89-.49,1.18a1.79,1.79,0,0,0-.36.31.51.51,0,0,1-.64.16.6.6,0,0,0-.72.14,2,2,0,0,1-.55.21s0,0,0,.05c0,.31.13.74,0,.92a4.46,4.46,0,0,1-1.18.87c-.11.07-.32-.05-.49-.05a1.71,1.71,0,0,0-.55.05,5.66,5.66,0,0,0-.68.24s0,0,0,.1c.15.71-.25,1-.83,1.33-.39.19-.72.44-1.15.1-.06-.05-.22,0-.33,0s-.49.17-.8.29c.19.78-.37,1.09-1.07,1.36-.35.13-.61.24-1,0-.11-.08-.33,0-.5,0a5.58,5.58,0,0,0-.7.13s0,0,0,.12c0,.7-.38.94-1,1.11s-.84.32-1.24-.09c-.06-.06-.24,0-.36,0a2.21,2.21,0,0,1-.68,0s-.05,0-.05.05c-.05,1.15-1,1.11-1.75,1.31-.11,0-.27-.09-.37-.17a.67.67,0,0,0-.72-.18,1.86,1.86,0,0,1-.61,0s0,0,0,0c-.14.3-.2.76-.43.87a4.23,4.23,0,0,1-1.43.28c-.12,0-.25-.17-.38-.23a3.07,3.07,0,0,0-.6-.22c-.2,0-.41,0-.68-.07a.37.37,0,0,0-.09.16c-.12.62-.54.81-1.12.78a1.82,1.82,0,0,0-.52,0,.46.46,0,0,1-.57-.24.54.54,0,0,0-.59-.29,2.31,2.31,0,0,1-.67-.13,1.21,1.21,0,0,0-.16.26.75.75,0,0,1-.93.55,2,2,0,0,0-.6,0,.68.68,0,0,1-.74-.36c-.08-.13-.3-.19-.47-.26s-.41-.11-.69-.18c0-.05,0,0,0,0-.3.72-.86.77-1.53.65-.4-.06-.78-.07-.94-.55,0-.11-.24-.16-.38-.22s-.41-.13-.71-.23a.68.68,0,0,0-.15.2.81.81,0,0,1-1.1.4,2.43,2.43,0,0,0-.47-.08c-.33,0-.6-.12-.71-.51,0-.14-.24-.24-.39-.33s-.41-.17-.7-.3h0c-.25.21-.5.6-.75.61a4.64,4.64,0,0,1-1.42-.36c-.11,0-.19-.24-.23-.38a.59.59,0,0,0-.46-.44,2.94,2.94,0,0,1-.6-.34s0,0-.06,0a1.1,1.1,0,0,1-1.54.27c-.4-.19-.84-.28-.85-.85,0-.09-.2-.18-.31-.26l-.6-.41h0c-.76.82-1.46.24-2.15-.11-.12-.07-.17-.31-.22-.47a.57.57,0,0,0-.35-.48,2.75,2.75,0,0,1-.54-.44h0c-.85.76-1.5.07-2.16-.34-.11-.06-.08-.31-.15-.46a2.8,2.8,0,0,0-.31-.5,2.19,2.19,0,0,1-.38-.51h-.07c-.89.71-1.48,0-2.1-.46-.1-.07-.13-.28-.13-.42a.75.75,0,0,0-.34-.67,3.46,3.46,0,0,1-.4-.5c.08,0,0,0,0,0-.31.09-.7.34-.93.24a4.52,4.52,0,0,1-1.14-.92c-.1-.1,0-.35-.08-.53A2,2,0,0,0,228,176c-.1-.17-.24-.33-.41-.57a2.34,2.34,0,0,0-.41.11.71.71,0,0,1-.9-.27,3.15,3.15,0,0,0-.35-.38.83.83,0,0,1-.32-1c0-.11-.11-.27-.18-.4s-.22-.35-.38-.6a.69.69,0,0,0-.27,0c-.5.2-.82,0-1.1-.44a2.23,2.23,0,0,0-.35-.4.56.56,0,0,1-.15-.7.55.55,0,0,0-.14-.65,2.29,2.29,0,0,1-.24-.54c-.16,0-.41,0-.65,0a.48.48,0,0,1-.53-.28,3.16,3.16,0,0,0-.37-.53.81.81,0,0,1-.18-1.05c.05-.1,0-.29-.1-.43s-.14-.4-.23-.66a.48.48,0,0,0-.21,0,.94.94,0,0,1-1.15-.7,1.46,1.46,0,0,0-.27-.45.48.48,0,0,1,0-.6.55.55,0,0,0,0-.72,1.94,1.94,0,0,1-.15-.63s0,0,0,0c-.33-.06-.79,0-.95-.18a4.26,4.26,0,0,1-.64-1.32c0-.12.13-.3.16-.46a2.92,2.92,0,0,0,0-.59c0-.2-.07-.4-.12-.67l-.11,0c-.28-.07-.7,0-.81-.23a5.69,5.69,0,0,1-.53-1.41c0-.12.17-.29.22-.45a1.42,1.42,0,0,0,.08-.5c0-.22-.05-.45-.08-.73a2.17,2.17,0,0,0-.47-.15c-.4,0-.53-.29-.56-.64a1,1,0,0,0-.09-.38.87.87,0,0,1,.15-1.15c.08-.07.07-.26.07-.4a2,2,0,0,1,.06-.69h0c-.29-.16-.8-.21-.92-.46a4.49,4.49,0,0,1-.28-1.43c0-.12.17-.25.24-.38a2.31,2.31,0,0,0,.21-.55,5.15,5.15,0,0,0,.06-.74s0-.05-.11-.06a1,1,0,0,1-.82-1.24,1.56,1.56,0,0,0,0-.48.41.41,0,0,1,.22-.48.59.59,0,0,0,.32-.66,1.71,1.71,0,0,1,.14-.61.41.41,0,0,0-.17-.12.92.92,0,0,1-.64-1.21,1.24,1.24,0,0,0,0-.43.62.62,0,0,1,.33-.66,1.07,1.07,0,0,0,.29-.51c.07-.19.11-.4.18-.66a1.31,1.31,0,0,0-.14-.12c-.2-.17-.57-.32-.58-.5,0-.51-.12-1.18.15-1.51a2.84,2.84,0,0,0,.78-1.21c0-.05.1-.08.17-.13a.7.7,0,0,0-.22-.23.93.93,0,0,1-.42-1.29,1.85,1.85,0,0,0,.08-.47c0-.29.17-.42.42-.54a1.09,1.09,0,0,0,.39-.43,6.13,6.13,0,0,0,.29-.66.59.59,0,0,0-.18-.2.83.83,0,0,1-.29-1.16,2.25,2.25,0,0,0,.13-.51.69.69,0,0,1,.53-.57.93.93,0,0,0,.38-.38c.13-.18.22-.38.37-.63,0,0,0,0-.08-.1-.16-.24-.48-.5-.45-.71.08-.49.19-1.15.53-1.37a3,3,0,0,0,1.06-1s.07,0,.1,0l.09-.05a.18.18,0,0,1,0-.05c-.82-.75-.3-1.46.08-2.15a.67.67,0,0,1,.42-.23.66.66,0,0,0,.57-.42c.06-.16.24-.27.41-.46a1.34,1.34,0,0,0-.05-.14c-.12-.25-.41-.55-.34-.73a2.46,2.46,0,0,1,.78-1.31c.41-.24.91-.33,1.21-.77,0-.05.14,0,.21-.05s0-.08,0-.1c-.72-.89,0-1.46.46-2.1,0,0,0-.06.05-.06.65.08,1-.44,1.53-.77,0,0,0,0,0,0-.09-.32-.35-.72-.24-.93a2.3,2.3,0,0,1,1-1.11c.44-.19.95-.2,1.32-.58,0,0,.15,0,.24,0a1.47,1.47,0,0,0-.09-.41.85.85,0,0,1,.36-1.15,1.82,1.82,0,0,0,.31-.31.76.76,0,0,1,.8-.26,1,1,0,0,0,.49-.14,5.94,5.94,0,0,0,.62-.41s0,0,0-.08a1,1,0,0,1,.57-1.38.89.89,0,0,0,.28-.23c.19-.25.42-.24.71-.18a1.05,1.05,0,0,0,.54-.08,3.79,3.79,0,0,1,.62-.23s0,0,0,0c-.37-1.1.54-1.4,1.18-1.85.09-.07.28,0,.41,0a.69.69,0,0,0,.74-.07,1.91,1.91,0,0,1,.58-.17.72.72,0,0,0,0-.27.91.91,0,0,1,.68-1.1,2.3,2.3,0,0,0,.43-.25.52.52,0,0,1,.7,0,.5.5,0,0,0,.62,0,2.71,2.71,0,0,1,.7-.2c-.06.07,0,0,0,0,0-.33,0-.79.17-1a4.52,4.52,0,0,1,1.32-.65c.11,0,.31.06.43.14a.56.56,0,0,0,.66.05,3,3,0,0,1,.65-.12,3.84,3.84,0,0,1,.15-.65.72.72,0,0,1,.32-.37c.22-.12.48-.16.7-.27a.83.83,0,0,1,1,.1c.09.08.28,0,.43,0a2.36,2.36,0,0,1,.7,0c.14-.31.14-.82.38-1a4.55,4.55,0,0,1,1.4-.41c.12,0,.29.11.4.21a.6.6,0,0,0,.65.15,2.43,2.43,0,0,1,.65,0s0,0,0,0c.14-.3.19-.76.42-.87a4.55,4.55,0,0,1,1.44-.28c.12,0,.24.17.38.24a2.6,2.6,0,0,0,.59.21,6.11,6.11,0,0,0,.7.07.74.74,0,0,0,.08-.15c.12-.65.58-.81,1.16-.79a1.55,1.55,0,0,0,.48,0,.47.47,0,0,1,.57.25.52.52,0,0,0,.59.28,2.7,2.7,0,0,1,.67.13,1.21,1.21,0,0,0,.16-.26.77.77,0,0,1,1-.54,1.93,1.93,0,0,0,.48,0,.7.7,0,0,1,.82.4c.06.11.27.16.42.21a6.8,6.8,0,0,0,.71.17l.09-.09c.17-.22.33-.6.52-.61a6.79,6.79,0,0,1,1.55.11c.09,0,.17.19.22.31a.62.62,0,0,0,.58.39,1.72,1.72,0,0,1,.52.19l.07.17c.07-.12.14-.23.2-.35a.8.8,0,0,1,1.09-.4,2,2,0,0,0,.48.08.71.71,0,0,1,.7.52c0,.14.24.24.39.32a6,6,0,0,0,.69.29c-.06,0,0,0,0,0,.24-.2.48-.58.71-.58a5.51,5.51,0,0,1,1.42.37.49.49,0,0,1,.21.32.67.67,0,0,0,.49.51,2.47,2.47,0,0,1,.56.34l.09-.06c.25-.17.52-.52.74-.49a7.46,7.46,0,0,1,1.42.49c0,.69.71.85,1.09,1.28,0,0,0,0,0,0,.75-.81,1.45-.3,2.14.08a.74.74,0,0,1,.25.46.63.63,0,0,0,.4.53,2.28,2.28,0,0,1,.48.41.63.63,0,0,0,.26-.12.84.84,0,0,1,1.2,0,3.42,3.42,0,0,0,.59.33.5.5,0,0,1,.29.51c0,.19.15.39.29.57a2.09,2.09,0,0,1,.37.5s.06,0,.08,0c.88-.72,1.47,0,2.1.45.1.07.13.28.13.43a.74.74,0,0,0,.34.67,2.79,2.79,0,0,1,.41.51l-.05,0c.32-.1.7-.36.93-.25a4.12,4.12,0,0,1,1.14.92c.11.11,0,.37.09.56a1.54,1.54,0,0,0,.17.45c.12.19.27.37.44.6H283c.29-.06.66-.26.84-.14.42.28,1,.65,1.06,1.08a3.53,3.53,0,0,0,.46,1.37s0,.12,0,.21a1.07,1.07,0,0,0,.37,0,.86.86,0,0,1,1.13.44,1.34,1.34,0,0,0,.28.34.7.7,0,0,1,.22.81,1,1,0,0,0,.09.54c.07.19.18.37.31.65-.08,0,0,0,0,0,.32,0,.75-.14.93,0a4.67,4.67,0,0,1,.88,1.17c.07.1,0,.31-.05.45a.63.63,0,0,0,.07.67,2.42,2.42,0,0,1,.2.61.28.28,0,0,0,.15,0,1,1,0,0,1,1.27.78c.05.14.17.25.2.39a1,1,0,0,1,0,.57.66.66,0,0,0,0,.74,1.92,1.92,0,0,1,.16.64c.89-.23,1.15.44,1.44,1.12a.81.81,0,0,1,0,.85c-.1.14,0,.38,0,.58a5,5,0,0,0,.11.66.27.27,0,0,0,.17,0c.65,0,.94.34,1.05.93a1.23,1.23,0,0,0,.14.42.48.48,0,0,1-.08.64.57.57,0,0,0-.11.69,2.29,2.29,0,0,1,.05.63l.16.06c.25.09.65.12.73.3a2.32,2.32,0,0,1,.34,1.44,4,4,0,0,0-.31,1.43c0,.05,0,.1-.07.16l.12.09c.28.14.72.2.82.42a4.9,4.9,0,0,1,.27,1.44c0,.1-.13.25-.23.34a.63.63,0,0,0-.23.63,2.78,2.78,0,0,1-.07.67s0,0,.07,0c.76.15.89.68.9,1.35,0,.42.05.8-.4,1-.09.05-.08.28-.11.43s-.08.4-.13.69a1.43,1.43,0,0,0,.3.19.65.65,0,0,1,.5.81,2.41,2.41,0,0,0,0,.6.74.74,0,0,1-.42.85c-.11.05-.15.25-.2.39s-.11.46-.17.74c-.05,0,0,0,0,0,.24.2.66.37.69.6a5.11,5.11,0,0,1-.1,1.5c0,.1-.2.2-.33.26a.63.63,0,0,0-.38.55,2.22,2.22,0,0,1-.22.6.47.47,0,0,0,.16.16c.57.29.59.75.42,1.27a1.62,1.62,0,0,0-.07.44.53.53,0,0,1-.44.57.53.53,0,0,0-.4.48,4.26,4.26,0,0,1-.27.61s0,.07.08.1a1.08,1.08,0,0,1,.35,1.45c-.15.44-.22.88-.79,1-.07,0-.14.17-.19.26s-.24.43-.39.7c0-.05,0,0,0,0,.18.24.53.51.51.73a6.34,6.34,0,0,1-.48,1.43.35.35,0,0,1-.23.13.75.75,0,0,0-.7.58c-.05.14-.21.25-.35.4,0,0,0,0,0,0,.82.75.27,1.45-.1,2.14-.07.13-.3.2-.47.23a.63.63,0,0,0-.5.39,2.56,2.56,0,0,1-.43.5l.45.84-.47.84c-.2.37-.4.72-.92.65-.11,0-.25.2-.37.31l-.47.46s0,0,0,.07c.1.28.37.63.28.83-.23.58-.62,1.38-1.19,1.18a.66.66,0,0,0-1,.56c0,.22-.05.16-.27.22.65.77.17,1.3-.33,1.85a1,1,0,0,1-.81.36.87.87,0,0,0-.48.18,7.1,7.1,0,0,0-.58.43.73.73,0,0,0,.06.31.8.8,0,0,1-.32,1.09,2.19,2.19,0,0,0-.34.34.77.77,0,0,1-.81.27,1.18,1.18,0,0,0-.52.15C283.37,175.19,283.2,175.32,283,175.48Zm-66.67-30.22a39,39,0,1,0,39.41-39A39,39,0,0,0,216.28,145.26Z"/></svg>