<svg id="Capa_1" data-name="Capa 1" xmlns="http://www.w3.org/2000/svg" xmlns:xlink="http://www.w3.org/1999/xlink" viewBox="0 0 510.24 289.13"><defs><style>

// pensar qué animación le puede ir bien


.form6-1,.form6-3 { 
  fill:none; 
}
.form6-2 {
  clip-path:url(#clip-path);
}
.form6-3 {
  stroke:#c6c6c5;
  stroke-linecap:round;
  stroke-miterlimit:10;
  stroke-width:0.75px;
  stroke-dasharray:1 6;

}

.form6-3:nth-child(2n){animation: shiny 1s ease-in infinite alternate}
        
@keyframes shiny {
        
            from {opacity: 0}
            to {opacity:1}
}

</style>


<clipPath id="clip-path"><path class="form6-1" d="M253.16,190.07c-12.14,5.92-18.93,4-24,8.13-6.49,5.31-.89,13,4.43,20.31,5.94,8.17,11.21,15.41,21.64,17.2,19.27,3.31,42-14.4,45.65-17.23,13.27-10.34,16.15-20.22,21.92-40,6.3-21.59,2.53-28.33-2-33.12-1.83-1.92-13.34-14.05-29.93-14.36-13-.25-24,6.81-26.77,13.38-3.07,7.35,5.86,10.21,5.81,24.16,0,5.84-1.59,8.94-3.11,11.08C265.91,180.85,262.34,185.59,253.16,190.07Z"/></clipPath></defs><title>form</title><g class="form6-2"><line class="form6-3" x1="300.98" y1="255.61" x2="394.47" y2="126.5"/><line class="form6-3" x1="292.87" y1="254.17" x2="386.36" y2="125.07"/><line class="form6-3" x1="284.75" y1="252.74" x2="378.24" y2="123.63"/><line class="form6-3" x1="276.63" y1="251.3" x2="370.12" y2="122.2"/><line class="form6-3" x1="268.51" y1="249.87" x2="362" y2="120.76"/><line class="form6-3" x1="260.4" y1="248.43" x2="353.89" y2="119.33"/><line class="form6-3" x1="252.28" y1="247" x2="345.77" y2="117.89"/><line class="form6-3" x1="244.16" y1="245.56" x2="337.65" y2="116.46"/><line class="form6-3" x1="236.04" y1="244.13" x2="329.53" y2="115.02"/><line class="form6-3" x1="227.93" y1="242.7" x2="321.42" y2="113.59"/><line class="form6-3" x1="219.81" y1="241.26" x2="313.3" y2="112.15"/><line class="form6-3" x1="211.69" y1="239.83" x2="305.18" y2="110.72"/><line class="form6-3" x1="203.57" y1="238.39" x2="297.06" y2="109.28"/><line class="form6-3" x1="195.46" y1="236.96" x2="288.95" y2="107.85"/><line class="form6-3" x1="187.34" y1="235.52" x2="280.83" y2="106.41"/><line class="form6-3" x1="179.22" y1="234.09" x2="272.71" y2="104.98"/><line class="form6-3" x1="171.1" y1="232.65" x2="264.59" y2="103.55"/><line class="form6-3" x1="297.77" y1="254.15" x2="391.26" y2="125.05"/><line class="form6-3" x1="289.65" y1="252.72" x2="383.14" y2="123.61"/><line class="form6-3" x1="281.53" y1="251.29" x2="375.02" y2="122.18"/><line class="form6-3" x1="273.42" y1="249.85" x2="366.91" y2="120.74"/><line class="form6-3" x1="265.3" y1="248.42" x2="358.79" y2="119.31"/><line class="form6-3" x1="257.18" y1="246.98" x2="350.67" y2="117.87"/><line class="form6-3" x1="249.06" y1="245.55" x2="342.55" y2="116.44"/><line class="form6-3" x1="240.95" y1="244.11" x2="334.44" y2="115.01"/><line class="form6-3" x1="232.83" y1="242.68" x2="326.32" y2="113.57"/><line class="form6-3" x1="224.71" y1="241.24" x2="318.2" y2="112.14"/><line class="form6-3" x1="216.59" y1="239.81" x2="310.08" y2="110.7"/><line class="form6-3" x1="208.48" y1="238.37" x2="301.97" y2="109.27"/><line class="form6-3" x1="200.36" y1="236.94" x2="293.85" y2="107.83"/><line class="form6-3" x1="192.24" y1="235.5" x2="285.73" y2="106.4"/><line class="form6-3" x1="184.12" y1="234.07" x2="277.61" y2="104.96"/><line class="form6-3" x1="176.01" y1="232.64" x2="269.49" y2="103.53"/><line class="form6-3" x1="167.89" y1="231.2" x2="261.38" y2="102.09"/></g></svg>