<svg id="Capa_1" data-name="Capa 1" xmlns="http://www.w3.org/2000/svg" xmlns:xlink="http://www.w3.org/1999/xlink" viewBox="0 0 510.24 289.13"><defs><style>


.form16-1,.form16-3{
fill:none;

animation: form16 10s infinite linear;
transform-origin: 50% 50%;
}

    @keyframes form16 {
        from {transform: rotate(0deg)}
        to {transform: rotate(360deg)}  

}

.form16-2{
clip-path:url(#clip-path);
}

.form16-3{
stroke:#fff;
stroke-width:1.12px;
}




</style><clipPath id="clip-path"><rect class="form16-1" x="217.31" y="106.58" width="76.69" height="76.69"/></clipPath></defs><title>pantallas</title><g class="form16-2"><path class="form16-3" d="M253.92,174.57l-.39,8.68m-2.88-9-1.53,8.56m-1.8-9.42L245,181.75m-1.17-9.65L240.2,180m0-9.76-4.33,7.54m1.24-9.72-5.37,6.83m2.56-9.38-6.29,6m3.83-8.87-7.08,5m4.92-8.39-7.54,4.33m5.92-7.75L220,159.06m6.91-6.77-8.47,2m7.75-5.86-8.62,1.09m8.42-4.84-8.68-.22m9-3.75-8.62-1.09m9.39-2.59-8.36-2.37m9.59-1.19-7.92-3.58m9.72,0-7.53-4.33m9.66,1.2-6.83-5.37m9.35,2.53-6-6.29m9,3.66-5.37-6.83m8.53,4.75-4.33-7.53m7.72,5.86-3.19-8.08m7,6.81-2.37-8.36m6.07,7.65-1.1-8.62m4.84,8.35.22-8.68m3.75,9,1.1-8.62m2.59,9.33,2.38-8.36m1.4,9.63,3.19-8.08m.2,9.75,4.33-7.53m-1.17,9.61,5.37-6.83m-2.35,9.46,6-6.29m-3.49,9.13,6.83-5.37m-4.7,8.5,7.54-4.33M283,133.42l7.91-3.58M284.23,137l8.36-2.37m-7.59,6,8.62-1.09m-8.32,5.06,8.69-.22m-8.89,4,8.62,1.09m-9.33,2.82,8.46,2m-9.64,1.63,8.09,3.19m-9.7.23,7.53,4.33m-9.7-1,7.09,5M277,165.53l6.29,6m-9.09-3.44,5.37,6.83m-8.47-4.65,4.33,7.54m-7.87-5.7,3.58,7.92M264,173.39l2.38,8.36m-6.26-7.5,1.53,8.56m-4.31-8.24.52,8.67"/></g></svg>