<svg id="Capa_1" data-name="Capa 1" xmlns="http://www.w3.org/2000/svg" viewBox="0 0 510.24 289.13"><defs><style>



.cls-1{
opacity:0.74;

animation: heartbeat 2s alternate infinite;
transform-origin: 50% 50%;
}

@keyframes heartbeat {
  to {

    transform:  scaleX(1.2) scaleY(1.2);
  }
}


.cls-2{
fill:#fff;
}



</style>



</defs><title>form</title><g class="cls-1"><path class="cls-2" d="M214.54,203c-2.49-9.64,8.88-7.7,13.08-13.1a16.11,16.11,0,0,0,2.73-7.3c.48-2.77,0-6.75,1.13-9.32,2.27-5.09,9.56-1.27,11.93-6.33,2-4.23-1-9.63-3.21-13.07-.43-.67-1.51,0-1.08.64,2.65,4.1,5.93,10.44.55,14.06-1.78,1.2-5,.27-7,1.37-3.3,1.81-2.83,6.21-3.16,9.42-.44,4.26-1.12,8.76-4.81,11.45-2.58,1.88-6,2-8.63,3.72-3.24,2.11-3.67,5.23-2.74,8.79a.62.62,0,0,0,1.2-.33Z"/></g><g class="cls-1"><path class="cls-2" d="M223.7,210.37c-2.5-9.63,8.87-7.7,13.08-13.1a16.26,16.26,0,0,0,2.73-7.29c.48-2.78,0-6.76,1.13-9.32,2.26-5.1,9.56-1.27,11.92-6.33,2-4.23-1-9.63-3.2-13.07-.44-.67-1.52,0-1.08.63,2.64,4.11,5.93,10.44.54,14.06-1.78,1.2-5,.28-7,1.38-3.3,1.81-2.83,6.21-3.16,9.41-.45,4.26-1.13,8.77-4.82,11.46-2.58,1.88-6,2-8.63,3.72-3.24,2.11-3.66,5.23-2.74,8.79a.63.63,0,0,0,1.21-.34Z"/></g><g class="cls-1"><path class="cls-2" d="M231.79,218.47c-2.49-9.64,8.88-7.7,13.08-13.1a16.11,16.11,0,0,0,2.73-7.3c.48-2.77,0-6.76,1.13-9.32,2.27-5.09,9.56-1.27,11.93-6.33,2-4.23-1-9.63-3.21-13.07-.43-.67-1.52,0-1.08.64,2.65,4.1,5.93,10.44.55,14.06-1.79,1.2-5,.27-7,1.37-3.3,1.81-2.83,6.21-3.16,9.42-.44,4.26-1.12,8.76-4.81,11.45-2.58,1.88-6,2-8.63,3.72-3.24,2.11-3.67,5.23-2.75,8.79a.63.63,0,0,0,1.21-.33Z"/></g></svg>