<svg id="Capa_1" data-name="Capa 1" xmlns="http://www.w3.org/2000/svg" xmlns:xlink="http://www.w3.org/1999/xlink" viewBox="0 0 510.24 289.13"><defs><style>


.form16-1,.form16-3{
fill:none;

animation: form16 10s infinite linear;
transform-origin: 50% 50%;
}

    @keyframes form16 {
        from {transform: rotate(0deg)}
        to {transform: rotate(360deg)}  

}

.form16-2{
clip-path:url(#clip-path);
}

.form16-3{
stroke:#fff;
stroke-width:1.12px;
}



</style>



<clipPath id="clip-path"><rect class="form16-1" x="217" y="106.31" width="77" height="77"/></clipPath></defs><title>form</title><g class="form16-2"><path class="form16-3" d="M254.79,174.56l-.22,8.72m-3.53-9-1.54,8.59m-2.36-9.46-2.39,8.4m-1.17-9.69L240,180m0-9.79-4.35,7.56m1.24-9.75-5.39,6.86m2.58-9.43-6.32,6m3.84-8.91-7.11,5.06m4.94-8.43-7.56,4.35m5.94-7.78-8.12,3.2m6.94-6.8-8.5,2m7.78-5.89-8.65,1.1m8.45-4.86-8.72-.22m9-3.76-8.65-1.1m9.43-2.59-8.39-2.39m9.63-1.2-8-3.59m9.76,0-7.57-4.35m9.71,1.21-6.86-5.39m9.38,2.53-6-6.31m9.05,3.68-5.39-6.86m8.57,4.77-4.35-7.56m7.75,5.89-3.2-8.12m7,6.84-2.38-8.39m6.09,7.67-1.1-8.65m4.86,8.39.22-8.72m3.76,9,1.1-8.65m2.61,9.37,2.38-8.39m1.41,9.67,3.2-8.12m.2,9.79,4.35-7.56m-1.17,9.65,5.39-6.86m-2.36,9.49,6-6.31m-3.5,9.17,6.86-5.39m-4.72,8.53,7.57-4.35M283,133.25l7.95-3.59m-6.71,7.18,8.39-2.39M285,140.53l8.66-1.1m-8.35,5.08,8.72-.22m-8.92,4,8.65,1.1m-9.37,2.83,8.5,2m-9.68,1.64,8.12,3.2m-9.74.23,7.56,4.35m-9.73-1,7.11,5.06m-9.59-2.17,6.32,6m-9.13-3.45,5.39,6.86m-8.5-4.67,4.35,7.56m-7.91-5.72L271,180m-7.16-6.66,2.39,8.4M260,174.25l1.54,8.59m-5.3-8.28.23,8.72"/></g></svg>