<svg id="Capa_1" data-name="Capa 1" xmlns="http://www.w3.org/2000/svg" xmlns:xlink="http://www.w3.org/1999/xlink" viewBox="0 0 510.24 289.13"><defs><style>



.form6-1,.form6-3 { 
  fill:none; 
}
.form6-2 {
  clip-path:url(#clip-path);
}
.form6-3 {
  stroke:#c6c6c5;
  stroke-linecap:round;
  stroke-miterlimit:10;
  stroke-width:0.75px;
  stroke-dasharray:1 6;

}

.form6-3:nth-child(2n){
animation: shiny 1s ease-in infinite alternate
}
        
@keyframes shiny {
        
            from {opacity: 0}
            to {opacity:1}
}


</style><clipPath id="clip-path"><path class="form6-1" d="M251.31,199.67c-13.45,1.38-19.15-2.78-25.34-.63-7.93,2.76-5.32,11.91-2.84,20.6,2.77,9.71,5.23,18.32,14.41,23.59,17,9.74,44.39.94,48.79-.47,16-5.14,22.12-13.43,34.34-30C334,194.65,332.79,187,330.17,181c-1.05-2.44-7.69-17.78-23.15-23.79-12.09-4.69-24.9-1.87-29.74,3.36-5.42,5.84,2,11.6-2.86,24.68-2,5.48-4.57,7.85-6.74,9.34C266.45,195.4,261.47,198.63,251.31,199.67Z"/></clipPath></defs><title>pantallas</title><g class="form6-2"><line class="form6-3" x1="273.66" y1="277.66" x2="405.86" y2="188.6"/><line class="form6-3" x1="266.53" y1="273.52" x2="398.73" y2="184.46"/><line class="form6-3" x1="259.4" y1="269.38" x2="391.61" y2="180.32"/><line class="form6-3" x1="252.28" y1="265.24" x2="384.48" y2="176.18"/><line class="form6-3" x1="245.15" y1="261.1" x2="377.35" y2="172.04"/><line class="form6-3" x1="238.02" y1="256.96" x2="370.22" y2="167.9"/><line class="form6-3" x1="230.89" y1="252.82" x2="363.09" y2="163.76"/><line class="form6-3" x1="223.76" y1="248.68" x2="355.96" y2="159.62"/><line class="form6-3" x1="216.63" y1="244.54" x2="348.84" y2="155.48"/><line class="form6-3" x1="209.51" y1="240.4" x2="341.71" y2="151.34"/><line class="form6-3" x1="202.38" y1="236.26" x2="334.58" y2="147.2"/><line class="form6-3" x1="195.25" y1="232.12" x2="327.45" y2="143.06"/><line class="form6-3" x1="188.12" y1="227.98" x2="320.32" y2="138.92"/><line class="form6-3" x1="180.99" y1="223.84" x2="313.19" y2="134.78"/><line class="form6-3" x1="173.86" y1="219.7" x2="306.07" y2="130.64"/><line class="form6-3" x1="166.74" y1="215.56" x2="298.94" y2="126.5"/><line class="form6-3" x1="159.61" y1="211.42" x2="291.81" y2="122.36"/><line class="form6-3" x1="271.14" y1="275.19" x2="403.34" y2="186.13"/><line class="form6-3" x1="264.01" y1="271.05" x2="396.21" y2="181.99"/><line class="form6-3" x1="256.88" y1="266.91" x2="389.09" y2="177.85"/><line class="form6-3" x1="249.76" y1="262.77" x2="381.96" y2="173.71"/><line class="form6-3" x1="242.63" y1="258.63" x2="374.83" y2="169.57"/><line class="form6-3" x1="235.5" y1="254.49" x2="367.7" y2="165.43"/><line class="form6-3" x1="228.37" y1="250.35" x2="360.57" y2="161.29"/><line class="form6-3" x1="221.24" y1="246.21" x2="353.44" y2="157.15"/><line class="form6-3" x1="214.11" y1="242.07" x2="346.32" y2="153.01"/><line class="form6-3" x1="206.99" y1="237.93" x2="339.19" y2="148.87"/><line class="form6-3" x1="199.86" y1="233.79" x2="332.06" y2="144.73"/><line class="form6-3" x1="192.73" y1="229.65" x2="324.93" y2="140.59"/><line class="form6-3" x1="185.6" y1="225.51" x2="317.8" y2="136.45"/><line class="form6-3" x1="178.47" y1="221.37" x2="310.67" y2="132.31"/><line class="form6-3" x1="171.34" y1="217.23" x2="303.55" y2="128.17"/><line class="form6-3" x1="164.22" y1="213.09" x2="296.42" y2="124.03"/><line class="form6-3" x1="157.09" y1="208.95" x2="289.29" y2="119.89"/></g></svg>