<svg id="Capa_1" data-name="Capa 1" xmlns="http://www.w3.org/2000/svg" xmlns:xlink="http://www.w3.org/1999/xlink" viewBox="0 0 510.24 289.13"><defs><style>


.form3-1,.form3-3{
fill:none;

animation: form3 10s infinite linear;
transform-origin: 50% 50%;
}

    @keyframes form3 {
        from {transform: rotate(0deg)}
        to {transform: rotate(360deg)}  

}

.form3-2{
clip-path:url(#clip-path);
}
.form3-3{
stroke:#fff;
stroke-width:0.75px;
}
.form3-4{
clip-path:url(#clip-path-2);
}


</style>


<clipPath id="clip-path"><rect class="form3-1" x="228.81" y="118.26" width="52.62" height="52.62"/></clipPath><clipPath id="clip-path-2"><rect class="form3-1" x="228.81" y="118.26" width="52.62" height="52.62" transform="translate(87.55 385.2) rotate(-84.69)"/></clipPath></defs><title>form-03-03-03</title><g class="form3-2"><path class="form3-3" d="M254.88,166.8l-4.14,3.41m2.13-3.52-4.47,3m2.4-3.33L246.22,169m2.63-3.12L244,168.1m2.93-2.85-5,1.74m3.19-2.57-5.18,1.27m3.42-2.25-5.29.77m3.63-1.92-5.35.28m3.8-1.56-5.37-.23m3.88-1.26-5.27-.66m4-.9-5.21-1.15m4.07-.51-5.06-1.55m4.07-.21-4.9-2m4.08.19-4.7-2.5m4.05.59-4.46-2.94m4,1-4.18-3.37m3.88,1.39-3.86-3.78m3.75,1.68-3.52-4m3.59,2-3.14-4.3m3.39,2.31-2.72-4.6m3.15,2.63L231.36,134m2.88,2.94-1.81-5.07m2.63,3.13-1.37-5.15m2.32,3.38-.89-5.27m2,3.59-.46-5.28m1.72,3.7,0-5.31m1.37,3.86.53-5.3m1,4,1-5.24m.61,4.06,1.51-5.13m.22,4.1,2-5m-.18,4.11,2.47-4.78m-.5,4.06,2.84-4.52m-.89,4,3.17-4.24m-1.2,3.9,3.59-3.93m-1.59,3.78,4-3.6m-2,3.62,4.31-3.22m-2.22,3.43,4.53-2.82M260.44,123l4.71-2.42m-2.78,3,4.93-2m-3.07,2.71,5.12-1.49m-3.32,2.4,5.24-1m-3.53,2.08,5.33-.52m-3.72,1.74,5.36,0m-3.87,1.39,5.35.47m-3.93,1.09,5.24.9m-4,.71,5.15,1.39m-4.09.32,5,1.79m-4.09,0,4.81,2.26m-4.07-.39,4.58,2.72m-4-.79,4.32,3.16m-3.94-1.19,4,3.58m-3.81-1.49,3.69,3.78m-3.67-1.78,3.32,4.14m-3.49-2.14,2.93,4.46m-3.27-2.48,2.5,4.73m-3-2.79,2,5m-2.74-3.08,1.57,5.15m-2.48-3.25,1.13,5.21m-2.16-3.48.64,5.31m-1.83-3.68.21,5.29M271.16,160l-.28,5.31m-1.18-3.92-.78,5.27m-.8-4-1.27,5.19m-.41-4.08-1.76,5.06m0-4.11-2.24,4.88m.39-4.1-2.71,4.66m.7-4-3,4.38m1-4-3.39,4.09"/></g><g class="form3-4"><line class="form3-3" x1="256.79" y1="166.74" x2="253.04" y2="170.5"/></g></svg>