<svg id="Capa_1" data-name="Capa 1" xmlns="http://www.w3.org/2000/svg" xmlns:xlink="http://www.w3.org/1999/xlink" viewBox="0 0 510.24 289.13"><defs><style>.cls-1{fill:none;}.cls-2{clip-path:url(#clip-path);}.cls-3{fill:#fff;}</style><clipPath id="clip-path"><polygon class="cls-1" points="252.82 76.38 305.3 70.2 362.93 63 328.97 97.99 362.93 187.52 342.35 180.31 334.12 170.25 321.77 152.53 233.27 120.63 252.82 76.38"/></clipPath></defs><title>form</title><g class="cls-2"><path class="cls-3" d="M255.8,92.41a1.25,1.25,0,0,0,0-2.5,1.25,1.25,0,0,0,0,2.5Z"/><path class="cls-3" d="M305.2,78.52a1.25,1.25,0,0,0,0-2.5,1.25,1.25,0,0,0,0,2.5Z"/><path class="cls-3" d="M294.4,149.53a1.25,1.25,0,0,0,0-2.5,1.25,1.25,0,0,0,0,2.5Z"/><path class="cls-3" d="M260.43,110.94a1.25,1.25,0,0,0,0-2.5,1.25,1.25,0,0,0,0,2.5Z"/><path class="cls-3" d="M314.47,90.87a1.25,1.25,0,0,0,0-2.5,1.25,1.25,0,0,0,0,2.5Z"/><path class="cls-3" d="M292.85,114a1.25,1.25,0,0,0,0-2.5,1.25,1.25,0,0,0,0,2.5Z"/><path class="cls-3" d="M283.59,87.78a1.25,1.25,0,0,0,0-2.5,1.25,1.25,0,0,0,0,2.5Z"/><path class="cls-3" d="M241.91,60a1.25,1.25,0,0,0,0-2.5,1.25,1.25,0,0,0,0,2.5Z"/><path class="cls-3" d="M195.6,60a1.25,1.25,0,0,0,0-2.5,1.25,1.25,0,0,0,0,2.5Z"/><path class="cls-3" d="M200.23,121.74a1.25,1.25,0,0,0,0-2.5,1.25,1.25,0,0,0,0,2.5Z"/><path class="cls-3" d="M224.93,80.06a1.25,1.25,0,0,0,0-2.5,1.25,1.25,0,0,0,0,2.5Z"/><path class="cls-3" d="M220.3,103.22a1.25,1.25,0,0,0,0-2.5,1.25,1.25,0,0,0,0,2.5Z"/><path class="cls-3" d="M201.77,87.78a1.25,1.25,0,0,0,0-2.5,1.25,1.25,0,0,0,0,2.5Z"/><path class="cls-3" d="M228,70.8a1.25,1.25,0,0,0,0-2.5,1.25,1.25,0,0,0,0,2.5Z"/><path class="cls-3" d="M206.4,75.43a1.25,1.25,0,0,0,0-2.5,1.25,1.25,0,0,0,0,2.5Z"/><path class="cls-3" d="M223.38,46.1a1.25,1.25,0,0,0,0-2.5,1.25,1.25,0,0,0,0,2.5Z"/><path class="cls-3" d="M255.8,110.94a1.25,1.25,0,0,0,0-2.5,1.25,1.25,0,0,0,0,2.5Z"/><path class="cls-3" d="M306.75,38.38a1.25,1.25,0,0,0,0-2.5,1.25,1.25,0,0,0,0,2.5Z"/><path class="cls-3" d="M260.43,72.34a1.25,1.25,0,0,0,0-2.5,1.25,1.25,0,0,0,0,2.5Z"/><path class="cls-3" d="M274.33,84.69a1.25,1.25,0,0,0,0-2.5,1.25,1.25,0,0,0,0,2.5Z"/><path class="cls-3" d="M258.89,112.48a1.25,1.25,0,0,0,0-2.5,1.25,1.25,0,0,0,0,2.5Z"/><path class="cls-3" d="M238.82,83.15a1.25,1.25,0,0,0,0-2.5,1.25,1.25,0,0,0,0,2.5Z"/><path class="cls-3" d="M238.82,106.3a1.25,1.25,0,0,0,0-2.5,1.25,1.25,0,0,0,0,2.5Z"/><path class="cls-3" d="M204.86,134.09a1.25,1.25,0,0,0,0-2.5,1.25,1.25,0,0,0,0,2.5Z"/><path class="cls-3" d="M277.42,157.25a1.25,1.25,0,0,0,0-2.5,1.25,1.25,0,0,0,0,2.5Z"/><path class="cls-3" d="M274.33,114a1.25,1.25,0,0,0,0-2.5,1.25,1.25,0,0,0,0,2.5Z"/><path class="cls-3" d="M257.35,114a1.25,1.25,0,0,0,0-2.5,1.25,1.25,0,0,0,0,2.5Z"/><path class="cls-3" d="M223.38,143.35a1.25,1.25,0,0,0,0-2.5,1.25,1.25,0,0,0,0,2.5Z"/><path class="cls-3" d="M228,152.62a1.25,1.25,0,0,0,0-2.5,1.25,1.25,0,0,0,0,2.5Z"/><path class="cls-3" d="M258.89,143.35a1.25,1.25,0,0,0,0-2.5,1.25,1.25,0,0,0,0,2.5Z"/><path class="cls-3" d="M232.65,123.29a1.25,1.25,0,0,0,0-2.5,1.25,1.25,0,0,0,0,2.5Z"/><path class="cls-3" d="M218.75,114a1.25,1.25,0,0,0,0-2.5,1.25,1.25,0,0,0,0,2.5Z"/><path class="cls-3" d="M218.75,123.29a1.25,1.25,0,0,0,0-2.5,1.25,1.25,0,0,0,0,2.5Z"/><path class="cls-3" d="M286.68,177.32a1.25,1.25,0,0,0,0-2.5,1.25,1.25,0,0,0,0,2.5Z"/><path class="cls-3" d="M299,138.72a1.25,1.25,0,0,0,0-2.5,1.25,1.25,0,0,0,0,2.5Z"/><path class="cls-3" d="M269.7,137.18a1.25,1.25,0,0,0,0-2.5,1.25,1.25,0,0,0,0,2.5Z"/><path class="cls-3" d="M260.43,129.46a1.25,1.25,0,0,0,0-2.5,1.25,1.25,0,0,0,0,2.5Z"/><path class="cls-3" d="M285.13,72.34a1.25,1.25,0,0,0,0-2.5,1.25,1.25,0,0,0,0,2.5Z"/><path class="cls-3" d="M271.24,35.29a1.25,1.25,0,0,0,0-2.5,1.25,1.25,0,0,0,0,2.5Z"/><path class="cls-3" d="M237.28,24.49a1.25,1.25,0,0,0,0-2.5,1.25,1.25,0,0,0,0,2.5Z"/><path class="cls-3" d="M275.87,90.87a1.25,1.25,0,0,0,0-2.5,1.25,1.25,0,0,0,0,2.5Z"/><path class="cls-3" d="M272.78,61.54a1.25,1.25,0,0,0,0-2.5,1.25,1.25,0,0,0,0,2.5Z"/><path class="cls-3" d="M265.07,55.36a1.25,1.25,0,0,0,0-2.5,1.25,1.25,0,0,0,0,2.5Z"/><path class="cls-3" d="M251.17,46.1a1.25,1.25,0,0,0,0-2.5,1.25,1.25,0,0,0,0,2.5Z"/><path class="cls-3" d="M251.17,38.38a1.25,1.25,0,0,0,0-2.5,1.25,1.25,0,0,0,0,2.5Z"/><path class="cls-3" d="M260.43,27.57a1.25,1.25,0,0,0,0-2.5,1.25,1.25,0,0,0,0,2.5Z"/><path class="cls-3" d="M282.05,21.4a1.25,1.25,0,0,0,0-2.5,1.25,1.25,0,0,0,0,2.5Z"/><path class="cls-3" d="M295.94,49.19a1.25,1.25,0,0,0,0-2.5,1.25,1.25,0,0,0,0,2.5Z"/><path class="cls-3" d="M286.68,56.9a1.25,1.25,0,0,0,0-2.5,1.25,1.25,0,0,0,0,2.5Z"/><path class="cls-3" d="M322.18,75.43a1.25,1.25,0,0,0,0-2.5,1.25,1.25,0,0,0,0,2.5Z"/><path class="cls-3" d="M331.45,60a1.25,1.25,0,0,0,0-2.5,1.25,1.25,0,0,0,0,2.5Z"/><path class="cls-3" d="M320.64,33.75a1.25,1.25,0,0,0,0-2.5,1.25,1.25,0,0,0,0,2.5Z"/><path class="cls-3" d="M294.4,61.54a1.25,1.25,0,0,0,0-2.5,1.25,1.25,0,0,0,0,2.5Z"/><path class="cls-3" d="M312.92,61.54a1.25,1.25,0,0,0,0-2.5,1.25,1.25,0,0,0,0,2.5Z"/><path class="cls-3" d="M328.36,47.64a1.25,1.25,0,0,0,0-2.5,1.25,1.25,0,0,0,0,2.5Z"/><path class="cls-3" d="M337.62,46.1a1.25,1.25,0,0,0,0-2.5,1.25,1.25,0,0,0,0,2.5Z"/><path class="cls-3" d="M353.06,103.22a1.25,1.25,0,0,0,0-2.5,1.25,1.25,0,0,0,0,2.5Z"/><path class="cls-3" d="M329.9,124.83a1.25,1.25,0,0,0,0-2.5,1.25,1.25,0,0,0,0,2.5Z"/><path class="cls-3" d="M303.66,90.87a1.25,1.25,0,0,0,0-2.5,1.25,1.25,0,0,0,0,2.5Z"/><path class="cls-3" d="M294.4,98.59a1.25,1.25,0,0,0,0-2.5,1.25,1.25,0,0,0,0,2.5Z"/><path class="cls-3" d="M312.92,114a1.25,1.25,0,0,0,0-2.5,1.25,1.25,0,0,0,0,2.5Z"/><path class="cls-3" d="M300.57,137.18a1.25,1.25,0,0,0,0-2.5,1.25,1.25,0,0,0,0,2.5Z"/><path class="cls-3" d="M314.47,149.53a1.25,1.25,0,0,0,0-2.5,1.25,1.25,0,0,0,0,2.5Z"/><path class="cls-3" d="M329.9,148a1.25,1.25,0,0,0,0-2.5,1.25,1.25,0,0,0,0,2.5Z"/><path class="cls-3" d="M342.25,140.27a1.25,1.25,0,0,0,0-2.5,1.25,1.25,0,0,0,0,2.5Z"/><path class="cls-3" d="M333,109.39a1.25,1.25,0,0,0,0-2.5,1.25,1.25,0,0,0,0,2.5Z"/><path class="cls-3" d="M337.62,87.78a1.25,1.25,0,0,0,0-2.5,1.25,1.25,0,0,0,0,2.5Z"/><path class="cls-3" d="M350,78.52a1.25,1.25,0,0,0,0-2.5,1.25,1.25,0,0,0,0,2.5Z"/><path class="cls-3" d="M356.15,80.06a1.25,1.25,0,0,0,0-2.5,1.25,1.25,0,0,0,0,2.5Z"/><path class="cls-3" d="M385.48,117.11a1.25,1.25,0,0,0,0-2.5,1.25,1.25,0,0,0,0,2.5Z"/><path class="cls-3" d="M289.77,112.48a1.25,1.25,0,0,0,0-2.5,1.25,1.25,0,0,0,0,2.5Z"/><path class="cls-3" d="M289.77,131a1.25,1.25,0,0,0,0-2.5,1.25,1.25,0,0,0,0,2.5Z"/><path class="cls-3" d="M283.59,134.09a1.25,1.25,0,0,0,0-2.5,1.25,1.25,0,0,0,0,2.5Z"/><path class="cls-3" d="M282.05,154.16a1.25,1.25,0,0,0,0-2.5,1.25,1.25,0,0,0,0,2.5Z"/><path class="cls-3" d="M262,180.4a1.25,1.25,0,0,0,0-2.5,1.25,1.25,0,0,0,0,2.5Z"/><path class="cls-3" d="M246.54,169.6a1.25,1.25,0,0,0,0-2.5,1.25,1.25,0,0,0,0,2.5Z"/><path class="cls-3" d="M251.17,149.53a1.25,1.25,0,0,0,0-2.5,1.25,1.25,0,0,0,0,2.5Z"/><path class="cls-3" d="M229.56,129.46a1.25,1.25,0,0,0,0-2.5,1.25,1.25,0,0,0,0,2.5Z"/><path class="cls-3" d="M240.37,127.92a1.25,1.25,0,0,0,0-2.5,1.25,1.25,0,0,0,0,2.5Z"/><path class="cls-3" d="M317.55,101.67a1.25,1.25,0,0,0,0-2.5,1.25,1.25,0,0,0,0,2.5Z"/><path class="cls-3" d="M325.27,135.64a1.25,1.25,0,0,0,0-2.5,1.25,1.25,0,0,0,0,2.5Z"/><path class="cls-3" d="M400.92,121.74a1.25,1.25,0,0,0,0-2.5,1.25,1.25,0,0,0,0,2.5Z"/><path class="cls-3" d="M360.78,126.37a1.25,1.25,0,0,0,0-2.5,1.25,1.25,0,0,0,0,2.5Z"/><path class="cls-3" d="M351.52,120.2a1.25,1.25,0,0,0,0-2.5,1.25,1.25,0,0,0,0,2.5Z"/><path class="cls-3" d="M356.15,138.72a1.25,1.25,0,0,0,0-2.5,1.25,1.25,0,0,0,0,2.5Z"/><path class="cls-3" d="M382.39,149.53a1.25,1.25,0,0,0,0-2.5,1.25,1.25,0,0,0,0,2.5Z"/><path class="cls-3" d="M382.39,135.64a1.25,1.25,0,0,0,0-2.5,1.25,1.25,0,0,0,0,2.5Z"/><path class="cls-3" d="M371.58,124.83a1.25,1.25,0,0,0,0-2.5,1.25,1.25,0,0,0,0,2.5Z"/><path class="cls-3" d="M365.41,100.13a1.25,1.25,0,0,0,0-2.5,1.25,1.25,0,0,0,0,2.5Z"/><path class="cls-3" d="M370,94a1.25,1.25,0,0,0,0-2.5,1.25,1.25,0,0,0,0,2.5Z"/><path class="cls-3" d="M364.75,79.47l-1.54-1.54a1.25,1.25,0,0,0-1.77,1.76L363,81.24a1.25,1.25,0,0,0,1.77-1.77Z"/><path class="cls-3" d="M336.08,64.62a1.25,1.25,0,0,0,0-2.5,1.25,1.25,0,0,0,0,2.5Z"/><path class="cls-3" d="M383.93,49.19a1.25,1.25,0,0,0,0-2.5,1.25,1.25,0,0,0,0,2.5Z"/><path class="cls-3" d="M394.74,83.15a1.25,1.25,0,0,0,0-2.5,1.25,1.25,0,0,0,0,2.5Z"/><path class="cls-3" d="M404,98.59a1.25,1.25,0,0,0,0-2.5,1.25,1.25,0,0,0,0,2.5Z"/><path class="cls-3" d="M367,72.34a1.25,1.25,0,0,0,0-2.5,1.25,1.25,0,0,0,0,2.5Z"/><path class="cls-3" d="M360.78,63.08a1.25,1.25,0,0,0,0-2.5,1.25,1.25,0,0,0,0,2.5Z"/><path class="cls-3" d="M356.15,52.27a1.25,1.25,0,0,0,0-2.5,1.25,1.25,0,0,0,0,2.5Z"/><path class="cls-3" d="M356.15,43a1.25,1.25,0,0,0,0-2.5,1.25,1.25,0,0,0,0,2.5Z"/><path class="cls-3" d="M362.32,38.38a1.25,1.25,0,0,0,0-2.5,1.25,1.25,0,0,0,0,2.5Z"/><path class="cls-3" d="M367,47.64a1.25,1.25,0,0,0,0-2.5,1.25,1.25,0,0,0,0,2.5Z"/><path class="cls-3" d="M370,56.9a1.25,1.25,0,0,0,0-2.5,1.25,1.25,0,0,0,0,2.5Z"/><path class="cls-3" d="M410.18,98.59a1.25,1.25,0,0,0,0-2.5,1.25,1.25,0,0,0,0,2.5Z"/><path class="cls-3" d="M416.35,77a1.25,1.25,0,0,0,0-2.5,1.25,1.25,0,0,0,0,2.5Z"/><path class="cls-3" d="M417.24,74.84l-1.55-1.54a1.25,1.25,0,0,0-1.76,1.76l1.54,1.55a1.25,1.25,0,0,0,1.77-1.77Z"/><path class="cls-3" d="M382.39,77a1.25,1.25,0,0,0,0-2.5,1.25,1.25,0,0,0,0,2.5Z"/><path class="cls-3" d="M394.74,52.27a1.25,1.25,0,0,0,0-2.5,1.25,1.25,0,0,0,0,2.5Z"/><path class="cls-3" d="M397.83,50.73a1.25,1.25,0,0,0,0-2.5,1.25,1.25,0,0,0,0,2.5Z"/><path class="cls-3" d="M405.55,67.71a1.25,1.25,0,0,0,0-2.5,1.25,1.25,0,0,0,0,2.5Z"/><path class="cls-3" d="M391.65,70.8a1.25,1.25,0,0,0,0-2.5,1.25,1.25,0,0,0,0,2.5Z"/><path class="cls-3" d="M380.85,70.8a1.25,1.25,0,0,0,0-2.5,1.25,1.25,0,0,0,0,2.5Z"/><path class="cls-3" d="M404,47.64a1.25,1.25,0,0,0,0-2.5,1.25,1.25,0,0,0,0,2.5Z"/><path class="cls-3" d="M419.44,87.78a1.25,1.25,0,0,0,0-2.5,1.25,1.25,0,0,0,0,2.5Z"/><path class="cls-3" d="M430.25,104.76a1.25,1.25,0,0,0,0-2.5,1.25,1.25,0,0,0,0,2.5Z"/><path class="cls-3" d="M393.2,137.18a1.25,1.25,0,0,0,0-2.5,1.25,1.25,0,0,0,0,2.5Z"/><path class="cls-3" d="M342.25,165a1.25,1.25,0,0,0,0-2.5,1.25,1.25,0,0,0,0,2.5Z"/><path class="cls-3" d="M286.68,172.69a1.25,1.25,0,0,0,0-2.5,1.25,1.25,0,0,0,0,2.5Z"/><path class="cls-3" d="M295.94,154.16a1.25,1.25,0,0,0,0-2.5,1.25,1.25,0,0,0,0,2.5Z"/><path class="cls-3" d="M303.66,168.05a1.25,1.25,0,0,0,0-2.5,1.25,1.25,0,0,0,0,2.5Z"/><path class="cls-3" d="M306.75,168.05a1.25,1.25,0,0,0,0-2.5,1.25,1.25,0,0,0,0,2.5Z"/><path class="cls-3" d="M312.92,163.42a1.25,1.25,0,0,0,0-2.5,1.25,1.25,0,0,0,0,2.5Z"/><path class="cls-3" d="M316,160.34a1.25,1.25,0,0,0,0-2.5,1.25,1.25,0,0,0,0,2.5Z"/><path class="cls-3" d="M357.69,161.88a1.25,1.25,0,0,0,0-2.5,1.25,1.25,0,0,0,0,2.5Z"/><path class="cls-3" d="M357.69,161.88a1.25,1.25,0,0,0,0-2.5,1.25,1.25,0,0,0,0,2.5Z"/><path class="cls-3" d="M356.15,157.25a1.25,1.25,0,0,0,0-2.5,1.25,1.25,0,0,0,0,2.5Z"/><path class="cls-3" d="M354.6,197.39a1.25,1.25,0,0,0,0-2.5,1.25,1.25,0,0,0,0,2.5Z"/><path class="cls-3" d="M291.31,192.75a1.25,1.25,0,0,0,0-2.5,1.25,1.25,0,0,0,0,2.5Z"/><path class="cls-3" d="M320.64,171.14a1.25,1.25,0,0,0,0-2.5,1.25,1.25,0,0,0,0,2.5Z"/><path class="cls-3" d="M331.45,171.14a1.25,1.25,0,0,0,0-2.5,1.25,1.25,0,0,0,0,2.5Z"/><path class="cls-3" d="M323.73,197.39a1.25,1.25,0,0,0,0-2.5,1.25,1.25,0,0,0,0,2.5Z"/><path class="cls-3" d="M309.83,192.75a1.25,1.25,0,0,0,0-2.5,1.25,1.25,0,0,0,0,2.5Z"/><path class="cls-3" d="M303.66,185a1.25,1.25,0,0,0,0-2.5,1.25,1.25,0,0,0,0,2.5Z"/><path class="cls-3" d="M393.2,178.86a1.25,1.25,0,0,0,0-2.5,1.25,1.25,0,0,0,0,2.5Z"/><path class="cls-3" d="M325.27,191.21a1.25,1.25,0,0,0,0-2.5,1.25,1.25,0,0,0,0,2.5Z"/><path class="cls-3" d="M354.6,169.6a1.25,1.25,0,0,0,0-2.5,1.25,1.25,0,0,0,0,2.5Z"/><path class="cls-3" d="M359.23,180.4a1.25,1.25,0,0,0,0-2.5,1.25,1.25,0,0,0,0,2.5Z"/><path class="cls-3" d="M336.08,185a1.25,1.25,0,0,0,0-2.5,1.25,1.25,0,0,0,0,2.5Z"/><path class="cls-3" d="M363.87,203.56a1.25,1.25,0,0,0,0-2.5,1.25,1.25,0,0,0,0,2.5Z"/><path class="cls-3" d="M379.3,186.58a1.25,1.25,0,0,0,0-2.5,1.25,1.25,0,0,0,0,2.5Z"/><path class="cls-3" d="M357.69,175.77a1.25,1.25,0,0,0,0-2.5,1.25,1.25,0,0,0,0,2.5Z"/><path class="cls-3" d="M371.58,154.16a1.25,1.25,0,0,0,0-2.5,1.25,1.25,0,0,0,0,2.5Z"/><path class="cls-3" d="M373.13,158.79a1.25,1.25,0,0,0,0-2.5,1.25,1.25,0,0,0,0,2.5Z"/><path class="cls-3" d="M387,177.32a1.25,1.25,0,0,0,0-2.5,1.25,1.25,0,0,0,0,2.5Z"/><path class="cls-3" d="M365.41,177.32a1.25,1.25,0,0,0,0-2.5,1.25,1.25,0,0,0,0,2.5Z"/><path class="cls-3" d="M370,160.34a1.25,1.25,0,0,0,0-2.5,1.25,1.25,0,0,0,0,2.5Z"/><path class="cls-3" d="M404,148a1.25,1.25,0,0,0,0-2.5,1.25,1.25,0,0,0,0,2.5Z"/><path class="cls-3" d="M397.83,163.42a1.25,1.25,0,0,0,0-2.5,1.25,1.25,0,0,0,0,2.5Z"/><path class="cls-3" d="M417.9,154.16a1.25,1.25,0,0,0,0-2.5,1.25,1.25,0,0,0,0,2.5Z"/><path class="cls-3" d="M413.27,148a1.25,1.25,0,0,0,0-2.5,1.25,1.25,0,0,0,0,2.5Z"/><path class="cls-3" d="M408,138l1.57-3.08c.73-1.43-1.43-2.69-2.16-1.26l-1.57,3.08c-.73,1.43,1.43,2.69,2.16,1.26Z"/><path class="cls-3" d="M419.44,123.29a1.25,1.25,0,0,0,0-2.5,1.25,1.25,0,0,0,0,2.5Z"/><path class="cls-3" d="M207.05,14.41a.63.63,0,0,0,0-1.25.63.63,0,0,0,0,1.25Z"/><path class="cls-3" d="M267.17,95.53a.63.63,0,0,0,0-1.25.63.63,0,0,0,0,1.25Z"/><path class="cls-3" d="M274.17,117.13a.63.63,0,0,0,0-1.25.63.63,0,0,0,0,1.25Z"/><path class="cls-3" d="M264.83,117.13a.63.63,0,0,0,0-1.25.63.63,0,0,0,0,1.25Z"/><path class="cls-3" d="M264.83,120.05a.63.63,0,0,0,0-1.25.63.63,0,0,0,0,1.25Z"/><path class="cls-3" d="M280,125.3a.63.63,0,0,0,0-1.25.63.63,0,0,0,0,1.25Z"/><path class="cls-3" d="M312.69,114.21a.63.63,0,0,0,0-1.25.63.63,0,0,0,0,1.25Z"/><path class="cls-3" d="M281.76,112.46a.63.63,0,0,0,0-1.25.63.63,0,0,0,0,1.25Z"/><path class="cls-3" d="M278.84,106.62a.63.63,0,0,0,0-1.25.63.63,0,0,0,0,1.25Z"/><path class="cls-3" d="M289.34,97.87a.63.63,0,0,0,0-1.25.63.63,0,0,0,0,1.25Z"/><path class="cls-3" d="M274.75,100.79a.63.63,0,0,0,0-1.25.63.63,0,0,0,0,1.25Z"/><path class="cls-3" d="M260.16,104.87a.63.63,0,0,0,0-1.25.63.63,0,0,0,0,1.25Z"/><path class="cls-3" d="M247.32,103.12a.63.63,0,0,0,0-1.25.63.63,0,0,0,0,1.25Z"/><path class="cls-3" d="M243.24,97.29a.63.63,0,0,0,0-1.25.63.63,0,0,0,0,1.25Z"/><path class="cls-3" d="M271.83,78.61a.63.63,0,0,0,0-1.25.63.63,0,0,0,0,1.25Z"/><path class="cls-3" d="M310.94,80.94a.63.63,0,0,0,0-1.25.63.63,0,0,0,0,1.25Z"/><path class="cls-3" d="M298.68,109a.63.63,0,0,0,0-1.25.63.63,0,0,0,0,1.25Z"/><path class="cls-3" d="M285.84,121.21a.63.63,0,0,0,0-1.25.63.63,0,0,0,0,1.25Z"/><path class="cls-3" d="M316.19,119.46a.63.63,0,0,0,0-1.25.63.63,0,0,0,0,1.25Z"/><path class="cls-3" d="M305.69,125.88a.63.63,0,0,0,0-1.25.63.63,0,0,0,0,1.25Z"/><path class="cls-3" d="M287,120.05a.63.63,0,0,0,0-1.25.63.63,0,0,0,0,1.25Z"/><path class="cls-3" d="M298.1,118.88a.63.63,0,0,0,0-1.25.63.63,0,0,0,0,1.25Z"/><path class="cls-3" d="M295.18,124.72a.63.63,0,0,0,0-1.25.63.63,0,0,0,0,1.25Z"/><path class="cls-3" d="M307.44,130.55a.63.63,0,0,0,0-1.25.63.63,0,0,0,0,1.25Z"/><path class="cls-3" d="M302.77,116.55a.63.63,0,0,0,0-1.25.63.63,0,0,0,0,1.25Z"/><path class="cls-3" d="M305.1,105.46a.63.63,0,0,0,0-1.25.63.63,0,0,0,0,1.25Z"/><path class="cls-3" d="M315.61,102.54a.63.63,0,0,0,0-1.25.63.63,0,0,0,0,1.25Z"/><path class="cls-3" d="M313.86,93.78a.63.63,0,0,0,0-1.25.63.63,0,0,0,0,1.25Z"/><path class="cls-3" d="M309.77,95.53a.63.63,0,0,0,0-1.25.63.63,0,0,0,0,1.25Z"/><path class="cls-3" d="M340.12,99.62a.63.63,0,0,0,0-1.25.63.63,0,0,0,0,1.25Z"/><path class="cls-3" d="M313.86,116a.63.63,0,0,0,0-1.25.63.63,0,0,0,0,1.25Z"/><path class="cls-3" d="M348.87,91.45a.63.63,0,0,0,0-1.25.63.63,0,0,0,0,1.25Z"/><path class="cls-3" d="M323.19,95.53a.63.63,0,0,0,0-1.25.63.63,0,0,0,0,1.25Z"/><path class="cls-3" d="M322,89.7a.63.63,0,0,0,0-1.25.63.63,0,0,0,0,1.25Z"/><path class="cls-3" d="M327.28,85a.63.63,0,0,0,0-1.25.63.63,0,0,0,0,1.25Z"/><path class="cls-3" d="M326.7,83.86a.63.63,0,0,0,0-1.25.63.63,0,0,0,0,1.25Z"/><path class="cls-3" d="M325,77.44a.63.63,0,0,0,0-1.25.63.63,0,0,0,0,1.25Z"/><path class="cls-3" d="M331.37,74.52a.63.63,0,0,0,0-1.25.63.63,0,0,0,0,1.25Z"/><path class="cls-3" d="M335.45,79.78a.63.63,0,0,0,0-1.25.63.63,0,0,0,0,1.25Z"/><path class="cls-3" d="M343,79.78a.63.63,0,0,0,0-1.25.63.63,0,0,0,0,1.25Z"/><path class="cls-3" d="M324.36,95a.63.63,0,0,0,0-1.25.63.63,0,0,0,0,1.25Z"/><path class="cls-3" d="M327.28,95a.63.63,0,0,0,0-1.25.63.63,0,0,0,0,1.25Z"/><path class="cls-3" d="M322.61,102a.63.63,0,0,0,0-1.25.63.63,0,0,0,0,1.25Z"/><path class="cls-3" d="M327.86,101.37a.63.63,0,0,0,0-1.25.63.63,0,0,0,0,1.25Z"/><path class="cls-3" d="M317.36,107.79a.63.63,0,0,0,0-1.25.63.63,0,0,0,0,1.25Z"/><path class="cls-3" d="M324.36,107.79a.63.63,0,0,0,0-1.25.63.63,0,0,0,0,1.25Z"/><path class="cls-3" d="M317.94,114.79a.63.63,0,0,0,0-1.25.63.63,0,0,0,0,1.25Z"/><path class="cls-3" d="M334.28,112.46a.63.63,0,0,0,0-1.25.63.63,0,0,0,0,1.25Z"/><path class="cls-3" d="M327.28,117.13a.63.63,0,0,0,0-1.25.63.63,0,0,0,0,1.25Z"/><path class="cls-3" d="M324.36,119.46a.63.63,0,0,0,0-1.25.63.63,0,0,0,0,1.25Z"/><path class="cls-3" d="M323.19,121.21a.63.63,0,0,0,0-1.25.63.63,0,0,0,0,1.25Z"/><path class="cls-3" d="M319.11,124.13a.63.63,0,0,0,0-1.25.63.63,0,0,0,0,1.25Z"/><path class="cls-3" d="M313.86,130.55a.63.63,0,0,0,0-1.25.63.63,0,0,0,0,1.25Z"/><path class="cls-3" d="M316.19,136.39a.63.63,0,0,0,0-1.25.63.63,0,0,0,0,1.25Z"/><path class="cls-3" d="M337.79,138.72a.63.63,0,0,0,0-1.25.63.63,0,0,0,0,1.25Z"/><path class="cls-3" d="M335.45,126.47a.63.63,0,0,0,0-1.25.63.63,0,0,0,0,1.25Z"/><path class="cls-3" d="M337.2,124.72a.63.63,0,0,0,0-1.25.63.63,0,0,0,0,1.25Z"/><path class="cls-3" d="M346.54,123.55a.63.63,0,0,0,0-1.25.63.63,0,0,0,0,1.25Z"/><path class="cls-3" d="M347.71,117.71a.63.63,0,0,0,0-1.25.63.63,0,0,0,0,1.25Z"/><path class="cls-3" d="M340.12,113a.63.63,0,0,0,0-1.25.63.63,0,0,0,0,1.25Z"/><path class="cls-3" d="M353.54,104.29a.63.63,0,0,0,0-1.25.63.63,0,0,0,0,1.25Z"/><path class="cls-3" d="M335.45,106a.63.63,0,0,0,0-1.25.63.63,0,0,0,0,1.25Z"/><path class="cls-3" d="M345.37,104.87a.63.63,0,0,0,0-1.25.63.63,0,0,0,0,1.25Z"/><path class="cls-3" d="M348.87,124.72a.63.63,0,0,0,0-1.25.63.63,0,0,0,0,1.25Z"/><path class="cls-3" d="M372.8,123a.63.63,0,0,0,0-1.25.63.63,0,0,0,0,1.25Z"/><path class="cls-3" d="M357.63,117.13a.63.63,0,0,0,0-1.25.63.63,0,0,0,0,1.25Z"/><path class="cls-3" d="M357.63,114.79a.63.63,0,0,0,0-1.25.63.63,0,0,0,0,1.25Z"/><path class="cls-3" d="M363.47,114.79a.63.63,0,0,0,0-1.25.63.63,0,0,0,0,1.25Z"/><path class="cls-3" d="M360.55,107.79a.63.63,0,0,0,0-1.25.63.63,0,0,0,0,1.25Z"/><path class="cls-3" d="M340.7,111.29a.63.63,0,0,0,0-1.25.63.63,0,0,0,0,1.25Z"/><path class="cls-3" d="M372.22,110.71a.63.63,0,0,0,0-1.25.63.63,0,0,0,0,1.25Z"/><path class="cls-3" d="M355.29,111.88a.63.63,0,0,0,0-1.25.63.63,0,0,0,0,1.25Z"/><path class="cls-3" d="M349.46,109.54a.63.63,0,0,0,0-1.25.63.63,0,0,0,0,1.25Z"/><path class="cls-3" d="M367.55,90.87a.63.63,0,0,0,0-1.25.63.63,0,0,0,0,1.25Z"/><path class="cls-3" d="M361.13,91.45a.63.63,0,0,0,0-1.25.63.63,0,0,0,0,1.25Z"/><path class="cls-3" d="M360.55,98.45a.63.63,0,0,0,0-1.25.63.63,0,0,0,0,1.25Z"/><path class="cls-3" d="M356.46,89.7a.63.63,0,0,0,0-1.25.63.63,0,0,0,0,1.25Z"/><path class="cls-3" d="M346.54,85.61a.63.63,0,0,0,0-1.25.63.63,0,0,0,0,1.25Z"/><path class="cls-3" d="M333.12,89.7a.63.63,0,0,0,0-1.25.63.63,0,0,0,0,1.25Z"/><path class="cls-3" d="M335.45,79.19a.63.63,0,0,0,0-1.25.63.63,0,0,0,0,1.25Z"/><path class="cls-3" d="M336.62,73.94a.63.63,0,0,0,0-1.25.63.63,0,0,0,0,1.25Z"/><path class="cls-3" d="M299.85,72.77a.63.63,0,0,0,0-1.25.63.63,0,0,0,0,1.25Z"/><path class="cls-3" d="M319.69,61.1a.63.63,0,0,0,0-1.25.63.63,0,0,0,0,1.25Z"/><path class="cls-3" d="M306.85,82.11a.63.63,0,0,0,0-1.25.63.63,0,0,0,0,1.25Z"/><path class="cls-3" d="M306.85,69.85a.63.63,0,0,0,0-1.25.63.63,0,0,0,0,1.25Z"/><path class="cls-3" d="M310.94,68.69a.63.63,0,0,0,0-1.25.63.63,0,0,0,0,1.25Z"/><path class="cls-3" d="M317.94,67.52a.63.63,0,0,0,0-1.25.63.63,0,0,0,0,1.25Z"/><path class="cls-3" d="M331.37,65.77a.63.63,0,0,0,0-1.25.63.63,0,0,0,0,1.25Z"/><path class="cls-3" d="M333.12,67.52a.63.63,0,0,0,0-1.25.63.63,0,0,0,0,1.25Z"/><path class="cls-3" d="M361.71,73.36a.63.63,0,0,0,0-1.25.63.63,0,0,0,0,1.25Z"/><path class="cls-3" d="M361.13,72.77a.63.63,0,0,0,0-1.25.63.63,0,0,0,0,1.25Z"/><path class="cls-3" d="M353,73.94a.63.63,0,0,0,0-1.25.63.63,0,0,0,0,1.25Z"/><path class="cls-3" d="M353,69.85a.63.63,0,0,0,0-1.25.63.63,0,0,0,0,1.25Z"/><path class="cls-3" d="M339.54,76.86a.63.63,0,0,0,0-1.25.63.63,0,0,0,0,1.25Z"/><path class="cls-3" d="M346.54,66.94a.63.63,0,0,0,0-1.25.63.63,0,0,0,0,1.25Z"/><path class="cls-3" d="M351.79,64.6a.63.63,0,0,0,0-1.25.63.63,0,0,0,0,1.25Z"/><path class="cls-3" d="M346.5,68.06v.59a.63.63,0,0,0,1.25,0v-.59a.63.63,0,0,0-1.25,0Z"/><path class="cls-3" d="M347.12,73.36a.63.63,0,0,0,0-1.25.63.63,0,0,0,0,1.25Z"/><path class="cls-3" d="M344.79,69.27a.63.63,0,0,0,0-1.25.63.63,0,0,0,0,1.25Z"/><path class="cls-3" d="M342.45,59.35a.63.63,0,0,0,0-1.25.63.63,0,0,0,0,1.25Z"/><path class="cls-3" d="M339.54,59.35a.63.63,0,0,0,0-1.25.63.63,0,0,0,0,1.25Z"/><path class="cls-3" d="M336.62,55.26a.63.63,0,0,0,0-1.25.63.63,0,0,0,0,1.25Z"/><path class="cls-3" d="M330.2,58.18a.63.63,0,0,0,0-1.25.63.63,0,0,0,0,1.25Z"/><path class="cls-3" d="M327.86,56.43a.63.63,0,0,0,0-1.25.63.63,0,0,0,0,1.25Z"/><path class="cls-3" d="M319.11,54.1a.63.63,0,0,0,0-1.25.63.63,0,0,0,0,1.25Z"/><path class="cls-3" d="M313.86,48.84a.63.63,0,0,0,0-1.25.63.63,0,0,0,0,1.25Z"/><path class="cls-3" d="M299.85,55.26a.63.63,0,0,0,0-1.25.63.63,0,0,0,0,1.25Z"/><path class="cls-3" d="M312.69,52.35a.63.63,0,0,0,0-1.25.63.63,0,0,0,0,1.25Z"/><path class="cls-3" d="M290.51,62.27a.63.63,0,0,0,0-1.25.63.63,0,0,0,0,1.25Z"/><path class="cls-3" d="M298.1,62.85a.63.63,0,0,0,0-1.25.63.63,0,0,0,0,1.25Z"/><path class="cls-3" d="M318.53,59.35a.63.63,0,0,0,0-1.25.63.63,0,0,0,0,1.25Z"/><path class="cls-3" d="M302.77,61.68a.63.63,0,0,0,0-1.25.63.63,0,0,0,0,1.25Z"/><path class="cls-3" d="M298.1,76.86a.63.63,0,0,0,0-1.25.63.63,0,0,0,0,1.25Z"/><path class="cls-3" d="M279.42,71.61a.63.63,0,0,0,0-1.25.63.63,0,0,0,0,1.25Z"/><path class="cls-3" d="M305.1,66.94a.63.63,0,0,0,0-1.25.63.63,0,0,0,0,1.25Z"/><path class="cls-3" d="M291.09,78a.63.63,0,0,0,0-1.25.63.63,0,0,0,0,1.25Z"/><path class="cls-3" d="M294,66.35a.63.63,0,0,0,0-1.25.63.63,0,0,0,0,1.25Z"/><path class="cls-3" d="M286.43,74.52a.63.63,0,0,0,0-1.25.63.63,0,0,0,0,1.25Z"/><path class="cls-3" d="M285.26,78a.63.63,0,0,0,0-1.25.63.63,0,0,0,0,1.25Z"/><path class="cls-3" d="M311.52,77.44a.63.63,0,0,0,0-1.25.63.63,0,0,0,0,1.25Z"/><path class="cls-3" d="M294.6,87.36a.63.63,0,0,0,0-1.25.63.63,0,0,0,0,1.25Z"/><path class="cls-3" d="M285.26,89.7a.63.63,0,0,0,0-1.25.63.63,0,0,0,0,1.25Z"/><path class="cls-3" d="M298.1,89.7a.63.63,0,0,0,0-1.25.63.63,0,0,0,0,1.25Z"/><path class="cls-3" d="M279.42,97.29a.63.63,0,0,0,0-1.25.63.63,0,0,0,0,1.25Z"/><path class="cls-3" d="M288.18,104.29a.63.63,0,0,0,0-1.25.63.63,0,0,0,0,1.25Z"/><path class="cls-3" d="M317.94,99a.63.63,0,0,0,0-1.25.63.63,0,0,0,0,1.25Z"/><path class="cls-3" d="M291.68,102.54a.63.63,0,0,0,0-1.25.63.63,0,0,0,0,1.25Z"/><path class="cls-3" d="M282.34,110.13a.63.63,0,0,0,0-1.25.63.63,0,0,0,0,1.25Z"/><path class="cls-3" d="M274.17,130.55a.63.63,0,0,0,0-1.25.63.63,0,0,0,0,1.25Z"/><path class="cls-3" d="M270.67,132.89a.63.63,0,0,0,0-1.25.63.63,0,0,0,0,1.25Z"/><path class="cls-3" d="M268.92,122.38a.63.63,0,0,0,0-1.25.63.63,0,0,0,0,1.25Z"/><path class="cls-3" d="M261.33,132.3a.63.63,0,0,0,0-1.25.63.63,0,0,0,0,1.25Z"/><path class="cls-3" d="M253.16,124.13a.63.63,0,0,0,0-1.25.63.63,0,0,0,0,1.25Z"/><path class="cls-3" d="M247.32,123a.63.63,0,0,0,0-1.25.63.63,0,0,0,0,1.25Z"/><path class="cls-3" d="M272.42,118.3a.63.63,0,0,0,0-1.25.63.63,0,0,0,0,1.25Z"/><path class="cls-3" d="M244.4,120.05a.63.63,0,0,0,0-1.25.63.63,0,0,0,0,1.25Z"/><path class="cls-3" d="M256.66,117.71a.63.63,0,0,0,0-1.25.63.63,0,0,0,0,1.25Z"/><path class="cls-3" d="M277.67,100.79a.63.63,0,0,0,0-1.25.63.63,0,0,0,0,1.25Z"/><path class="cls-3" d="M247.32,113.63h1.17a.63.63,0,0,0,0-1.25h-1.17a.63.63,0,0,0,0,1.25Z"/><path class="cls-3" d="M287.59,107.79a.63.63,0,0,0,0-1.25.63.63,0,0,0,0,1.25Z"/><path class="cls-3" d="M270.67,109.54a.63.63,0,0,0,0-1.25.63.63,0,0,0,0,1.25Z"/><path class="cls-3" d="M277.09,107.79a.63.63,0,0,0,0-1.25.63.63,0,0,0,0,1.25Z"/><path class="cls-3" d="M239.73,111.29a.63.63,0,0,0,0-1.25.63.63,0,0,0,0,1.25Z"/><path class="cls-3" d="M273.59,103.12a.63.63,0,0,0,0-1.25.63.63,0,0,0,0,1.25Z"/><path class="cls-3" d="M262.5,104.87a.63.63,0,0,0,0-1.25.63.63,0,0,0,0,1.25Z"/><path class="cls-3" d="M284.67,95a.63.63,0,0,0,0-1.25.63.63,0,0,0,0,1.25Z"/><path class="cls-3" d="M250.24,98.45a.63.63,0,0,0,0-1.25.63.63,0,0,0,0,1.25Z"/><path class="cls-3" d="M285.84,94.37a.63.63,0,0,0,0-1.25.63.63,0,0,0,0,1.25Z"/><path class="cls-3" d="M265.41,97.87a.63.63,0,0,0,0-1.25.63.63,0,0,0,0,1.25Z"/><path class="cls-3" d="M277.23,86.3l-.58.58a.62.62,0,0,0,.88.88l.58-.58a.62.62,0,0,0-.88-.88Z"/><path class="cls-3" d="M248.49,95a.63.63,0,0,0,0-1.25.63.63,0,0,0,0,1.25Z"/><path class="cls-3" d="M266,90.28A.63.63,0,0,0,266,89a.63.63,0,0,0,0,1.25Z"/><path class="cls-3" d="M253.74,92.62a.63.63,0,0,0,0-1.25.63.63,0,0,0,0,1.25Z"/><path class="cls-3" d="M281.76,83.86a.63.63,0,0,0,0-1.25.63.63,0,0,0,0,1.25Z"/><path class="cls-3" d="M253.74,88a.63.63,0,0,0,0-1.25.63.63,0,0,0,0,1.25Z"/><path class="cls-3" d="M270.67,83.86a.63.63,0,0,0,0-1.25.63.63,0,0,0,0,1.25Z"/><path class="cls-3" d="M258.41,86.2a.63.63,0,0,0,0-1.25.63.63,0,0,0,0,1.25Z"/><path class="cls-3" d="M266,83.86a.63.63,0,0,0,0-1.25.63.63,0,0,0,0,1.25Z"/><path class="cls-3" d="M270.67,79.19a.63.63,0,0,0,0-1.25.63.63,0,0,0,0,1.25Z"/><path class="cls-3" d="M251.41,84.45a.63.63,0,0,0,0-1.25.63.63,0,0,0,0,1.25Z"/><path class="cls-3" d="M295.76,75.69a.63.63,0,0,0,0-1.25.63.63,0,0,0,0,1.25Z"/><path class="cls-3" d="M260.75,78a.63.63,0,0,0,0-1.25.63.63,0,0,0,0,1.25Z"/><path class="cls-3" d="M291.09,72.77a.63.63,0,0,0,0-1.25.63.63,0,0,0,0,1.25Z"/><path class="cls-3" d="M277.67,76.86a.63.63,0,0,0,0-1.25.63.63,0,0,0,0,1.25Z"/><path class="cls-3" d="M274.17,76.86a.63.63,0,0,0,0-1.25.63.63,0,0,0,0,1.25Z"/><path class="cls-3" d="M271.83,74.52a.63.63,0,0,0,0-1.25.63.63,0,0,0,0,1.25Z"/><path class="cls-3" d="M257.83,73.36a.63.63,0,0,0,0-1.25.63.63,0,0,0,0,1.25Z"/><path class="cls-3" d="M306.27,65.77a.63.63,0,0,0,0-1.25.63.63,0,0,0,0,1.25Z"/><path class="cls-3" d="M260.75,65.19a.63.63,0,0,0,0-1.25.63.63,0,0,0,0,1.25Z"/><path class="cls-3" d="M312.69,58.1h-1.17a.63.63,0,0,0,0,1.25h1.17a.63.63,0,0,0,0-1.25Z"/><path class="cls-3" d="M282.92,65.19a.63.63,0,0,0,0-1.25.63.63,0,0,0,0,1.25Z"/><path class="cls-3" d="M296.35,64.6a.63.63,0,0,0,0-1.25.63.63,0,0,0,0,1.25Z"/><path class="cls-3" d="M277.09,68.1a.63.63,0,0,0,0-1.25.63.63,0,0,0,0,1.25Z"/><path class="cls-3" d="M247.32,70.44a.63.63,0,0,0,0-1.25.63.63,0,0,0,0,1.25Z"/><path class="cls-3" d="M281.76,66.94a.63.63,0,0,0,0-1.25.63.63,0,0,0,0,1.25Z"/><path class="cls-3" d="M268.33,69.27a.63.63,0,0,0,0-1.25.63.63,0,0,0,0,1.25Z"/><path class="cls-3" d="M284.09,66.35a.63.63,0,0,0,0-1.25.63.63,0,0,0,0,1.25Z"/><path class="cls-3" d="M308,66.94a.63.63,0,0,0,0-1.25.63.63,0,0,0,0,1.25Z"/><path class="cls-3" d="M271.83,68.69a.63.63,0,0,0,0-1.25.63.63,0,0,0,0,1.25Z"/><path class="cls-3" d="M332.53,139.89a.63.63,0,0,0,0-1.25.63.63,0,0,0,0,1.25Z"/><path class="cls-3" d="M298.68,146.89a.63.63,0,0,0,0-1.25.63.63,0,0,0,0,1.25Z"/><path class="cls-3" d="M336.62,141.64a.63.63,0,0,0,0-1.25.63.63,0,0,0,0,1.25Z"/><path class="cls-3" d="M312.11,141.64a.63.63,0,0,0,0-1.25.63.63,0,0,0,0,1.25Z"/><path class="cls-3" d="M328.45,138.14a.63.63,0,0,0,0-1.25.63.63,0,0,0,0,1.25Z"/><path class="cls-3" d="M309.77,140.47a.63.63,0,0,0,0-1.25.63.63,0,0,0,0,1.25Z"/><path class="cls-3" d="M318.53,140.47a.63.63,0,0,0,0-1.25.63.63,0,0,0,0,1.25Z"/><path class="cls-3" d="M298.68,141.64a.63.63,0,0,0,0-1.25.63.63,0,0,0,0,1.25Z"/><path class="cls-3" d="M294.6,141.06a.63.63,0,0,0,0-1.25.63.63,0,0,0,0,1.25Z"/><path class="cls-3" d="M271.25,141.06a.63.63,0,0,0,0-1.25.63.63,0,0,0,0,1.25Z"/><path class="cls-3" d="M280,148.06a.63.63,0,0,0,0-1.25.63.63,0,0,0,0,1.25Z"/><path class="cls-3" d="M290.51,140.47a.63.63,0,0,0,0-1.25.63.63,0,0,0,0,1.25Z"/><path class="cls-3" d="M281.17,139.89a.63.63,0,0,0,0-1.25.63.63,0,0,0,0,1.25Z"/><path class="cls-3" d="M294.6,137.56a.63.63,0,0,0,0-1.25.63.63,0,0,0,0,1.25Z"/><path class="cls-3" d="M272.42,144a.63.63,0,0,0,0-1.25.63.63,0,0,0,0,1.25Z"/><path class="cls-3" d="M268.92,146.31a.63.63,0,0,0,0-1.25.63.63,0,0,0,0,1.25Z"/><path class="cls-3" d="M270.67,151a.63.63,0,0,0,0-1.25.63.63,0,0,0,0,1.25Z"/><path class="cls-3" d="M243.24,144a.63.63,0,0,0,0-1.25.63.63,0,0,0,0,1.25Z"/><path class="cls-3" d="M255.49,147.48a.63.63,0,0,0,0-1.25.63.63,0,0,0,0,1.25Z"/><path class="cls-3" d="M243.82,138.72a.63.63,0,0,0,0-1.25.63.63,0,0,0,0,1.25Z"/><path class="cls-3" d="M256.66,137a.63.63,0,0,0,0-1.25.63.63,0,0,0,0,1.25Z"/><path class="cls-3" d="M232.73,134.05a.63.63,0,0,0,0-1.25.63.63,0,0,0,0,1.25Z"/><path class="cls-3" d="M245.57,130a.63.63,0,0,0,0-1.25.63.63,0,0,0,0,1.25Z"/><path class="cls-3" d="M240.32,132.3a.63.63,0,0,0,0-1.25.63.63,0,0,0,0,1.25Z"/><path class="cls-3" d="M250.82,131.14a.63.63,0,0,0,0-1.25.63.63,0,0,0,0,1.25Z"/><path class="cls-3" d="M250.24,132.89a.63.63,0,0,0,0-1.25.63.63,0,0,0,0,1.25Z"/><path class="cls-3" d="M251.41,137a.63.63,0,0,0,0-1.25.63.63,0,0,0,0,1.25Z"/><path class="cls-3" d="M255.49,142.81a.63.63,0,0,0,0-1.25.63.63,0,0,0,0,1.25Z"/><path class="cls-3" d="M261.91,151a.63.63,0,0,0,0-1.25.63.63,0,0,0,0,1.25Z"/><path class="cls-3" d="M259.58,160.32a.63.63,0,0,0,0-1.25.63.63,0,0,0,0,1.25Z"/><path class="cls-3" d="M274.17,162.07a.63.63,0,0,0,0-1.25.63.63,0,0,0,0,1.25Z"/><path class="cls-3" d="M276.5,160.9a.63.63,0,0,0,0-1.25.63.63,0,0,0,0,1.25Z"/><path class="cls-3" d="M294,157.4a.63.63,0,0,0,0-1.25.63.63,0,0,0,0,1.25Z"/><path class="cls-3" d="M288.18,160.32a.63.63,0,0,0,0-1.25.63.63,0,0,0,0,1.25Z"/><path class="cls-3" d="M297.51,166.74a.63.63,0,0,0,0-1.25.63.63,0,0,0,0,1.25Z"/><path class="cls-3" d="M281.76,152.73a.63.63,0,0,0,0-1.25.63.63,0,0,0,0,1.25Z"/><path class="cls-3" d="M285.84,148.06a.63.63,0,0,0,0-1.25.63.63,0,0,0,0,1.25Z"/><path class="cls-3" d="M295.76,157.4a.63.63,0,0,0,0-1.25.63.63,0,0,0,0,1.25Z"/><path class="cls-3" d="M303.93,152.15a.63.63,0,0,0,0-1.25.63.63,0,0,0,0,1.25Z"/><path class="cls-3" d="M303.35,162.65a.63.63,0,0,0,0-1.25.63.63,0,0,0,0,1.25Z"/><path class="cls-3" d="M309.77,160.32a.63.63,0,0,0,0-1.25.63.63,0,0,0,0,1.25Z"/><path class="cls-3" d="M314.44,154.48a.63.63,0,0,0,0-1.25.63.63,0,0,0,0,1.25Z"/><path class="cls-3" d="M319.11,156.82a.63.63,0,0,0,0-1.25.63.63,0,0,0,0,1.25Z"/><path class="cls-3" d="M336,156.82a.63.63,0,0,0,0-1.25.63.63,0,0,0,0,1.25Z"/><path class="cls-3" d="M312,151.38l.59-.58a.63.63,0,0,0-.89-.89l-.58.59a.62.62,0,0,0,.88.88Z"/><path class="cls-3" d="M346,150.4a.63.63,0,0,0,0-1.25.63.63,0,0,0,0,1.25Z"/><path class="cls-3" d="M329,153.9a.63.63,0,0,0,0-1.25.63.63,0,0,0,0,1.25Z"/><path class="cls-3" d="M327.86,169.66a.63.63,0,0,0,0-1.25.63.63,0,0,0,0,1.25Z"/><path class="cls-3" d="M329,156.82a.63.63,0,0,0,0-1.25.63.63,0,0,0,0,1.25Z"/><path class="cls-3" d="M325,157.4a.63.63,0,0,0,0-1.25.63.63,0,0,0,0,1.25Z"/><path class="cls-3" d="M325,151.56a.63.63,0,0,0,0-1.25.63.63,0,0,0,0,1.25Z"/><path class="cls-3" d="M354.71,148.65a.63.63,0,0,0,0-1.25.63.63,0,0,0,0,1.25Z"/><path class="cls-3" d="M336,153.9a.63.63,0,0,0,0-1.25.63.63,0,0,0,0,1.25Z"/><path class="cls-3" d="M315,145.73a.63.63,0,0,0,0-1.25.63.63,0,0,0,0,1.25Z"/><path class="cls-3" d="M342.45,142.23a.63.63,0,0,0,0-1.25.63.63,0,0,0,0,1.25Z"/><path class="cls-3" d="M347.71,137.56a.63.63,0,0,0,0-1.25.63.63,0,0,0,0,1.25Z"/><path class="cls-3" d="M335.45,131.72a.63.63,0,0,0,0-1.25.63.63,0,0,0,0,1.25Z"/><path class="cls-3" d="M371.05,128.8a.63.63,0,0,0,0-1.25.63.63,0,0,0,0,1.25Z"/><path class="cls-3" d="M355.29,133.47a.63.63,0,0,0,0-1.25.63.63,0,0,0,0,1.25Z"/><path class="cls-3" d="M352.38,133.47a.63.63,0,0,0,0-1.25.63.63,0,0,0,0,1.25Z"/><path class="cls-3" d="M347.71,133.47a.63.63,0,0,0,0-1.25.63.63,0,0,0,0,1.25Z"/><path class="cls-3" d="M360.55,135.22a.63.63,0,0,0,0-1.25.63.63,0,0,0,0,1.25Z"/><path class="cls-3" d="M358.8,137.56a.63.63,0,0,0,0-1.25.63.63,0,0,0,0,1.25Z"/><path class="cls-3" d="M347.71,143.39a.63.63,0,0,0,0-1.25.63.63,0,0,0,0,1.25Z"/><path class="cls-3" d="M350,149.23a.63.63,0,0,0,0-1.25.63.63,0,0,0,0,1.25Z"/><path class="cls-3" d="M367,158a.63.63,0,0,0,0-1.25.63.63,0,0,0,0,1.25Z"/><path class="cls-3" d="M366.38,151a.63.63,0,0,0,0-1.25.63.63,0,0,0,0,1.25Z"/><path class="cls-3" d="M361.71,145.73a.63.63,0,0,0,0-1.25.63.63,0,0,0,0,1.25Z"/><path class="cls-3" d="M374,137.56a.63.63,0,0,0,0-1.25.63.63,0,0,0,0,1.25Z"/><path class="cls-3" d="M360.55,136.39a.63.63,0,0,0,0-1.25.63.63,0,0,0,0,1.25Z"/><path class="cls-3" d="M372.22,132.89a.63.63,0,0,0,0-1.25.63.63,0,0,0,0,1.25Z"/><path class="cls-3" d="M367.55,146.89a.63.63,0,0,0,0-1.25.63.63,0,0,0,0,1.25Z"/><path class="cls-3" d="M369.3,137a.63.63,0,0,0,0-1.25.63.63,0,0,0,0,1.25Z"/><path class="cls-3" d="M367,130.55a.63.63,0,0,0,0-1.25.63.63,0,0,0,0,1.25Z"/><path class="cls-3" d="M374.55,119.46a.63.63,0,0,0,0-1.25.63.63,0,0,0,0,1.25Z"/><path class="cls-3" d="M365.8,120.05a.63.63,0,0,0,0-1.25.63.63,0,0,0,0,1.25Z"/><path class="cls-3" d="M392.06,113a.63.63,0,0,0,0-1.25.63.63,0,0,0,0,1.25Z"/><path class="cls-3" d="M371.05,110.71a.63.63,0,0,0,0-1.25.63.63,0,0,0,0,1.25Z"/><path class="cls-3" d="M409.57,102a.63.63,0,0,0,0-1.25.63.63,0,0,0,0,1.25Z"/><path class="cls-3" d="M361.13,106.62a.63.63,0,0,0,0-1.25.63.63,0,0,0,0,1.25Z"/><path class="cls-3" d="M371.05,103.12a.63.63,0,0,0,0-1.25.63.63,0,0,0,0,1.25Z"/><path class="cls-3" d="M378.64,99.62a.63.63,0,0,0,0-1.25.63.63,0,0,0,0,1.25Z"/><path class="cls-3" d="M379.81,98.45a.63.63,0,0,0,0-1.25.63.63,0,0,0,0,1.25Z"/><path class="cls-3" d="M380.39,97.87a.63.63,0,0,0,0-1.25.63.63,0,0,0,0,1.25Z"/><path class="cls-3" d="M389.15,98.45a.63.63,0,0,0,0-1.25.63.63,0,0,0,0,1.25Z"/><path class="cls-3" d="M365.8,114.79a.63.63,0,0,0,0-1.25.63.63,0,0,0,0,1.25Z"/><path class="cls-3" d="M399.65,108.37a.63.63,0,0,0,0-1.25.63.63,0,0,0,0,1.25Z"/><path class="cls-3" d="M383.31,110.71a.63.63,0,0,0,0-1.25.63.63,0,0,0,0,1.25Z"/><path class="cls-3" d="M389.15,102.54a.63.63,0,0,0,0-1.25.63.63,0,0,0,0,1.25Z"/><path class="cls-3" d="M384.48,103.71a.63.63,0,0,0,0-1.25.63.63,0,0,0,0,1.25Z"/><path class="cls-3" d="M372.8,107.21a.63.63,0,0,0,0-1.25.63.63,0,0,0,0,1.25Z"/><path class="cls-3" d="M383.31,102.54a.63.63,0,0,0,0-1.25.63.63,0,0,0,0,1.25Z"/><path class="cls-3" d="M376.31,96.12a.63.63,0,0,0,0-1.25.63.63,0,0,0,0,1.25Z"/><path class="cls-3" d="M385.64,90.28a.63.63,0,0,0,0-1.25.63.63,0,0,0,0,1.25Z"/><path class="cls-3" d="M381.56,90.28a.63.63,0,0,0,0-1.25.63.63,0,0,0,0,1.25Z"/><path class="cls-3" d="M375.14,88.53a.63.63,0,0,0,0-1.25.63.63,0,0,0,0,1.25Z"/><path class="cls-3" d="M368.72,81.53a.63.63,0,0,0,0-1.25.63.63,0,0,0,0,1.25Z"/><path class="cls-3" d="M374.55,78.61a.63.63,0,0,0,0-1.25.63.63,0,0,0,0,1.25Z"/><path class="cls-3" d="M364.63,96.7a.63.63,0,0,0,0-1.25.63.63,0,0,0,0,1.25Z"/><path class="cls-3" d="M361.71,84.45a.63.63,0,0,0,0-1.25.63.63,0,0,0,0,1.25Z"/><path class="cls-3" d="M352.38,86.2a.63.63,0,0,0,0-1.25.63.63,0,0,0,0,1.25Z"/><path class="cls-3" d="M373.39,85a.63.63,0,0,0,0-1.25.63.63,0,0,0,0,1.25Z"/><path class="cls-3" d="M379.22,83.86a.63.63,0,0,0,0-1.25.63.63,0,0,0,0,1.25Z"/><path class="cls-3" d="M389.73,85.61a.63.63,0,0,0,0-1.25.63.63,0,0,0,0,1.25Z"/><path class="cls-3" d="M392.06,94.37a.63.63,0,0,0,0-1.25.63.63,0,0,0,0,1.25Z"/><path class="cls-3" d="M392.65,96.12a.63.63,0,0,0,0-1.25.63.63,0,0,0,0,1.25Z"/><path class="cls-3" d="M390.9,103.71a.63.63,0,0,0,0-1.25.63.63,0,0,0,0,1.25Z"/><path class="cls-3" d="M377.47,111.29a.63.63,0,0,0,0-1.25.63.63,0,0,0,0,1.25Z"/><path class="cls-3" d="M377.47,113a.63.63,0,0,0,0-1.25.63.63,0,0,0,0,1.25Z"/><path class="cls-3" d="M381.56,120.63a.63.63,0,0,0,0-1.25.63.63,0,0,0,0,1.25Z"/><path class="cls-3" d="M378.06,128.22a.63.63,0,0,0,0-1.25.63.63,0,0,0,0,1.25Z"/><path class="cls-3" d="M376.89,132.89a.63.63,0,0,0,0-1.25.63.63,0,0,0,0,1.25Z"/><path class="cls-3" d="M381,136.39a.63.63,0,0,0,0-1.25.63.63,0,0,0,0,1.25Z"/><path class="cls-3" d="M390.31,135.22a.63.63,0,0,0,0-1.25.63.63,0,0,0,0,1.25Z"/><path class="cls-3" d="M385.06,128.22a.63.63,0,0,0,0-1.25.63.63,0,0,0,0,1.25Z"/><path class="cls-3" d="M385.36,127.52l1.75-1.16c.67-.45,0-1.53-.63-1.08l-1.75,1.17c-.67.44,0,1.52.63,1.07Z"/><path class="cls-3" d="M396.15,122.38a.63.63,0,0,0,0-1.25.63.63,0,0,0,0,1.25Z"/><path class="cls-3" d="M398.48,118.88a.63.63,0,0,0,0-1.25.63.63,0,0,0,0,1.25Z"/><path class="cls-3" d="M385.06,122.38a.63.63,0,0,0,0-1.25.63.63,0,0,0,0,1.25Z"/><path class="cls-3" d="M395.57,135.22a.63.63,0,0,0,0-1.25.63.63,0,0,0,0,1.25Z"/><path class="cls-3" d="M393.23,123.55a.63.63,0,0,0,0-1.25.63.63,0,0,0,0,1.25Z"/><path class="cls-3" d="M385.06,128.22a.63.63,0,0,0,0-1.25.63.63,0,0,0,0,1.25Z"/><path class="cls-3" d="M393.23,130.55a.63.63,0,0,0,0-1.25.63.63,0,0,0,0,1.25Z"/><path class="cls-3" d="M386.81,132.3a.63.63,0,0,0,0-1.25.63.63,0,0,0,0,1.25Z"/><path class="cls-3" d="M384.48,139.89a.63.63,0,0,0,0-1.25.63.63,0,0,0,0,1.25Z"/><path class="cls-3" d="M394.4,147.48a.63.63,0,0,0,0-1.25.63.63,0,0,0,0,1.25Z"/><path class="cls-3" d="M383.31,146.89a.63.63,0,0,0,0-1.25.63.63,0,0,0,0,1.25Z"/><path class="cls-3" d="M374,143.39a.63.63,0,0,0,0-1.25.63.63,0,0,0,0,1.25Z"/><path class="cls-3" d="M373.39,143.39a.63.63,0,0,0,0-1.25.63.63,0,0,0,0,1.25Z"/><path class="cls-3" d="M357.05,145.14a.63.63,0,0,0,0-1.25.63.63,0,0,0,0,1.25Z"/><path class="cls-3" d="M357.05,145.14a.63.63,0,0,0,0-1.25.63.63,0,0,0,0,1.25Z"/><path class="cls-3" d="M344.21,149.81a.63.63,0,0,0,0-1.25.63.63,0,0,0,0,1.25Z"/><path class="cls-3" d="M341.87,149.81a.63.63,0,0,0,0-1.25.63.63,0,0,0,0,1.25Z"/><path class="cls-3" d="M344.21,158a.63.63,0,0,0,0-1.25.63.63,0,0,0,0,1.25Z"/><path class="cls-3" d="M350.63,156.82a.63.63,0,0,0,0-1.25.63.63,0,0,0,0,1.25Z"/><path class="cls-3" d="M349.46,159.73a.63.63,0,0,0,0-1.25.63.63,0,0,0,0,1.25Z"/><path class="cls-3" d="M348.87,167.91a.63.63,0,0,0,0-1.25.63.63,0,0,0,0,1.25Z"/><path class="cls-3" d="M340.7,172a.63.63,0,0,0,0-1.25.63.63,0,0,0,0,1.25Z"/><path class="cls-3" d="M337.79,170.82a.63.63,0,0,0,0-1.25.63.63,0,0,0,0,1.25Z"/><path class="cls-3" d="M332.53,165a.63.63,0,0,0,0-1.25.63.63,0,0,0,0,1.25Z"/><path class="cls-3" d="M312.69,168.49a.63.63,0,0,0,0-1.25.63.63,0,0,0,0,1.25Z"/><path class="cls-3" d="M327.86,163.82a.63.63,0,0,0,0-1.25.63.63,0,0,0,0,1.25Z"/><path class="cls-3" d="M320.86,165.57a.63.63,0,0,0,0-1.25.63.63,0,0,0,0,1.25Z"/><path class="cls-3" d="M330.78,160.9a.63.63,0,0,0,0-1.25.63.63,0,0,0,0,1.25Z"/><path class="cls-3" d="M329,160.32a.63.63,0,0,0,0-1.25.63.63,0,0,0,0,1.25Z"/><path class="cls-3" d="M316.77,162.07a.63.63,0,0,0,0-1.25.63.63,0,0,0,0,1.25Z"/><path class="cls-3" d="M332.53,169.07a.63.63,0,0,0,0-1.25.63.63,0,0,0,0,1.25Z"/><path class="cls-3" d="M319.69,172.57a.63.63,0,0,0,0-1.25.63.63,0,0,0,0,1.25Z"/><path class="cls-3" d="M307.44,174.33a.63.63,0,0,0,0-1.25.63.63,0,0,0,0,1.25Z"/><path class="cls-3" d="M315,177.83a.63.63,0,0,0,0-1.25.63.63,0,0,0,0,1.25Z"/><path class="cls-3" d="M340.12,181.33a.63.63,0,0,0,0-1.25.63.63,0,0,0,0,1.25Z"/><path class="cls-3" d="M343,181.33a.63.63,0,0,0,0-1.25.63.63,0,0,0,0,1.25Z"/><path class="cls-3" d="M348.29,180.75a.63.63,0,0,0,0-1.25.63.63,0,0,0,0,1.25Z"/><path class="cls-3" d="M387.39,180.16a.63.63,0,0,0,0-1.25.63.63,0,0,0,0,1.25Z"/><path class="cls-3" d="M239.73,146.31a.63.63,0,0,0,0-1.25.63.63,0,0,0,0,1.25Z"/><path class="cls-3" d="M246.15,156.82a.63.63,0,0,0,0-1.25.63.63,0,0,0,0,1.25Z"/><path class="cls-3" d="M220.47,150.4a.63.63,0,0,0,0-1.25.63.63,0,0,0,0,1.25Z"/><path class="cls-3" d="M270.08,146.89a.63.63,0,0,0,0-1.25.63.63,0,0,0,0,1.25Z"/><path class="cls-3" d="M259,152.73a.63.63,0,0,0,0-1.25.63.63,0,0,0,0,1.25Z"/><path class="cls-3" d="M285.26,169.66a.63.63,0,0,0,0-1.25.63.63,0,0,0,0,1.25Z"/><path class="cls-3" d="M290.51,166.74a.63.63,0,0,0,0-1.25.63.63,0,0,0,0,1.25Z"/><path class="cls-3" d="M277.09,167.91a.63.63,0,0,0,0-1.25.63.63,0,0,0,0,1.25Z"/><path class="cls-3" d="M254.33,169.66a.63.63,0,0,0,0-1.25.63.63,0,0,0,0,1.25Z"/><path class="cls-3" d="M278.84,168.49a.63.63,0,0,0,0-1.25.63.63,0,0,0,0,1.25Z"/><path class="cls-3" d="M258.41,172a.63.63,0,0,0,0-1.25.63.63,0,0,0,0,1.25Z"/><path class="cls-3" d="M263.66,164.4a.63.63,0,0,0,0-1.25.63.63,0,0,0,0,1.25Z"/><path class="cls-3" d="M248.49,162.65a.63.63,0,0,0,0-1.25.63.63,0,0,0,0,1.25Z"/><path class="cls-3" d="M219.89,161.49a.63.63,0,0,0,0-1.25.63.63,0,0,0,0,1.25Z"/><path class="cls-3" d="M230.4,155.07a.63.63,0,0,0,0-1.25.63.63,0,0,0,0,1.25Z"/><path class="cls-3" d="M232.73,158a.63.63,0,0,0,0-1.25.63.63,0,0,0,0,1.25Z"/><path class="cls-3" d="M270.08,166.74a.63.63,0,0,0,0-1.25.63.63,0,0,0,0,1.25Z"/><path class="cls-3" d="M266,170.82a.63.63,0,0,0,0-1.25.63.63,0,0,0,0,1.25Z"/><path class="cls-3" d="M278.25,180.16a.63.63,0,0,0,0-1.25.63.63,0,0,0,0,1.25Z"/><path class="cls-3" d="M281.76,180.16a.63.63,0,0,0,0-1.25.63.63,0,0,0,0,1.25Z"/><path class="cls-3" d="M275.34,190.67a.63.63,0,0,0,0-1.25.63.63,0,0,0,0,1.25Z"/><path class="cls-3" d="M295.18,192.42a.63.63,0,0,0,0-1.25.63.63,0,0,0,0,1.25Z"/><path class="cls-3" d="M309.77,194.17a.63.63,0,0,0,0-1.25.63.63,0,0,0,0,1.25Z"/><path class="cls-3" d="M313.27,195.34a.63.63,0,0,0,0-1.25.63.63,0,0,0,0,1.25Z"/><path class="cls-3" d="M317.94,188.92a.63.63,0,0,0,0-1.25.63.63,0,0,0,0,1.25Z"/><path class="cls-3" d="M323.78,183.66a.63.63,0,0,0,0-1.25.63.63,0,0,0,0,1.25Z"/><path class="cls-3" d="M335.45,180.16a.63.63,0,0,0,0-1.25.63.63,0,0,0,0,1.25Z"/><path class="cls-3" d="M321.44,180.75a.63.63,0,0,0,0-1.25.63.63,0,0,0,0,1.25Z"/><path class="cls-3" d="M291.09,181.91a.63.63,0,0,0,0-1.25.63.63,0,0,0,0,1.25Z"/><path class="cls-3" d="M302.18,174.91a.63.63,0,0,0,0-1.25.63.63,0,0,0,0,1.25Z"/><path class="cls-3" d="M299.27,174.91a.63.63,0,0,0,0-1.25.63.63,0,0,0,0,1.25Z"/><path class="cls-3" d="M294.6,175.49a.63.63,0,0,0,0-1.25.63.63,0,0,0,0,1.25Z"/><path class="cls-3" d="M319.11,166.15a.63.63,0,0,0,0-1.25.63.63,0,0,0,0,1.25Z"/><path class="cls-3" d="M330.78,182.5h.59a.63.63,0,0,0,0-1.25h-.59a.63.63,0,0,0,0,1.25Z"/><path class="cls-3" d="M365.22,176.66a.63.63,0,0,0,0-1.25.63.63,0,0,0,0,1.25Z"/><path class="cls-3" d="M367.55,169.66a.63.63,0,0,0,0-1.25.63.63,0,0,0,0,1.25Z"/><path class="cls-3" d="M373.39,170.82a.63.63,0,0,0,0-1.25.63.63,0,0,0,0,1.25Z"/><path class="cls-3" d="M367,169.07a.63.63,0,0,0,0-1.25.63.63,0,0,0,0,1.25Z"/><path class="cls-3" d="M381.56,163.24a.63.63,0,0,0,0-1.25.63.63,0,0,0,0,1.25Z"/><path class="cls-3" d="M355.88,165a.63.63,0,0,0,0-1.25.63.63,0,0,0,0,1.25Z"/><path class="cls-3" d="M396.15,161.49a.63.63,0,0,0,0-1.25.63.63,0,0,0,0,1.25Z"/><path class="cls-3" d="M372.8,161.49a.63.63,0,0,0,0-1.25.63.63,0,0,0,0,1.25Z"/><path class="cls-3" d="M354.71,166.15a.63.63,0,0,0,0-1.25.63.63,0,0,0,0,1.25Z"/><path class="cls-3" d="M370.47,163.82a.63.63,0,0,0,0-1.25.63.63,0,0,0,0,1.25Z"/><path class="cls-3" d="M361.71,165a.63.63,0,0,0,0-1.25.63.63,0,0,0,0,1.25Z"/><path class="cls-3" d="M398.48,155.65a.63.63,0,0,0,0-1.25.63.63,0,0,0,0,1.25Z"/><path class="cls-3" d="M377.47,156.82a.63.63,0,0,0,0-1.25.63.63,0,0,0,0,1.25Z"/><path class="cls-3" d="M390.31,152.15a.63.63,0,0,0,0-1.25.63.63,0,0,0,0,1.25Z"/><path class="cls-3" d="M380.39,155.07H381a.63.63,0,0,0,0-1.25h-.58a.63.63,0,0,0,0,1.25Z"/><path class="cls-3" d="M397.32,156.23a.63.63,0,0,0,0-1.25.63.63,0,0,0,0,1.25Z"/><path class="cls-3" d="M390.31,162.07a.63.63,0,0,0,0-1.25.63.63,0,0,0,0,1.25Z"/><path class="cls-3" d="M387.39,156.23a.63.63,0,0,0,0-1.25.63.63,0,0,0,0,1.25Z"/><path class="cls-3" d="M384.48,149.23a.63.63,0,0,0,0-1.25.63.63,0,0,0,0,1.25Z"/><path class="cls-3" d="M390.9,143.39a.63.63,0,0,0,0-1.25.63.63,0,0,0,0,1.25Z"/><path class="cls-3" d="M396.15,138.72a.63.63,0,0,0,0-1.25.63.63,0,0,0,0,1.25Z"/><path class="cls-3" d="M400.82,134.05a.63.63,0,0,0,0-1.25.63.63,0,0,0,0,1.25Z"/><path class="cls-3" d="M403.15,130a.63.63,0,0,0,0-1.25.63.63,0,0,0,0,1.25Z"/><path class="cls-3" d="M405.49,127.05a.63.63,0,0,0,0-1.25.63.63,0,0,0,0,1.25Z"/><path class="cls-3" d="M407.82,121.21a.63.63,0,0,0,0-1.25.63.63,0,0,0,0,1.25Z"/><path class="cls-3" d="M407.82,114.79a.63.63,0,0,0,0-1.25.63.63,0,0,0,0,1.25Z"/><path class="cls-3" d="M404.9,110.71a.63.63,0,0,0,0-1.25.63.63,0,0,0,0,1.25Z"/><path class="cls-3" d="M400.82,103.12a.63.63,0,0,0,0-1.25.63.63,0,0,0,0,1.25Z"/><path class="cls-3" d="M400.82,95a.63.63,0,0,0,0-1.25.63.63,0,0,0,0,1.25Z"/><path class="cls-3" d="M400.23,93.78a.63.63,0,0,0,0-1.25.63.63,0,0,0,0,1.25Z"/><path class="cls-3" d="M394.4,66.94a.63.63,0,0,0,0-1.25.63.63,0,0,0,0,1.25Z"/><path class="cls-3" d="M372.8,67.52a.63.63,0,0,0,0-1.25.63.63,0,0,0,0,1.25Z"/><path class="cls-3" d="M365.22,64.6a.63.63,0,0,0,0-1.25.63.63,0,0,0,0,1.25Z"/><path class="cls-3" d="M353,63.43a.63.63,0,0,0,0-1.25.63.63,0,0,0,0,1.25Z"/><path class="cls-3" d="M360.55,50a.63.63,0,0,0,0-1.25.63.63,0,0,0,0,1.25Z"/><path class="cls-3" d="M343,53.51a.63.63,0,0,0,0-1.25.63.63,0,0,0,0,1.25Z"/><path class="cls-3" d="M359.38,53.51a.63.63,0,0,0,0-1.25.63.63,0,0,0,0,1.25Z"/><path class="cls-3" d="M353,57a.63.63,0,0,0,0-1.25A.63.63,0,0,0,353,57Z"/><path class="cls-3" d="M372.22,60.52a.63.63,0,0,0,0-1.25.63.63,0,0,0,0,1.25Z"/><path class="cls-3" d="M395.57,124.13a.63.63,0,0,0,0-1.25.63.63,0,0,0,0,1.25Z"/><path class="cls-3" d="M299.85,65.77a.63.63,0,0,0,0-1.25.63.63,0,0,0,0,1.25Z"/><path class="cls-3" d="M263.66,59.93a.63.63,0,0,0,0-1.25.63.63,0,0,0,0,1.25Z"/><path class="cls-3" d="M239.73,83.28a.63.63,0,0,0,0-1.25.63.63,0,0,0,0,1.25Z"/><path class="cls-3" d="M257.24,63.43a.63.63,0,0,0,0-1.25.63.63,0,0,0,0,1.25Z"/><path class="cls-3" d="M243.82,66.94a.63.63,0,0,0,0-1.25.63.63,0,0,0,0,1.25Z"/><path class="cls-3" d="M238,80.94a.63.63,0,0,0,0-1.25.63.63,0,0,0,0,1.25Z"/><path class="cls-3" d="M226.89,79.78a.63.63,0,0,0,0-1.25.63.63,0,0,0,0,1.25Z"/><path class="cls-3" d="M242.07,79.78a.63.63,0,0,0,0-1.25.63.63,0,0,0,0,1.25Z"/><path class="cls-3" d="M217,76.86a.63.63,0,0,0,0-1.25.63.63,0,0,0,0,1.25Z"/><path class="cls-3" d="M224,95a.63.63,0,0,0,0-1.25A.63.63,0,0,0,224,95Z"/><path class="cls-3" d="M204.72,98.45a.63.63,0,0,0,0-1.25.63.63,0,0,0,0,1.25Z"/><path class="cls-3" d="M231.56,94.37a.63.63,0,0,0,0-1.25.63.63,0,0,0,0,1.25Z"/><path class="cls-3" d="M217.56,96.12a.63.63,0,0,0,0-1.25.63.63,0,0,0,0,1.25Z"/><path class="cls-3" d="M232.73,90.28a.63.63,0,0,0,0-1.25.63.63,0,0,0,0,1.25Z"/><path class="cls-3" d="M220.47,97.87a.63.63,0,0,0,0-1.25.63.63,0,0,0,0,1.25Z"/><path class="cls-3" d="M237.4,98.45a.63.63,0,0,0,0-1.25.63.63,0,0,0,0,1.25Z"/><path class="cls-3" d="M222.81,105.46h.58a.63.63,0,0,0,0-1.25h-.58a.63.63,0,0,0,0,1.25Z"/><path class="cls-3" d="M233.9,103.12a.63.63,0,0,0,0-1.25.63.63,0,0,0,0,1.25Z"/><path class="cls-3" d="M229.81,106.62a.63.63,0,0,0,0-1.25.63.63,0,0,0,0,1.25Z"/><path class="cls-3" d="M229.23,112.46a.63.63,0,0,0,0-1.25.63.63,0,0,0,0,1.25Z"/><path class="cls-3" d="M240.9,114.21a.63.63,0,0,0,0-1.25.63.63,0,0,0,0,1.25Z"/><path class="cls-3" d="M226.89,118.88a.63.63,0,0,0,0-1.25.63.63,0,0,0,0,1.25Z"/><path class="cls-3" d="M226.89,118.88a.63.63,0,0,0,0-1.25.63.63,0,0,0,0,1.25Z"/><path class="cls-3" d="M242.07,110.71a.63.63,0,0,0,0-1.25.63.63,0,0,0,0,1.25Z"/><path class="cls-3" d="M236.23,110.13a.63.63,0,0,0,0-1.25.63.63,0,0,0,0,1.25Z"/><path class="cls-3" d="M238.57,114.21a.63.63,0,0,0,0-1.25.63.63,0,0,0,0,1.25Z"/><path class="cls-3" d="M243.24,119.46a.63.63,0,0,0,0-1.25.63.63,0,0,0,0,1.25Z"/><path class="cls-3" d="M233.9,117.71a.63.63,0,0,0,0-1.25.63.63,0,0,0,0,1.25Z"/><path class="cls-3" d="M231,116a.63.63,0,0,0,0-1.25.63.63,0,0,0,0,1.25Z"/><path class="cls-3" d="M231.56,109a.63.63,0,0,0,0-1.25.63.63,0,0,0,0,1.25Z"/><path class="cls-3" d="M222.81,109a.63.63,0,0,0,0-1.25.63.63,0,0,0,0,1.25Z"/><path class="cls-3" d="M236.82,102.54a.63.63,0,0,0,0-1.25.63.63,0,0,0,0,1.25Z"/><path class="cls-3" d="M284.67,107.21a.63.63,0,0,0,0-1.25.63.63,0,0,0,0,1.25Z"/><path class="cls-3" d="M300.43,104.87a.63.63,0,0,0,0-1.25.63.63,0,0,0,0,1.25Z"/><path class="cls-3" d="M298.68,103.71a.63.63,0,0,0,0-1.25.63.63,0,0,0,0,1.25Z"/><path class="cls-3" d="M295.18,107.79a.63.63,0,0,0,0-1.25.63.63,0,0,0,0,1.25Z"/><path class="cls-3" d="M295.18,96.12a.63.63,0,0,0,0-1.25.63.63,0,0,0,0,1.25Z"/><path class="cls-3" d="M289.93,104.87a.63.63,0,0,0,0-1.25.63.63,0,0,0,0,1.25Z"/><path class="cls-3" d="M298.68,106.62a.63.63,0,0,0,0-1.25.63.63,0,0,0,0,1.25Z"/><path class="cls-3" d="M296.93,103.12a.63.63,0,0,0,0-1.25.63.63,0,0,0,0,1.25Z"/><path class="cls-3" d="M286.43,106a.63.63,0,0,0,0-1.25.63.63,0,0,0,0,1.25Z"/><path class="cls-3" d="M295.18,110.71a.63.63,0,0,0,0-1.25.63.63,0,0,0,0,1.25Z"/><path class="cls-3" d="M299.27,109.54a.63.63,0,0,0,0-1.25.63.63,0,0,0,0,1.25Z"/><path class="cls-3" d="M294.6,118.3a.63.63,0,0,0,0-1.25.63.63,0,0,0,0,1.25Z"/><path class="cls-3" d="M283.51,112.46a.63.63,0,0,0,0-1.25.63.63,0,0,0,0,1.25Z"/><path class="cls-3" d="M293.43,108.37a.63.63,0,0,0,0-1.25.63.63,0,0,0,0,1.25Z"/><path class="cls-3" d="M294.6,107.21a.63.63,0,0,0,0-1.25.63.63,0,0,0,0,1.25Z"/><path class="cls-3" d="M298.1,102.54a.63.63,0,0,0,0-1.25.63.63,0,0,0,0,1.25Z"/><path class="cls-3" d="M301.6,100.2a.63.63,0,0,0,0-1.25.63.63,0,0,0,0,1.25Z"/><path class="cls-3" d="M286.43,48.84a.63.63,0,0,0,0-1.25.63.63,0,0,0,0,1.25Z"/><path class="cls-3" d="M275.34,57a.63.63,0,0,0,0-1.25.63.63,0,0,0,0,1.25Z"/><path class="cls-3" d="M288.18,49.43a.63.63,0,0,0,0-1.25.63.63,0,0,0,0,1.25Z"/><path class="cls-3" d="M285.84,51.18a.63.63,0,0,0,0-1.25.63.63,0,0,0,0,1.25Z"/><path class="cls-3" d="M282.34,53.51a.63.63,0,0,0,0-1.25.63.63,0,0,0,0,1.25Z"/><path class="cls-3" d="M279.42,47.68a.63.63,0,0,0,0-1.25.63.63,0,0,0,0,1.25Z"/><path class="cls-3" d="M289.34,48.26a.63.63,0,0,0,0-1.25.63.63,0,0,0,0,1.25Z"/><path class="cls-3" d="M297.37,47.49l.59-.58c.57-.57-.32-1.45-.89-.88l-.58.58a.62.62,0,0,0,.88.88Z"/><path class="cls-3" d="M307.44,43a.63.63,0,0,0,0-1.25.63.63,0,0,0,0,1.25Z"/><path class="cls-3" d="M299.27,60.52a.63.63,0,0,0,0-1.25.63.63,0,0,0,0,1.25Z"/><path class="cls-3" d="M309.77,59.93a.63.63,0,0,0,0-1.25.63.63,0,0,0,0,1.25Z"/><path class="cls-3" d="M303.93,48.26a.63.63,0,0,0,0-1.25.63.63,0,0,0,0,1.25Z"/><path class="cls-3" d="M306.27,44.17a.63.63,0,0,0,0-1.25.63.63,0,0,0,0,1.25Z"/><path class="cls-3" d="M311.52,43a.63.63,0,0,0,0-1.25.63.63,0,0,0,0,1.25Z"/><path class="cls-3" d="M296.35,36.59a.63.63,0,0,0,0-1.25.63.63,0,0,0,0,1.25Z"/><path class="cls-3" d="M275.34,53.51a.63.63,0,0,0,0-1.25.63.63,0,0,0,0,1.25Z"/></g></svg>