<svg id="Capa_1" data-name="Capa 1" xmlns="http://www.w3.org/2000/svg" xmlns:xlink="http://www.w3.org/1999/xlink" viewBox="0 0 200 200"><defs><style>


.home2-1,.home2-3 {

fill:none;

animation: home2 10s infinite linear;
transform-origin: 50% 50%;
}

    @keyframes home2 {
        from {transform: rotate(0deg)}
        to {transform: rotate(360deg)}  

}


.home2-2{

clip-path:url(#clip-path);
}

.home2-3{
stroke:#fff;
stroke-width:1.12px;
}


</style><clipPath id="clip-path"><rect class="home2-1" x="31.13" y="28.5" width="137.63" height="137.63"/></clipPath></defs><title>pantallas</title><rect x="0.5" y="0.5" width="199" height="199"/><path d="M199,1V199H1V1H199m1-1H0V200H200V0Z"/><g class="home2-2"><path class="home2-3" d="M96.84,150.52l-.7,15.57M91,150,88.23,165.3M85,148.4l-4.26,15m-2.11-17.31L72.21,160.3m.06-17.5L64.5,156.31m2.22-17.43-9.64,12.26m4.61-16.84L50.4,145.06m6.87-15.94-12.71,9m8.82-15.06-13.51,7.77M50.48,117,36,122.69m12.4-12.15-15.19,3.51M47.1,103.52l-15.47,2m15.11-8.69-15.59-.4m16.13-6.71-15.47-2m16.86-4.64-15-4.26m17.2-2.14-14.2-6.42m17.44,0L40.59,62.51m17.35,2.16L45.68,55m16.76,4.53L51.68,48.28m16.18,6.58L58.23,42.6m15.31,8.52L65.76,37.6M79.62,48.13,73.9,33.62M86.4,45.84l-4.26-15M93,44.56l-2-15.47m8.69,15,.39-15.58m6.73,16.05,2-15.47m4.66,16.75,4.26-15m2.52,17.28L126,33.62m.37,17.5,7.77-13.52M132,54.86l9.63-12.26m-4.21,17,10.76-11.28M142,64.67,154.22,55m-8.44,15.25,13.52-7.77M149,76.67l14.21-6.42m-12,12.82,15-4.26M152.61,89.68l15.47-2m-14.93,9.08,15.59-.4m-15.94,7.13,15.47,2m-16.76,5.06,15.2,3.51M149.41,117l14.51,5.72m-17.41.41L160,130.87m-17.41-1.75,12.71,9m-17.12-3.86,11.28,10.76m-16.31-6.18,9.63,12.26m-15.19-8.34,7.77,13.51m-14.13-10.22,6.42,14.21M114.9,148.4l4.26,15M107.92,150l2.75,15.35m-7.74-14.78.95,15.57"/></g></svg>