<svg id="Capa_1" data-name="Capa 1" xmlns="http://www.w3.org/2000/svg" viewBox="0 0 109 109"><defs><style>



.logo-1{
fill:none;
stroke:#fff;
stroke-miterlimit:10;
stroke-width:2px;
    

}

.logo-3 {
fill: #fff;
}
    
.logo-2{
fill:#fff;
animation: logo 10s infinite linear;
transform-origin: 50% 50%;
}


@keyframes logo {
from {transform: rotate(0deg)}
to {transform: rotate(360deg)}  

}






</style></defs><title>pantallas</title><circle class="logo-1" cx="55.24" cy="54.8" r="46"/><circle class="logo-2" cx="74.74" cy="13.3" r="8.7"/><path class="logo-3" d="M55,26.23c18.19,0,26.22,14.8,26.22,27.57v5.09H40.87c0,8.36,4.75,15.71,14.13,15.71A16.22,16.22,0,0,0,69.92,65L80,69c-5.43,10.74-12.1,16-25,16C36.35,85,28.44,69.29,28.44,55.61,28.44,42.16,36.35,26.23,55,26.23ZM68.78,49.06c-.9-6.33-5.31-12.44-13.78-12.44-7.8,0-12.66,5.2-13.9,12.44Z"/></svg>