<svg id="Capa_1" data-name="Capa 1" xmlns="http://www.w3.org/2000/svg" xmlns:xlink="http://www.w3.org/1999/xlink" viewBox="0 0 200 200"><defs><style>



.form3-1,.form3-3{
fill:none;

animation: form3 10s infinite linear;
transform-origin: 50% 50%;
}

    @keyframes form3 {
        from {transform: rotate(0deg)}
        to {transform: rotate(360deg)}  

}

.form3-2{
clip-path:url(#clip-path);
}
.form3-3{
stroke:#fff;
stroke-width:0.75px;
}
.form3-4{
clip-path:url(#clip-path-2);
}



</style><clipPath id="clip-path"><rect class="form3-1" x="74.11" y="73.66" width="52.62" height="52.62"/></clipPath><clipPath id="clip-path-2"><polygon class="form3-1" points="35.81 250.82 110.37 242.05 192.24 231.82 143.99 281.52 192.24 408.71 163 398.48 151.3 384.19 133.76 359.01 8.03 313.69 35.81 250.82"/></clipPath><clipPath id="clip-path-3"><path class="form3-1" d="M273.18,326.49c-19.48,9.49-30.37,6.37-38.5,13-10.41,8.51-1.43,20.85,7.09,32.56,9.53,13.1,18,24.71,34.7,27.58,30.9,5.31,67.35-23.08,73.19-27.63,21.27-16.57,25.89-32.42,35.14-64.11,10.1-34.61,4.05-45.41-3.23-53.09-2.93-3.09-21.38-22.53-48-23-20.78-.4-38.5,10.91-42.91,21.46C285.75,265,300.07,269.62,300,292c0,9.35-2.56,14.33-5,17.76C293.62,311.71,287.89,319.31,273.18,326.49Z"/></clipPath></defs><title>formas-cuadrado</title><rect x="0.5" y="0.5" width="199" height="199"/><path d="M199,1V199H1V1H199m1-1H0V200H200V0Z"/><g class="form3-2"><path class="form3-3" d="M100.18,122.2,96,125.61m2.14-3.52-4.47,3m2.39-3.33-4.57,2.64m2.62-3.12-4.82,2.2m2.92-2.85-5,1.74m3.19-2.57-5.19,1.26m3.43-2.24-5.29.77M87,117.69l-5.35.28m3.8-1.56-5.37-.23M84,114.92l-5.27-.66m4-.9-5.21-1.15m4.07-.51-5.06-1.55m4.07-.21-4.9-2m4.08.19-4.7-2.5m4,.59-4.46-2.94m4,1-4.17-3.37m3.88,1.39-3.86-3.78m3.74,1.68-3.51-4m3.59,2-3.14-4.3m3.39,2.31-2.72-4.6m3.14,2.63-2.27-4.85m2.88,2.94-1.81-5.07m2.63,3.13L79,85.21m2.33,3.38-.89-5.27m2,3.59L82,81.63m1.72,3.7,0-5.31m1.37,3.85.52-5.29m1,4,1-5.24m.61,4.06,1.51-5.13m.22,4.1,2-5m-.18,4.11,2.46-4.78m-.49,4.06,2.84-4.52m-.9,4L98.87,74m-1.2,3.9L101.26,74m-1.59,3.78,4-3.6m-2,3.62L106,74.55M103.77,78l4.52-2.82m-2.55,3.21L110.45,76m-2.78,3,4.93-2m-3.07,2.71,5.11-1.5m-3.31,2.41,5.24-1M113,81.66l5.33-.52m-3.73,1.74,5.37,0m-3.87,1.39,5.35.47m-3.94,1.09,5.25.9m-4,.71,5.15,1.39m-4.09.32,5,1.79m-4.08,0,4.81,2.26m-4.07-.39,4.58,2.72m-4-.79,4.32,3.16m-3.94-1.19,4,3.58m-3.81-1.49,3.69,3.78m-3.68-1.78,3.33,4.14m-3.49-2.14,2.93,4.46m-3.27-2.48,2.5,4.73m-3-2.79,2,5m-2.74-3.08,1.57,5.15M120,110.49l1.13,5.21M119,112.22l.65,5.3m-1.83-3.68.21,5.3m-1.54-3.78-.28,5.31M115,116.75l-.78,5.27m-.8-4-1.27,5.19m-.42-4.08L110,124.17m0-4.11-2.24,4.88m.39-4.1-2.71,4.66m.7-4-3,4.38m1-4L100.75,126"/></g><g class="form3-4"><path class="form3-5" d="M112.42,196.31a1.25,1.25,0,0,0,0-2.5,1.25,1.25,0,0,0,0,2.5Z"/><path class="form3-5" d="M62,191.93a1.25,1.25,0,0,0,0-2.5,1.25,1.25,0,0,0,0,2.5Z"/><path class="form3-5" d="M13.73,176.57a1.25,1.25,0,0,0,0-2.5,1.25,1.25,0,0,0,0,2.5Z"/><path class="form3-5" d="M33.47,196.31a1.25,1.25,0,0,0,0-2.5,1.25,1.25,0,0,0,0,2.5Z"/><path class="form3-5" d="M46.63,181a1.25,1.25,0,0,0,0-2.5,1.25,1.25,0,0,0,0,2.5Z"/><path class="form3-5" d="M77.33,172.19a1.25,1.25,0,0,0,0-2.5,1.25,1.25,0,0,0,0,2.5Z"/><path class="form3-5" d="M132.16,189.73a1.25,1.25,0,0,0,0-2.5,1.25,1.25,0,0,0,0,2.5Z"/><path class="form3-5" d="M191.38,196.31a1.25,1.25,0,0,0,0-2.5,1.25,1.25,0,0,0,0,2.5Z"/><path class="form3-5" d="M97.65,194a.63.63,0,0,0,0-1.25.63.63,0,0,0,0,1.25Z"/></g><g class="form3-6"><line class="form3-7" x1="193.67" y1="403.96" x2="343.56" y2="196.97"/><line class="form3-7" x1="180.66" y1="401.66" x2="330.54" y2="194.67"/><line class="form3-7" x1="167.64" y1="399.36" x2="317.53" y2="192.37"/><line class="form3-7" x1="154.63" y1="397.06" x2="304.51" y2="190.07"/><line class="form3-7" x1="141.61" y1="394.76" x2="291.5" y2="187.77"/><line class="form3-7" x1="188.52" y1="401.63" x2="338.4" y2="194.64"/><line class="form3-7" x1="175.5" y1="399.33" x2="325.39" y2="192.34"/><line class="form3-7" x1="162.49" y1="397.03" x2="312.37" y2="190.04"/><line class="form3-7" x1="149.47" y1="394.73" x2="299.36" y2="187.74"/><line class="form3-7" x1="136.46" y1="392.43" x2="286.34" y2="185.44"/></g></svg>