<svg id="Capa_1" data-name="Capa 1" xmlns="http://www.w3.org/2000/svg" xmlns:xlink="http://www.w3.org/1999/xlink" viewBox="0 0 200 200"><defs>

<style>

.project14-1,.cls-5{
fill:none;
}

.cls-2{
clip-path:url(#clip-path);
}

.cls-3{
fill:#c6c6c5;
}

.cls-3:nth-child(3n){
  animation: shiny 1s ease-in infinite alternate
}

    @keyframes shiny {
        
            from {opacity: 0}
            to {opacity:1}

}


.cls-4{
clip-path:url(#clip-path-2);
}

.cls-5{
stroke:#c6c6c5;
stroke-linecap:round;
stroke-miterlimit:10;
stroke-width:0.75px;
stroke-dasharray:1 6;

}

</style>

<clipPath id="clip-path"><path class="cls-1" d="M59.18,109.49c-19.48,9.49-30.37,6.37-38.5,13-10.41,8.51-1.43,20.85,7.09,32.56,9.53,13.1,18,24.71,34.7,27.58,30.9,5.31,67.35-23.08,73.19-27.63,21.27-16.57,25.89-32.42,35.14-64.11,10.1-34.61,4-45.41-3.23-53.09-2.93-3.09-21.38-22.53-48-23-20.78-.4-38.5,10.91-42.91,21.46C71.75,48,86.07,52.62,86,75c0,9.35-2.56,14.33-5,17.76C79.62,94.71,73.89,102.31,59.18,109.49Z"/></clipPath><clipPath id="clip-path-2"><polygon class="cls-1" points="-187.33 32.56 -112.77 23.79 -30.9 13.55 -79.14 63.26 -30.9 190.45 -60.13 180.22 -71.83 165.92 -89.38 140.74 -215.1 95.42 -187.33 32.56"/></clipPath></defs><title>formas-cuadrado</title><rect x="0.5" y="0.5" width="199" height="199"/><path d="M199,1V199H1V1H199m1-1H0V200H200V0Z"/><g class="cls-2"><path class="cls-3" d="M29.2,71.52a1.25,1.25,0,0,0,0-2.5,1.25,1.25,0,0,0,0,2.5Z"/><path class="cls-3" d="M81.33,56.86a1.25,1.25,0,0,0,0-2.5,1.25,1.25,0,0,0,0,2.5Z"/><path class="cls-3" d="M69.92,131.8a1.25,1.25,0,0,0,0-2.5,1.25,1.25,0,0,0,0,2.5Z"/><path class="cls-3" d="M34.09,91.07a1.25,1.25,0,0,0,0-2.5,1.25,1.25,0,0,0,0,2.5Z"/><path class="cls-3" d="M91.1,69.89a1.25,1.25,0,0,0,0-2.5,1.25,1.25,0,0,0,0,2.5Z"/><path class="cls-3" d="M68.3,94.33a1.25,1.25,0,0,0,0-2.5,1.25,1.25,0,0,0,0,2.5Z"/><path class="cls-3" d="M58.52,66.63a1.25,1.25,0,0,0,0-2.5,1.25,1.25,0,0,0,0,2.5Z"/><path class="cls-3" d="M14.54,37.31a1.25,1.25,0,0,0,0-2.5,1.25,1.25,0,0,0,0,2.5Z"/><path class="cls-3" d="M-.12,48.72a1.25,1.25,0,0,0,0-2.5,1.25,1.25,0,0,0,0,2.5Z"/><path class="cls-3" d="M29.2,91.07a1.25,1.25,0,0,0,0-2.5,1.25,1.25,0,0,0,0,2.5Z"/><path class="cls-3" d="M83,14.51A1.25,1.25,0,0,0,83,12a1.25,1.25,0,0,0,0,2.5Z"/><path class="cls-3" d="M34.09,50.34a1.25,1.25,0,0,0,0-2.5,1.25,1.25,0,0,0,0,2.5Z"/><path class="cls-3" d="M48.75,63.38a1.25,1.25,0,0,0,0-2.5,1.25,1.25,0,0,0,0,2.5Z"/><path class="cls-3" d="M32.46,92.7a1.25,1.25,0,0,0,0-2.5,1.25,1.25,0,0,0,0,2.5Z"/><path class="cls-3" d="M11.28,61.75a1.25,1.25,0,0,0,0-2.5,1.25,1.25,0,0,0,0,2.5Z"/><path class="cls-3" d="M11.28,86.18a1.25,1.25,0,0,0,0-2.5,1.25,1.25,0,0,0,0,2.5Z"/><path class="cls-3" d="M52,139.94a1.25,1.25,0,0,0,0-2.5,1.25,1.25,0,0,0,0,2.5Z"/><path class="cls-3" d="M48.75,94.33a1.25,1.25,0,0,0,0-2.5,1.25,1.25,0,0,0,0,2.5Z"/><path class="cls-3" d="M30.83,94.33a1.25,1.25,0,0,0,0-2.5,1.25,1.25,0,0,0,0,2.5Z"/><path class="cls-3" d="M-.12,135.05a1.25,1.25,0,0,0,0-2.5,1.25,1.25,0,0,0,0,2.5Z"/><path class="cls-3" d="M32.46,125.28a1.25,1.25,0,0,0,0-2.5,1.25,1.25,0,0,0,0,2.5Z"/><path class="cls-3" d="M4.76,104.1a1.25,1.25,0,0,0,0-2.5,1.25,1.25,0,0,0,0,2.5Z"/><path class="cls-3" d="M61.78,161.12a1.25,1.25,0,0,0,0-2.5,1.25,1.25,0,0,0,0,2.5Z"/><path class="cls-3" d="M74.81,120.39a1.25,1.25,0,0,0,0-2.5,1.25,1.25,0,0,0,0,2.5Z"/><path class="cls-3" d="M43.86,118.76a1.25,1.25,0,0,0,0-2.5,1.25,1.25,0,0,0,0,2.5Z"/><path class="cls-3" d="M34.09,110.62a1.25,1.25,0,0,0,0-2.5,1.25,1.25,0,0,0,0,2.5Z"/><path class="cls-3" d="M60.15,50.34a1.25,1.25,0,0,0,0-2.5,1.25,1.25,0,0,0,0,2.5Z"/><path class="cls-3" d="M45.49,11.25a1.25,1.25,0,0,0,0-2.5,1.25,1.25,0,0,0,0,2.5Z"/><path class="cls-3" d="M50.38,69.89a1.25,1.25,0,0,0,0-2.5,1.25,1.25,0,0,0,0,2.5Z"/><path class="cls-3" d="M47.12,38.94a1.25,1.25,0,0,0,0-2.5,1.25,1.25,0,0,0,0,2.5Z"/><path class="cls-3" d="M39,32.43a1.25,1.25,0,0,0,0-2.5,1.25,1.25,0,0,0,0,2.5Z"/><path class="cls-3" d="M24.31,22.65a1.25,1.25,0,0,0,0-2.5,1.25,1.25,0,0,0,0,2.5Z"/><path class="cls-3" d="M24.31,14.51a1.25,1.25,0,0,0,0-2.5,1.25,1.25,0,0,0,0,2.5Z"/><path class="cls-3" d="M34.09,3.1a1.25,1.25,0,0,0,0-2.5,1.25,1.25,0,0,0,0,2.5Z"/><path class="cls-3" d="M71.55,25.91a1.25,1.25,0,0,0,0-2.5,1.25,1.25,0,0,0,0,2.5Z"/><path class="cls-3" d="M61.78,34.05a1.25,1.25,0,0,0,0-2.5,1.25,1.25,0,0,0,0,2.5Z"/><path class="cls-3" d="M99.25,53.6a1.25,1.25,0,0,0,0-2.5,1.25,1.25,0,0,0,0,2.5Z"/><path class="cls-3" d="M109,37.31a1.25,1.25,0,0,0,0-2.5,1.25,1.25,0,0,0,0,2.5Z"/><path class="cls-3" d="M97.62,9.62a1.25,1.25,0,0,0,0-2.5,1.25,1.25,0,0,0,0,2.5Z"/><path class="cls-3" d="M69.92,38.94a1.25,1.25,0,0,0,0-2.5,1.25,1.25,0,0,0,0,2.5Z"/><path class="cls-3" d="M89.47,38.94a1.25,1.25,0,0,0,0-2.5,1.25,1.25,0,0,0,0,2.5Z"/><path class="cls-3" d="M105.76,24.28a1.25,1.25,0,0,0,0-2.5,1.25,1.25,0,0,0,0,2.5Z"/><path class="cls-3" d="M115.54,22.65a1.25,1.25,0,0,0,0-2.5,1.25,1.25,0,0,0,0,2.5Z"/><path class="cls-3" d="M131.83,82.92a1.25,1.25,0,0,0,0-2.5,1.25,1.25,0,0,0,0,2.5Z"/><path class="cls-3" d="M107.39,105.73a1.25,1.25,0,0,0,0-2.5,1.25,1.25,0,0,0,0,2.5Z"/><path class="cls-3" d="M79.7,69.89a1.25,1.25,0,0,0,0-2.5,1.25,1.25,0,0,0,0,2.5Z"/><path class="cls-3" d="M69.92,78a1.25,1.25,0,0,0,0-2.5,1.25,1.25,0,0,0,0,2.5Z"/><path class="cls-3" d="M89.47,94.33a1.25,1.25,0,0,0,0-2.5,1.25,1.25,0,0,0,0,2.5Z"/><path class="cls-3" d="M76.44,118.76a1.25,1.25,0,0,0,0-2.5,1.25,1.25,0,0,0,0,2.5Z"/><path class="cls-3" d="M91.1,131.8a1.25,1.25,0,0,0,0-2.5,1.25,1.25,0,0,0,0,2.5Z"/><path class="cls-3" d="M107.39,130.17a1.25,1.25,0,0,0,0-2.5,1.25,1.25,0,0,0,0,2.5Z"/><path class="cls-3" d="M120.42,122a1.25,1.25,0,0,0,0-2.5,1.25,1.25,0,0,0,0,2.5Z"/><path class="cls-3" d="M110.65,89.44a1.25,1.25,0,0,0,0-2.5,1.25,1.25,0,0,0,0,2.5Z"/><path class="cls-3" d="M115.54,66.63a1.25,1.25,0,0,0,0-2.5,1.25,1.25,0,0,0,0,2.5Z"/><path class="cls-3" d="M128.57,56.86a1.25,1.25,0,0,0,0-2.5,1.25,1.25,0,0,0,0,2.5Z"/><path class="cls-3" d="M135.08,58.49a1.25,1.25,0,0,0,0-2.5,1.25,1.25,0,0,0,0,2.5Z"/><path class="cls-3" d="M166,97.59a1.25,1.25,0,0,0,0-2.5,1.25,1.25,0,0,0,0,2.5Z"/><path class="cls-3" d="M65,92.7a1.25,1.25,0,0,0,0-2.5,1.25,1.25,0,0,0,0,2.5Z"/><path class="cls-3" d="M65,112.25a1.25,1.25,0,0,0,0-2.5,1.25,1.25,0,0,0,0,2.5Z"/><path class="cls-3" d="M58.52,115.51a1.25,1.25,0,0,0,0-2.5,1.25,1.25,0,0,0,0,2.5Z"/><path class="cls-3" d="M56.89,136.68a1.25,1.25,0,0,0,0-2.5,1.25,1.25,0,0,0,0,2.5Z"/><path class="cls-3" d="M35.71,164.38a1.25,1.25,0,0,0,0-2.5,1.25,1.25,0,0,0,0,2.5Z"/><path class="cls-3" d="M19.42,153a1.25,1.25,0,0,0,0-2.5,1.25,1.25,0,0,0,0,2.5Z"/><path class="cls-3" d="M24.31,131.8a1.25,1.25,0,0,0,0-2.5,1.25,1.25,0,0,0,0,2.5Z"/><path class="cls-3" d="M1.51,110.62a1.25,1.25,0,0,0,0-2.5,1.25,1.25,0,0,0,0,2.5Z"/><path class="cls-3" d="M12.91,109a1.25,1.25,0,0,0,0-2.5,1.25,1.25,0,0,0,0,2.5Z"/><path class="cls-3" d="M94.36,81.3a1.25,1.25,0,0,0,0-2.5,1.25,1.25,0,0,0,0,2.5Z"/><path class="cls-3" d="M102.5,117.13a1.25,1.25,0,0,0,0-2.5,1.25,1.25,0,0,0,0,2.5Z"/><path class="cls-3" d="M182.33,102.47a1.25,1.25,0,0,0,0-2.5,1.25,1.25,0,0,0,0,2.5Z"/><path class="cls-3" d="M140,107.36a1.25,1.25,0,0,0,0-2.5,1.25,1.25,0,0,0,0,2.5Z"/><path class="cls-3" d="M130.2,100.84a1.25,1.25,0,0,0,0-2.5,1.25,1.25,0,0,0,0,2.5Z"/><path class="cls-3" d="M135.08,120.39a1.25,1.25,0,0,0,0-2.5,1.25,1.25,0,0,0,0,2.5Z"/><path class="cls-3" d="M162.78,131.8a1.25,1.25,0,0,0,0-2.5,1.25,1.25,0,0,0,0,2.5Z"/><path class="cls-3" d="M162.78,117.13a1.25,1.25,0,0,0,0-2.5,1.25,1.25,0,0,0,0,2.5Z"/><path class="cls-3" d="M151.37,105.73a1.25,1.25,0,0,0,0-2.5,1.25,1.25,0,0,0,0,2.5Z"/><path class="cls-3" d="M144.86,79.67a1.25,1.25,0,0,0,0-2.5,1.25,1.25,0,0,0,0,2.5Z"/><path class="cls-3" d="M149.75,73.15a1.25,1.25,0,0,0,0-2.5,1.25,1.25,0,0,0,0,2.5Z"/><path class="cls-3" d="M144.11,58l-1.63-1.62a1.25,1.25,0,0,0-1.76,1.76l1.63,1.63A1.25,1.25,0,0,0,144.11,58Z"/><path class="cls-3" d="M113.91,42.2a1.25,1.25,0,0,0,0-2.5,1.25,1.25,0,0,0,0,2.5Z"/><path class="cls-3" d="M164.41,25.91a1.25,1.25,0,0,0,0-2.5,1.25,1.25,0,0,0,0,2.5Z"/><path class="cls-3" d="M175.81,61.75a1.25,1.25,0,0,0,0-2.5,1.25,1.25,0,0,0,0,2.5Z"/><path class="cls-3" d="M185.58,78a1.25,1.25,0,0,0,0-2.5,1.25,1.25,0,0,0,0,2.5Z"/><path class="cls-3" d="M146.49,50.34a1.25,1.25,0,0,0,0-2.5,1.25,1.25,0,0,0,0,2.5Z"/><path class="cls-3" d="M140,40.57a1.25,1.25,0,0,0,0-2.5,1.25,1.25,0,0,0,0,2.5Z"/><path class="cls-3" d="M135.08,29.17a1.25,1.25,0,0,0,0-2.5,1.25,1.25,0,0,0,0,2.5Z"/><path class="cls-3" d="M135.08,19.39a1.25,1.25,0,0,0,0-2.5,1.25,1.25,0,0,0,0,2.5Z"/><path class="cls-3" d="M141.6,14.51a1.25,1.25,0,0,0,0-2.5,1.25,1.25,0,0,0,0,2.5Z"/><path class="cls-3" d="M146.49,24.28a1.25,1.25,0,0,0,0-2.5,1.25,1.25,0,0,0,0,2.5Z"/><path class="cls-3" d="M149.75,34.05a1.25,1.25,0,0,0,0-2.5,1.25,1.25,0,0,0,0,2.5Z"/><path class="cls-3" d="M192.1,78a1.25,1.25,0,0,0,0-2.5,1.25,1.25,0,0,0,0,2.5Z"/><path class="cls-3" d="M198.62,55.23a1.25,1.25,0,0,0,0-2.5,1.25,1.25,0,0,0,0,2.5Z"/><path class="cls-3" d="M199.5,53.1l-1.63-1.63a1.25,1.25,0,0,0-1.77,1.77l1.63,1.63a1.25,1.25,0,0,0,1.77-1.77Z"/><path class="cls-3" d="M162.78,55.23a1.25,1.25,0,0,0,0-2.5,1.25,1.25,0,0,0,0,2.5Z"/><path class="cls-3" d="M175.81,29.17a1.25,1.25,0,0,0,0-2.5,1.25,1.25,0,0,0,0,2.5Z"/><path class="cls-3" d="M179.07,27.54a1.25,1.25,0,0,0,0-2.5,1.25,1.25,0,0,0,0,2.5Z"/><path class="cls-3" d="M187.21,45.46a1.25,1.25,0,0,0,0-2.5,1.25,1.25,0,0,0,0,2.5Z"/><path class="cls-3" d="M172.55,48.72a1.25,1.25,0,0,0,0-2.5,1.25,1.25,0,0,0,0,2.5Z"/><path class="cls-3" d="M161.15,48.72a1.25,1.25,0,0,0,0-2.5,1.25,1.25,0,0,0,0,2.5Z"/><path class="cls-3" d="M185.58,24.28a1.25,1.25,0,0,0,0-2.5,1.25,1.25,0,0,0,0,2.5Z"/><path class="cls-3" d="M174.18,118.76a1.25,1.25,0,0,0,0-2.5,1.25,1.25,0,0,0,0,2.5Z"/><path class="cls-3" d="M120.42,148.09a1.25,1.25,0,0,0,0-2.5,1.25,1.25,0,0,0,0,2.5Z"/><path class="cls-3" d="M61.78,156.23a1.25,1.25,0,0,0,0-2.5,1.25,1.25,0,0,0,0,2.5Z"/><path class="cls-3" d="M71.55,136.68a1.25,1.25,0,0,0,0-2.5,1.25,1.25,0,0,0,0,2.5Z"/><path class="cls-3" d="M79.7,151.34a1.25,1.25,0,0,0,0-2.5,1.25,1.25,0,0,0,0,2.5Z"/><path class="cls-3" d="M83,151.34a1.25,1.25,0,0,0,0-2.5,1.25,1.25,0,0,0,0,2.5Z"/><path class="cls-3" d="M89.47,146.46a1.25,1.25,0,0,0,0-2.5,1.25,1.25,0,0,0,0,2.5Z"/><path class="cls-3" d="M92.73,143.2a1.25,1.25,0,0,0,0-2.5,1.25,1.25,0,0,0,0,2.5Z"/><path class="cls-3" d="M136.71,144.83a1.25,1.25,0,0,0,0-2.5,1.25,1.25,0,0,0,0,2.5Z"/><path class="cls-3" d="M136.71,144.83a1.25,1.25,0,0,0,0-2.5,1.25,1.25,0,0,0,0,2.5Z"/><path class="cls-3" d="M135.08,139.94a1.25,1.25,0,0,0,0-2.5,1.25,1.25,0,0,0,0,2.5Z"/><path class="cls-3" d="M133.46,182.29a1.25,1.25,0,0,0,0-2.5,1.25,1.25,0,0,0,0,2.5Z"/><path class="cls-3" d="M66.67,177.41a1.25,1.25,0,0,0,0-2.5,1.25,1.25,0,0,0,0,2.5Z"/><path class="cls-3" d="M97.62,154.6a1.25,1.25,0,0,0,0-2.5,1.25,1.25,0,0,0,0,2.5Z"/><path class="cls-3" d="M109,154.6a1.25,1.25,0,0,0,0-2.5,1.25,1.25,0,0,0,0,2.5Z"/><path class="cls-3" d="M100.88,182.29a1.25,1.25,0,0,0,0-2.5,1.25,1.25,0,0,0,0,2.5Z"/><path class="cls-3" d="M86.21,177.41a1.25,1.25,0,0,0,0-2.5,1.25,1.25,0,0,0,0,2.5Z"/><path class="cls-3" d="M79.7,169.26a1.25,1.25,0,0,0,0-2.5,1.25,1.25,0,0,0,0,2.5Z"/><path class="cls-3" d="M174.18,162.75a1.25,1.25,0,0,0,0-2.5,1.25,1.25,0,0,0,0,2.5Z"/><path class="cls-3" d="M102.5,175.78a1.25,1.25,0,0,0,0-2.5,1.25,1.25,0,0,0,0,2.5Z"/><path class="cls-3" d="M133.46,153a1.25,1.25,0,0,0,0-2.5,1.25,1.25,0,0,0,0,2.5Z"/><path class="cls-3" d="M138.34,164.38a1.25,1.25,0,0,0,0-2.5,1.25,1.25,0,0,0,0,2.5Z"/><path class="cls-3" d="M113.91,169.26a1.25,1.25,0,0,0,0-2.5,1.25,1.25,0,0,0,0,2.5Z"/><path class="cls-3" d="M143.23,188.81a1.25,1.25,0,0,0,0-2.5,1.25,1.25,0,0,0,0,2.5Z"/><path class="cls-3" d="M159.52,170.89a1.25,1.25,0,0,0,0-2.5,1.25,1.25,0,0,0,0,2.5Z"/><path class="cls-3" d="M136.71,159.49a1.25,1.25,0,0,0,0-2.5,1.25,1.25,0,0,0,0,2.5Z"/><path class="cls-3" d="M151.37,136.68a1.25,1.25,0,0,0,0-2.5,1.25,1.25,0,0,0,0,2.5Z"/><path class="cls-3" d="M153,141.57a1.25,1.25,0,0,0,0-2.5,1.25,1.25,0,0,0,0,2.5Z"/><path class="cls-3" d="M167.67,161.12a1.25,1.25,0,0,0,0-2.5,1.25,1.25,0,0,0,0,2.5Z"/><path class="cls-3" d="M144.86,161.12a1.25,1.25,0,0,0,0-2.5,1.25,1.25,0,0,0,0,2.5Z"/><path class="cls-3" d="M149.75,143.2a1.25,1.25,0,0,0,0-2.5,1.25,1.25,0,0,0,0,2.5Z"/><path class="cls-3" d="M185.58,130.17a1.25,1.25,0,0,0,0-2.5,1.25,1.25,0,0,0,0,2.5Z"/><path class="cls-3" d="M179.07,146.46a1.25,1.25,0,0,0,0-2.5,1.25,1.25,0,0,0,0,2.5Z"/><path class="cls-3" d="M200.25,136.68a1.25,1.25,0,0,0,0-2.5,1.25,1.25,0,0,0,0,2.5Z"/><path class="cls-3" d="M195.36,130.17a1.25,1.25,0,0,0,0-2.5,1.25,1.25,0,0,0,0,2.5Z"/><path class="cls-3" d="M189.74,119.68l1.66-3.24c.73-1.43-1.43-2.7-2.16-1.27l-1.66,3.25c-.72,1.43,1.43,2.7,2.16,1.26Z"/><path class="cls-3" d="M41.19,74.85a.63.63,0,0,0,0-1.25.63.63,0,0,0,0,1.25Z"/><path class="cls-3" d="M48.58,97.64a.63.63,0,0,0,0-1.25.63.63,0,0,0,0,1.25Z"/><path class="cls-3" d="M38.73,97.64a.63.63,0,0,0,0-1.25.63.63,0,0,0,0,1.25Z"/><path class="cls-3" d="M38.73,100.72a.63.63,0,0,0,0-1.25.63.63,0,0,0,0,1.25Z"/><path class="cls-3" d="M54.74,106.26a.63.63,0,0,0,0-1.25.63.63,0,0,0,0,1.25Z"/><path class="cls-3" d="M89.23,94.56a.63.63,0,0,0,0-1.25.63.63,0,0,0,0,1.25Z"/><path class="cls-3" d="M56.59,92.71a.63.63,0,0,0,0-1.25.63.63,0,0,0,0,1.25Z"/><path class="cls-3" d="M53.51,86.55a.63.63,0,0,0,0-1.25.63.63,0,0,0,0,1.25Z"/><path class="cls-3" d="M64.59,77.32a.63.63,0,0,0,0-1.25.63.63,0,0,0,0,1.25Z"/><path class="cls-3" d="M49.2,80.4a.63.63,0,0,0,0-1.25.63.63,0,0,0,0,1.25Z"/><path class="cls-3" d="M33.8,84.71a.63.63,0,0,0,0-1.25.63.63,0,0,0,0,1.25Z"/><path class="cls-3" d="M20.25,82.86a.63.63,0,0,0,0-1.25.63.63,0,0,0,0,1.25Z"/><path class="cls-3" d="M15.94,76.7a.63.63,0,0,0,0-1.25.63.63,0,0,0,0,1.25Z"/><path class="cls-3" d="M46.12,57a.63.63,0,0,0,0-1.25.63.63,0,0,0,0,1.25Z"/><path class="cls-3" d="M87.38,59.46a.63.63,0,0,0,0-1.25.63.63,0,0,0,0,1.25Z"/><path class="cls-3" d="M74.45,89a.63.63,0,0,0,0-1.25.63.63,0,0,0,0,1.25Z"/><path class="cls-3" d="M60.9,102a.63.63,0,0,0,0-1.25.63.63,0,0,0,0,1.25Z"/><path class="cls-3" d="M92.92,100.1a.63.63,0,0,0,0-1.25.63.63,0,0,0,0,1.25Z"/><path class="cls-3" d="M81.84,106.88a.63.63,0,0,0,0-1.25.63.63,0,0,0,0,1.25Z"/><path class="cls-3" d="M62.13,100.72a.63.63,0,0,0,0-1.25.63.63,0,0,0,0,1.25Z"/><path class="cls-3" d="M73.83,99.49a.63.63,0,0,0,0-1.25.63.63,0,0,0,0,1.25Z"/><path class="cls-3" d="M70.75,105.65a.63.63,0,0,0,0-1.25.63.63,0,0,0,0,1.25Z"/><path class="cls-3" d="M83.68,111.8a.63.63,0,0,0,0-1.25.63.63,0,0,0,0,1.25Z"/><path class="cls-3" d="M78.76,97a.63.63,0,0,0,0-1.25.63.63,0,0,0,0,1.25Z"/><path class="cls-3" d="M81.22,85.32a.63.63,0,0,0,0-1.25.63.63,0,0,0,0,1.25Z"/><path class="cls-3" d="M92.31,82.24a.63.63,0,0,0,0-1.25.63.63,0,0,0,0,1.25Z"/><path class="cls-3" d="M90.46,73a.63.63,0,0,0,0-1.25.63.63,0,0,0,0,1.25Z"/><path class="cls-3" d="M86.15,74.85a.63.63,0,0,0,0-1.25.63.63,0,0,0,0,1.25Z"/><path class="cls-3" d="M118.17,79.16a.63.63,0,0,0,0-1.25.63.63,0,0,0,0,1.25Z"/><path class="cls-3" d="M90.46,96.41a.63.63,0,0,0,0-1.25.63.63,0,0,0,0,1.25Z"/><path class="cls-3" d="M127.41,70.54a.63.63,0,0,0,0-1.25.63.63,0,0,0,0,1.25Z"/><path class="cls-3" d="M100.31,74.85a.63.63,0,0,0,0-1.25.63.63,0,0,0,0,1.25Z"/><path class="cls-3" d="M99.08,68.69a.63.63,0,0,0,0-1.25.63.63,0,0,0,0,1.25Z"/><path class="cls-3" d="M104.62,63.77a.63.63,0,0,0,0-1.25.63.63,0,0,0,0,1.25Z"/><path class="cls-3" d="M104,62.53a.63.63,0,0,0,0-1.25.63.63,0,0,0,0,1.25Z"/><path class="cls-3" d="M102.16,55.76a.63.63,0,0,0,0-1.25.63.63,0,0,0,0,1.25Z"/><path class="cls-3" d="M108.93,52.68a.63.63,0,0,0,0-1.25.63.63,0,0,0,0,1.25Z"/><path class="cls-3" d="M113.25,58.22a.63.63,0,0,0,0-1.25.63.63,0,0,0,0,1.25Z"/><path class="cls-3" d="M121.25,58.22a.63.63,0,0,0,0-1.25.63.63,0,0,0,0,1.25Z"/><path class="cls-3" d="M101.54,74.24a.63.63,0,0,0,0-1.25.63.63,0,0,0,0,1.25Z"/><path class="cls-3" d="M104.62,74.24a.63.63,0,0,0,0-1.25.63.63,0,0,0,0,1.25Z"/><path class="cls-3" d="M99.7,81.63a.63.63,0,0,0,0-1.25.63.63,0,0,0,0,1.25Z"/><path class="cls-3" d="M105.24,81a.63.63,0,0,0,0-1.25.63.63,0,0,0,0,1.25Z"/><path class="cls-3" d="M94.15,87.79a.63.63,0,0,0,0-1.25.63.63,0,0,0,0,1.25Z"/><path class="cls-3" d="M101.54,87.79a.63.63,0,0,0,0-1.25.63.63,0,0,0,0,1.25Z"/><path class="cls-3" d="M94.77,95.18a.63.63,0,0,0,0-1.25.63.63,0,0,0,0,1.25Z"/><path class="cls-3" d="M112,92.71a.63.63,0,0,0,0-1.25.63.63,0,0,0,0,1.25Z"/><path class="cls-3" d="M104.62,97.64a.63.63,0,0,0,0-1.25.63.63,0,0,0,0,1.25Z"/><path class="cls-3" d="M101.54,100.1a.63.63,0,0,0,0-1.25.63.63,0,0,0,0,1.25Z"/><path class="cls-3" d="M100.31,102a.63.63,0,0,0,0-1.25.63.63,0,0,0,0,1.25Z"/><path class="cls-3" d="M96,105a.63.63,0,0,0,0-1.25A.63.63,0,0,0,96,105Z"/><path class="cls-3" d="M90.46,111.8a.63.63,0,0,0,0-1.25.63.63,0,0,0,0,1.25Z"/><path class="cls-3" d="M92.92,118a.63.63,0,0,0,0-1.25.63.63,0,0,0,0,1.25Z"/><path class="cls-3" d="M115.71,120.43a.63.63,0,0,0,0-1.25.63.63,0,0,0,0,1.25Z"/><path class="cls-3" d="M113.25,107.49a.63.63,0,0,0,0-1.25.63.63,0,0,0,0,1.25Z"/><path class="cls-3" d="M115.09,105.65a.63.63,0,0,0,0-1.25.63.63,0,0,0,0,1.25Z"/><path class="cls-3" d="M125,104.41a.63.63,0,0,0,0-1.25.63.63,0,0,0,0,1.25Z"/><path class="cls-3" d="M126.18,98.26a.63.63,0,0,0,0-1.25.63.63,0,0,0,0,1.25Z"/><path class="cls-3" d="M118.17,93.33a.63.63,0,0,0,0-1.25.63.63,0,0,0,0,1.25Z"/><path class="cls-3" d="M132.34,84.09a.63.63,0,0,0,0-1.25.63.63,0,0,0,0,1.25Z"/><path class="cls-3" d="M113.25,85.94a.63.63,0,0,0,0-1.25.63.63,0,0,0,0,1.25Z"/><path class="cls-3" d="M123.72,84.71a.63.63,0,0,0,0-1.25.63.63,0,0,0,0,1.25Z"/><path class="cls-3" d="M127.41,105.65a.63.63,0,0,0,0-1.25.63.63,0,0,0,0,1.25Z"/><path class="cls-3" d="M152.66,103.8a.63.63,0,0,0,0-1.25.63.63,0,0,0,0,1.25Z"/><path class="cls-3" d="M136.65,97.64a.63.63,0,0,0,0-1.25.63.63,0,0,0,0,1.25Z"/><path class="cls-3" d="M136.65,95.18a.63.63,0,0,0,0-1.25.63.63,0,0,0,0,1.25Z"/><path class="cls-3" d="M142.81,95.18a.63.63,0,0,0,0-1.25.63.63,0,0,0,0,1.25Z"/><path class="cls-3" d="M139.73,87.79a.63.63,0,0,0,0-1.25.63.63,0,0,0,0,1.25Z"/><path class="cls-3" d="M118.79,91.48a.63.63,0,0,0,0-1.25.63.63,0,0,0,0,1.25Z"/><path class="cls-3" d="M152.05,90.87a.63.63,0,0,0,0-1.25.63.63,0,0,0,0,1.25Z"/><path class="cls-3" d="M134.19,92.1a.63.63,0,0,0,0-1.25.63.63,0,0,0,0,1.25Z"/><path class="cls-3" d="M128,89.63a.63.63,0,0,0,0-1.25.63.63,0,0,0,0,1.25Z"/><path class="cls-3" d="M147.12,69.93a.63.63,0,0,0,0-1.25.63.63,0,0,0,0,1.25Z"/><path class="cls-3" d="M140.34,70.54a.63.63,0,0,0,0-1.25.63.63,0,0,0,0,1.25Z"/><path class="cls-3" d="M139.73,77.93a.63.63,0,0,0,0-1.25.63.63,0,0,0,0,1.25Z"/><path class="cls-3" d="M135.42,68.69a.63.63,0,0,0,0-1.25.63.63,0,0,0,0,1.25Z"/><path class="cls-3" d="M125,64.38a.63.63,0,0,0,0-1.25.63.63,0,0,0,0,1.25Z"/><path class="cls-3" d="M110.78,68.69a.63.63,0,0,0,0-1.25.63.63,0,0,0,0,1.25Z"/><path class="cls-3" d="M113.25,57.61a.63.63,0,0,0,0-1.25.63.63,0,0,0,0,1.25Z"/><path class="cls-3" d="M114.48,52.07a.63.63,0,0,0,0-1.25.63.63,0,0,0,0,1.25Z"/><path class="cls-3" d="M75.68,50.83a.63.63,0,0,0,0-1.25.63.63,0,0,0,0,1.25Z"/><path class="cls-3" d="M96.62,38.52a.63.63,0,0,0,0-1.25.63.63,0,0,0,0,1.25Z"/><path class="cls-3" d="M83.07,60.69a.63.63,0,0,0,0-1.25.63.63,0,0,0,0,1.25Z"/><path class="cls-3" d="M83.07,47.75a.63.63,0,0,0,0-1.25.63.63,0,0,0,0,1.25Z"/><path class="cls-3" d="M87.38,46.52a.63.63,0,0,0,0-1.25.63.63,0,0,0,0,1.25Z"/><path class="cls-3" d="M94.77,45.29a.63.63,0,0,0,0-1.25.63.63,0,0,0,0,1.25Z"/><path class="cls-3" d="M108.93,43.44a.63.63,0,0,0,0-1.25.63.63,0,0,0,0,1.25Z"/><path class="cls-3" d="M110.78,45.29a.63.63,0,0,0,0-1.25.63.63,0,0,0,0,1.25Z"/><path class="cls-3" d="M141,51.45a.63.63,0,0,0,0-1.25.63.63,0,0,0,0,1.25Z"/><path class="cls-3" d="M140.34,50.83a.63.63,0,0,0,0-1.25.63.63,0,0,0,0,1.25Z"/><path class="cls-3" d="M131.72,52.07a.63.63,0,0,0,0-1.25.63.63,0,0,0,0,1.25Z"/><path class="cls-3" d="M131.72,47.75a.63.63,0,0,0,0-1.25.63.63,0,0,0,0,1.25Z"/><path class="cls-3" d="M117.56,55.14a.63.63,0,0,0,0-1.25.63.63,0,0,0,0,1.25Z"/><path class="cls-3" d="M125,44.67a.63.63,0,0,0,0-1.25.63.63,0,0,0,0,1.25Z"/><path class="cls-3" d="M130.49,42.21a.63.63,0,0,0,0-1.25.63.63,0,0,0,0,1.25Z"/><path class="cls-3" d="M124.94,45.9v.61a.63.63,0,0,0,1.25,0V45.9a.63.63,0,0,0-1.25,0Z"/><path class="cls-3" d="M125.56,51.45a.63.63,0,0,0,0-1.25.63.63,0,0,0,0,1.25Z"/><path class="cls-3" d="M123.1,47.14a.63.63,0,0,0,0-1.25.63.63,0,0,0,0,1.25Z"/><path class="cls-3" d="M120.64,36.67a.63.63,0,0,0,0-1.25.63.63,0,0,0,0,1.25Z"/><path class="cls-3" d="M117.56,36.67a.63.63,0,0,0,0-1.25.63.63,0,0,0,0,1.25Z"/><path class="cls-3" d="M114.48,32.36a.63.63,0,0,0,0-1.25.63.63,0,0,0,0,1.25Z"/><path class="cls-3" d="M107.7,35.44a.63.63,0,0,0,0-1.25.63.63,0,0,0,0,1.25Z"/><path class="cls-3" d="M105.24,33.59a.63.63,0,0,0,0-1.25.63.63,0,0,0,0,1.25Z"/><path class="cls-3" d="M96,31.13a.63.63,0,0,0,0-1.25.63.63,0,0,0,0,1.25Z"/><path class="cls-3" d="M90.46,25.58a.63.63,0,0,0,0-1.25.63.63,0,0,0,0,1.25Z"/><path class="cls-3" d="M75.68,32.36a.63.63,0,0,0,0-1.25.63.63,0,0,0,0,1.25Z"/><path class="cls-3" d="M89.23,29.28a.63.63,0,0,0,0-1.25.63.63,0,0,0,0,1.25Z"/><path class="cls-3" d="M65.82,39.75a.63.63,0,0,0,0-1.25.63.63,0,0,0,0,1.25Z"/><path class="cls-3" d="M73.83,40.36a.63.63,0,0,0,0-1.25.63.63,0,0,0,0,1.25Z"/><path class="cls-3" d="M95.39,36.67a.63.63,0,0,0,0-1.25.63.63,0,0,0,0,1.25Z"/><path class="cls-3" d="M78.76,39.13a.63.63,0,0,0,0-1.25.63.63,0,0,0,0,1.25Z"/><path class="cls-3" d="M73.83,55.14a.63.63,0,0,0,0-1.25.63.63,0,0,0,0,1.25Z"/><path class="cls-3" d="M54.12,49.6a.63.63,0,0,0,0-1.25.63.63,0,0,0,0,1.25Z"/><path class="cls-3" d="M81.22,44.67a.63.63,0,0,0,0-1.25.63.63,0,0,0,0,1.25Z"/><path class="cls-3" d="M66.44,56.38a.63.63,0,0,0,0-1.25.63.63,0,0,0,0,1.25Z"/><path class="cls-3" d="M69.52,44.06a.63.63,0,0,0,0-1.25.63.63,0,0,0,0,1.25Z"/><path class="cls-3" d="M61.51,52.68a.63.63,0,0,0,0-1.25.63.63,0,0,0,0,1.25Z"/><path class="cls-3" d="M60.28,56.38a.63.63,0,0,0,0-1.25.63.63,0,0,0,0,1.25Z"/><path class="cls-3" d="M88,55.76a.63.63,0,0,0,0-1.25.63.63,0,0,0,0,1.25Z"/><path class="cls-3" d="M70.13,66.23a.63.63,0,0,0,0-1.25.63.63,0,0,0,0,1.25Z"/><path class="cls-3" d="M60.28,68.69a.63.63,0,0,0,0-1.25.63.63,0,0,0,0,1.25Z"/><path class="cls-3" d="M73.83,68.69a.63.63,0,0,0,0-1.25.63.63,0,0,0,0,1.25Z"/><path class="cls-3" d="M54.12,76.7a.63.63,0,0,0,0-1.25.63.63,0,0,0,0,1.25Z"/><path class="cls-3" d="M63.36,84.09a.63.63,0,0,0,0-1.25.63.63,0,0,0,0,1.25Z"/><path class="cls-3" d="M94.77,78.55a.63.63,0,0,0,0-1.25.63.63,0,0,0,0,1.25Z"/><path class="cls-3" d="M67.06,82.24a.63.63,0,0,0,0-1.25.63.63,0,0,0,0,1.25Z"/><path class="cls-3" d="M57.2,90.25a.63.63,0,0,0,0-1.25.63.63,0,0,0,0,1.25Z"/><path class="cls-3" d="M48.58,111.8a.63.63,0,0,0,0-1.25.63.63,0,0,0,0,1.25Z"/><path class="cls-3" d="M44.88,114.27a.63.63,0,0,0,0-1.25.63.63,0,0,0,0,1.25Z"/><path class="cls-3" d="M43,103.18a.63.63,0,0,0,0-1.25.63.63,0,0,0,0,1.25Z"/><path class="cls-3" d="M35,113.65a.63.63,0,0,0,0-1.25.63.63,0,0,0,0,1.25Z"/><path class="cls-3" d="M26.41,105a.63.63,0,0,0,0-1.25.63.63,0,0,0,0,1.25Z"/><path class="cls-3" d="M20.25,103.8a.63.63,0,0,0,0-1.25.63.63,0,0,0,0,1.25Z"/><path class="cls-3" d="M46.73,98.87a.63.63,0,0,0,0-1.25.63.63,0,0,0,0,1.25Z"/><path class="cls-3" d="M17.17,100.72a.63.63,0,0,0,0-1.25.63.63,0,0,0,0,1.25Z"/><path class="cls-3" d="M30.1,98.26a.63.63,0,0,0,0-1.25.63.63,0,0,0,0,1.25Z"/><path class="cls-3" d="M52.27,80.4a.63.63,0,0,0,0-1.25.63.63,0,0,0,0,1.25Z"/><path class="cls-3" d="M20.25,93.94h1.23a.63.63,0,0,0,0-1.25H20.25a.63.63,0,0,0,0,1.25Z"/><path class="cls-3" d="M62.74,87.79a.63.63,0,0,0,0-1.25.63.63,0,0,0,0,1.25Z"/><path class="cls-3" d="M44.88,89.63a.63.63,0,0,0,0-1.25.63.63,0,0,0,0,1.25Z"/><path class="cls-3" d="M51.66,87.79a.63.63,0,0,0,0-1.25.63.63,0,0,0,0,1.25Z"/><path class="cls-3" d="M12.24,91.48a.63.63,0,0,0,0-1.25.63.63,0,0,0,0,1.25Z"/><path class="cls-3" d="M48,82.86a.63.63,0,0,0,0-1.25.63.63,0,0,0,0,1.25Z"/><path class="cls-3" d="M36.26,84.71a.63.63,0,0,0,0-1.25.63.63,0,0,0,0,1.25Z"/><path class="cls-3" d="M59.67,74.24a.63.63,0,0,0,0-1.25.63.63,0,0,0,0,1.25Z"/><path class="cls-3" d="M23.33,77.93a.63.63,0,0,0,0-1.25.63.63,0,0,0,0,1.25Z"/><path class="cls-3" d="M60.9,73.62a.63.63,0,0,0,0-1.25.63.63,0,0,0,0,1.25Z"/><path class="cls-3" d="M39.34,77.32a.63.63,0,0,0,0-1.25.63.63,0,0,0,0,1.25Z"/><path class="cls-3" d="M51.83,65.16l-.61.62a.62.62,0,0,0,.88.88l.62-.61a.63.63,0,0,0-.89-.89Z"/><path class="cls-3" d="M21.48,74.24a.63.63,0,0,0,0-1.25.63.63,0,0,0,0,1.25Z"/><path class="cls-3" d="M40,69.31a.63.63,0,0,0,0-1.25.63.63,0,0,0,0,1.25Z"/><path class="cls-3" d="M27,71.77a.63.63,0,0,0,0-1.25.63.63,0,0,0,0,1.25Z"/><path class="cls-3" d="M56.59,62.53a.63.63,0,0,0,0-1.25.63.63,0,0,0,0,1.25Z"/><path class="cls-3" d="M27,66.85a.63.63,0,0,0,0-1.25.63.63,0,0,0,0,1.25Z"/><path class="cls-3" d="M44.88,62.53a.63.63,0,0,0,0-1.25.63.63,0,0,0,0,1.25Z"/><path class="cls-3" d="M32,65a.63.63,0,0,0,0-1.25A.63.63,0,0,0,32,65Z"/><path class="cls-3" d="M40,62.53a.63.63,0,0,0,0-1.25.63.63,0,0,0,0,1.25Z"/><path class="cls-3" d="M44.88,57.61a.63.63,0,0,0,0-1.25.63.63,0,0,0,0,1.25Z"/><path class="cls-3" d="M24.56,63.15a.63.63,0,0,0,0-1.25.63.63,0,0,0,0,1.25Z"/><path class="cls-3" d="M71.37,53.91a.63.63,0,0,0,0-1.25.63.63,0,0,0,0,1.25Z"/><path class="cls-3" d="M34.41,56.38a.63.63,0,0,0,0-1.25.63.63,0,0,0,0,1.25Z"/><path class="cls-3" d="M66.44,50.83a.63.63,0,0,0,0-1.25.63.63,0,0,0,0,1.25Z"/><path class="cls-3" d="M52.27,55.14a.63.63,0,0,0,0-1.25.63.63,0,0,0,0,1.25Z"/><path class="cls-3" d="M48.58,55.14a.63.63,0,0,0,0-1.25.63.63,0,0,0,0,1.25Z"/><path class="cls-3" d="M46.12,52.68a.63.63,0,0,0,0-1.25.63.63,0,0,0,0,1.25Z"/><path class="cls-3" d="M31.34,51.45a.63.63,0,0,0,0-1.25.63.63,0,0,0,0,1.25Z"/><path class="cls-3" d="M82.45,43.44a.63.63,0,0,0,0-1.25.63.63,0,0,0,0,1.25Z"/><path class="cls-3" d="M34.41,42.83a.63.63,0,0,0,0-1.25.63.63,0,0,0,0,1.25Z"/><path class="cls-3" d="M89.23,35.42H88a.63.63,0,0,0,0,1.25h1.23a.63.63,0,0,0,0-1.25Z"/><path class="cls-3" d="M57.82,42.83a.63.63,0,0,0,0-1.25.63.63,0,0,0,0,1.25Z"/><path class="cls-3" d="M72,42.21A.63.63,0,0,0,72,41a.63.63,0,0,0,0,1.25Z"/><path class="cls-3" d="M51.66,45.91a.63.63,0,0,0,0-1.25.63.63,0,0,0,0,1.25Z"/><path class="cls-3" d="M20.25,48.37a.63.63,0,0,0,0-1.25.63.63,0,0,0,0,1.25Z"/><path class="cls-3" d="M56.59,44.67a.63.63,0,0,0,0-1.25.63.63,0,0,0,0,1.25Z"/><path class="cls-3" d="M42.42,47.14a.63.63,0,0,0,0-1.25.63.63,0,0,0,0,1.25Z"/><path class="cls-3" d="M59.05,44.06a.63.63,0,0,0,0-1.25.63.63,0,0,0,0,1.25Z"/><path class="cls-3" d="M84.3,44.67a.63.63,0,0,0,0-1.25.63.63,0,0,0,0,1.25Z"/><path class="cls-3" d="M46.12,46.52a.63.63,0,0,0,0-1.25.63.63,0,0,0,0,1.25Z"/><path class="cls-3" d="M110.17,121.66a.63.63,0,0,0,0-1.25.63.63,0,0,0,0,1.25Z"/><path class="cls-3" d="M74.45,129.05a.63.63,0,0,0,0-1.25.63.63,0,0,0,0,1.25Z"/><path class="cls-3" d="M114.48,123.51a.63.63,0,0,0,0-1.25.63.63,0,0,0,0,1.25Z"/><path class="cls-3" d="M88.61,123.51a.63.63,0,0,0,0-1.25.63.63,0,0,0,0,1.25Z"/><path class="cls-3" d="M105.86,119.81a.63.63,0,0,0,0-1.25.63.63,0,0,0,0,1.25Z"/><path class="cls-3" d="M86.15,122.27a.63.63,0,0,0,0-1.25.63.63,0,0,0,0,1.25Z"/><path class="cls-3" d="M95.39,122.27a.63.63,0,0,0,0-1.25.63.63,0,0,0,0,1.25Z"/><path class="cls-3" d="M74.45,123.51a.63.63,0,0,0,0-1.25.63.63,0,0,0,0,1.25Z"/><path class="cls-3" d="M70.13,122.89a.63.63,0,0,0,0-1.25.63.63,0,0,0,0,1.25Z"/><path class="cls-3" d="M45.5,122.89a.63.63,0,0,0,0-1.25.63.63,0,0,0,0,1.25Z"/><path class="cls-3" d="M54.74,130.28a.63.63,0,0,0,0-1.25.63.63,0,0,0,0,1.25Z"/><path class="cls-3" d="M65.82,122.27a.63.63,0,0,0,0-1.25.63.63,0,0,0,0,1.25Z"/><path class="cls-3" d="M56,121.66a.63.63,0,0,0,0-1.25.63.63,0,0,0,0,1.25Z"/><path class="cls-3" d="M70.13,119.2a.63.63,0,0,0,0-1.25.63.63,0,0,0,0,1.25Z"/><path class="cls-3" d="M46.73,126a.63.63,0,0,0,0-1.25.63.63,0,0,0,0,1.25Z"/><path class="cls-3" d="M43,128.43a.63.63,0,0,0,0-1.25.63.63,0,0,0,0,1.25Z"/><path class="cls-3" d="M44.88,133.36a.63.63,0,0,0,0-1.25.63.63,0,0,0,0,1.25Z"/><path class="cls-3" d="M15.94,126a.63.63,0,0,0,0-1.25.63.63,0,0,0,0,1.25Z"/><path class="cls-3" d="M28.87,129.66a.63.63,0,0,0,0-1.25.63.63,0,0,0,0,1.25Z"/><path class="cls-3" d="M16.55,120.43a.63.63,0,0,0,0-1.25.63.63,0,0,0,0,1.25Z"/><path class="cls-3" d="M30.1,118.58a.63.63,0,0,0,0-1.25.63.63,0,0,0,0,1.25Z"/><path class="cls-3" d="M4.85,115.5a.63.63,0,0,0,0-1.25.63.63,0,0,0,0,1.25Z"/><path class="cls-3" d="M18.4,111.19a.63.63,0,0,0,0-1.25.63.63,0,0,0,0,1.25Z"/><path class="cls-3" d="M12.86,113.65a.63.63,0,0,0,0-1.25.63.63,0,0,0,0,1.25Z"/><path class="cls-3" d="M23.94,112.42a.63.63,0,0,0,0-1.25.63.63,0,0,0,0,1.25Z"/><path class="cls-3" d="M23.33,114.27a.63.63,0,0,0,0-1.25.63.63,0,0,0,0,1.25Z"/><path class="cls-3" d="M24.56,118.58a.63.63,0,0,0,0-1.25.63.63,0,0,0,0,1.25Z"/><path class="cls-3" d="M28.87,124.74a.63.63,0,0,0,0-1.25.63.63,0,0,0,0,1.25Z"/><path class="cls-3" d="M35.65,133.36a.63.63,0,0,0,0-1.25.63.63,0,0,0,0,1.25Z"/><path class="cls-3" d="M33.18,143.21a.63.63,0,0,0,0-1.25.63.63,0,0,0,0,1.25Z"/><path class="cls-3" d="M48.58,145.06a.63.63,0,0,0,0-1.25.63.63,0,0,0,0,1.25Z"/><path class="cls-3" d="M51,143.83a.63.63,0,0,0,0-1.25.63.63,0,0,0,0,1.25Z"/><path class="cls-3" d="M69.52,140.13a.63.63,0,0,0,0-1.25.63.63,0,0,0,0,1.25Z"/><path class="cls-3" d="M63.36,143.21a.63.63,0,0,0,0-1.25.63.63,0,0,0,0,1.25Z"/><path class="cls-3" d="M73.21,150a.63.63,0,0,0,0-1.25.63.63,0,0,0,0,1.25Z"/><path class="cls-3" d="M56.59,135.21a.63.63,0,0,0,0-1.25.63.63,0,0,0,0,1.25Z"/><path class="cls-3" d="M60.9,130.28a.63.63,0,0,0,0-1.25.63.63,0,0,0,0,1.25Z"/><path class="cls-3" d="M71.37,140.13a.63.63,0,0,0,0-1.25.63.63,0,0,0,0,1.25Z"/><path class="cls-3" d="M80,134.59a.63.63,0,0,0,0-1.25.63.63,0,0,0,0,1.25Z"/><path class="cls-3" d="M79.37,145.68a.63.63,0,0,0,0-1.25.63.63,0,0,0,0,1.25Z"/><path class="cls-3" d="M86.15,143.21a.63.63,0,0,0,0-1.25.63.63,0,0,0,0,1.25Z"/><path class="cls-3" d="M91.07,137.06a.63.63,0,0,0,0-1.25.63.63,0,0,0,0,1.25Z"/><path class="cls-3" d="M96,139.52a.63.63,0,0,0,0-1.25.63.63,0,0,0,0,1.25Z"/><path class="cls-3" d="M113.86,139.52a.63.63,0,0,0,0-1.25.63.63,0,0,0,0,1.25Z"/><path class="cls-3" d="M88.44,133.79l.61-.61c.57-.57-.31-1.46-.88-.89l-.62.62c-.57.57.32,1.45.89.88Z"/><path class="cls-3" d="M124.33,132.74a.63.63,0,0,0,0-1.25.63.63,0,0,0,0,1.25Z"/><path class="cls-3" d="M106.47,136.44a.63.63,0,0,0,0-1.25.63.63,0,0,0,0,1.25Z"/><path class="cls-3" d="M105.24,153.07a.63.63,0,0,0,0-1.25.63.63,0,0,0,0,1.25Z"/><path class="cls-3" d="M106.47,139.52a.63.63,0,0,0,0-1.25.63.63,0,0,0,0,1.25Z"/><path class="cls-3" d="M102.16,140.13a.63.63,0,0,0,0-1.25.63.63,0,0,0,0,1.25Z"/><path class="cls-3" d="M102.16,134a.63.63,0,0,0,0-1.25.63.63,0,0,0,0,1.25Z"/><path class="cls-3" d="M133.57,130.9a.63.63,0,0,0,0-1.25.63.63,0,0,0,0,1.25Z"/><path class="cls-3" d="M113.86,136.44a.63.63,0,0,0,0-1.25.63.63,0,0,0,0,1.25Z"/><path class="cls-3" d="M91.69,127.82a.63.63,0,0,0,0-1.25.63.63,0,0,0,0,1.25Z"/><path class="cls-3" d="M120.64,124.12a.63.63,0,0,0,0-1.25.63.63,0,0,0,0,1.25Z"/><path class="cls-3" d="M126.18,119.2a.63.63,0,0,0,0-1.25.63.63,0,0,0,0,1.25Z"/><path class="cls-3" d="M113.25,113a.63.63,0,0,0,0-1.25.63.63,0,0,0,0,1.25Z"/><path class="cls-3" d="M150.81,110a.63.63,0,0,0,0-1.25.63.63,0,0,0,0,1.25Z"/><path class="cls-3" d="M134.19,114.88a.63.63,0,0,0,0-1.25.63.63,0,0,0,0,1.25Z"/><path class="cls-3" d="M131.11,114.88a.63.63,0,0,0,0-1.25.63.63,0,0,0,0,1.25Z"/><path class="cls-3" d="M126.18,114.88a.63.63,0,0,0,0-1.25.63.63,0,0,0,0,1.25Z"/><path class="cls-3" d="M139.73,116.73a.63.63,0,0,0,0-1.25.63.63,0,0,0,0,1.25Z"/><path class="cls-3" d="M137.88,119.2a.63.63,0,0,0,0-1.25.63.63,0,0,0,0,1.25Z"/><path class="cls-3" d="M126.18,125.35a.63.63,0,0,0,0-1.25.63.63,0,0,0,0,1.25Z"/><path class="cls-3" d="M128.64,131.51a.63.63,0,0,0,0-1.25.63.63,0,0,0,0,1.25Z"/><path class="cls-3" d="M146.5,140.75a.63.63,0,0,0,0-1.25.63.63,0,0,0,0,1.25Z"/><path class="cls-3" d="M145.89,133.36a.63.63,0,0,0,0-1.25.63.63,0,0,0,0,1.25Z"/><path class="cls-3" d="M141,127.82a.63.63,0,0,0,0-1.25.63.63,0,0,0,0,1.25Z"/><path class="cls-3" d="M153.89,119.2a.63.63,0,0,0,0-1.25.63.63,0,0,0,0,1.25Z"/><path class="cls-3" d="M139.73,118a.63.63,0,0,0,0-1.25.63.63,0,0,0,0,1.25Z"/><path class="cls-3" d="M152.05,114.27a.63.63,0,0,0,0-1.25.63.63,0,0,0,0,1.25Z"/><path class="cls-3" d="M147.12,129.05a.63.63,0,0,0,0-1.25.63.63,0,0,0,0,1.25Z"/><path class="cls-3" d="M149,118.58a.63.63,0,0,0,0-1.25.63.63,0,0,0,0,1.25Z"/><path class="cls-3" d="M146.5,111.8a.63.63,0,0,0,0-1.25.63.63,0,0,0,0,1.25Z"/><path class="cls-3" d="M154.51,100.1a.63.63,0,0,0,0-1.25.63.63,0,0,0,0,1.25Z"/><path class="cls-3" d="M145.27,100.72a.63.63,0,0,0,0-1.25.63.63,0,0,0,0,1.25Z"/><path class="cls-3" d="M173,93.33a.63.63,0,0,0,0-1.25.63.63,0,0,0,0,1.25Z"/><path class="cls-3" d="M150.81,90.87a.63.63,0,0,0,0-1.25.63.63,0,0,0,0,1.25Z"/><path class="cls-3" d="M191.46,81.63a.63.63,0,0,0,0-1.25.63.63,0,0,0,0,1.25Z"/><path class="cls-3" d="M140.34,86.55a.63.63,0,0,0,0-1.25.63.63,0,0,0,0,1.25Z"/><path class="cls-3" d="M150.81,82.86a.63.63,0,0,0,0-1.25.63.63,0,0,0,0,1.25Z"/><path class="cls-3" d="M158.82,79.16a.63.63,0,0,0,0-1.25.63.63,0,0,0,0,1.25Z"/><path class="cls-3" d="M160.05,77.93a.63.63,0,0,0,0-1.25.63.63,0,0,0,0,1.25Z"/><path class="cls-3" d="M160.67,77.32a.63.63,0,0,0,0-1.25.63.63,0,0,0,0,1.25Z"/><path class="cls-3" d="M169.91,77.93a.63.63,0,0,0,0-1.25.63.63,0,0,0,0,1.25Z"/><path class="cls-3" d="M145.27,95.18a.63.63,0,0,0,0-1.25.63.63,0,0,0,0,1.25Z"/><path class="cls-3" d="M181,88.4a.63.63,0,0,0,0-1.25.63.63,0,0,0,0,1.25Z"/><path class="cls-3" d="M163.75,90.87a.63.63,0,0,0,0-1.25.63.63,0,0,0,0,1.25Z"/><path class="cls-3" d="M169.91,82.24a.63.63,0,0,0,0-1.25.63.63,0,0,0,0,1.25Z"/><path class="cls-3" d="M165,83.47a.63.63,0,0,0,0-1.25.63.63,0,0,0,0,1.25Z"/><path class="cls-3" d="M152.66,87.17a.63.63,0,0,0,0-1.25.63.63,0,0,0,0,1.25Z"/><path class="cls-3" d="M163.75,82.24a.63.63,0,0,0,0-1.25.63.63,0,0,0,0,1.25Z"/><path class="cls-3" d="M156.36,75.47a.63.63,0,0,0,0-1.25.63.63,0,0,0,0,1.25Z"/><path class="cls-3" d="M166.21,69.31a.63.63,0,0,0,0-1.25.63.63,0,0,0,0,1.25Z"/><path class="cls-3" d="M161.9,69.31a.63.63,0,0,0,0-1.25.63.63,0,0,0,0,1.25Z"/><path class="cls-3" d="M155.12,67.46a.63.63,0,0,0,0-1.25.63.63,0,0,0,0,1.25Z"/><path class="cls-3" d="M148.35,60.07a.63.63,0,0,0,0-1.25.63.63,0,0,0,0,1.25Z"/><path class="cls-3" d="M154.51,57a.63.63,0,0,0,0-1.25.63.63,0,0,0,0,1.25Z"/><path class="cls-3" d="M144,76.08a.63.63,0,0,0,0-1.25.63.63,0,0,0,0,1.25Z"/><path class="cls-3" d="M141,63.15a.63.63,0,0,0,0-1.25.63.63,0,0,0,0,1.25Z"/><path class="cls-3" d="M131.11,65a.63.63,0,0,0,0-1.25.63.63,0,0,0,0,1.25Z"/><path class="cls-3" d="M153.28,63.77a.63.63,0,0,0,0-1.25.63.63,0,0,0,0,1.25Z"/><path class="cls-3" d="M159.44,62.53a.63.63,0,0,0,0-1.25.63.63,0,0,0,0,1.25Z"/><path class="cls-3" d="M170.52,64.38a.63.63,0,0,0,0-1.25.63.63,0,0,0,0,1.25Z"/><path class="cls-3" d="M173,73.62a.63.63,0,0,0,0-1.25.63.63,0,0,0,0,1.25Z"/><path class="cls-3" d="M173.6,75.47a.63.63,0,0,0,0-1.25.63.63,0,0,0,0,1.25Z"/><path class="cls-3" d="M171.75,83.47a.63.63,0,0,0,0-1.25.63.63,0,0,0,0,1.25Z"/><path class="cls-3" d="M157.59,91.48a.63.63,0,0,0,0-1.25.63.63,0,0,0,0,1.25Z"/><path class="cls-3" d="M157.59,93.33a.63.63,0,0,0,0-1.25.63.63,0,0,0,0,1.25Z"/><path class="cls-3" d="M161.9,101.33a.63.63,0,0,0,0-1.25.63.63,0,0,0,0,1.25Z"/><path class="cls-3" d="M158.2,109.34a.63.63,0,0,0,0-1.25.63.63,0,0,0,0,1.25Z"/><path class="cls-3" d="M157,114.27a.63.63,0,0,0,0-1.25.63.63,0,0,0,0,1.25Z"/><path class="cls-3" d="M161.28,118a.63.63,0,0,0,0-1.25.63.63,0,0,0,0,1.25Z"/><path class="cls-3" d="M171.14,116.73a.63.63,0,0,0,0-1.25.63.63,0,0,0,0,1.25Z"/><path class="cls-3" d="M165.59,109.34a.63.63,0,0,0,0-1.25.63.63,0,0,0,0,1.25Z"/><path class="cls-3" d="M165.89,108.61l1.85-1.23c.67-.44,0-1.52-.63-1.08l-1.85,1.23c-.66.45,0,1.53.63,1.08Z"/><path class="cls-3" d="M177.3,103.18a.63.63,0,0,0,0-1.25.63.63,0,0,0,0,1.25Z"/><path class="cls-3" d="M179.76,99.49a.63.63,0,0,0,0-1.25.63.63,0,0,0,0,1.25Z"/><path class="cls-3" d="M165.59,103.18a.63.63,0,0,0,0-1.25.63.63,0,0,0,0,1.25Z"/><path class="cls-3" d="M176.68,116.73a.63.63,0,0,0,0-1.25.63.63,0,0,0,0,1.25Z"/><path class="cls-3" d="M174.22,104.41a.63.63,0,0,0,0-1.25.63.63,0,0,0,0,1.25Z"/><path class="cls-3" d="M165.59,109.34a.63.63,0,0,0,0-1.25.63.63,0,0,0,0,1.25Z"/><path class="cls-3" d="M174.22,111.8a.63.63,0,0,0,0-1.25.63.63,0,0,0,0,1.25Z"/><path class="cls-3" d="M167.44,113.65a.63.63,0,0,0,0-1.25.63.63,0,0,0,0,1.25Z"/><path class="cls-3" d="M165,121.66a.63.63,0,0,0,0-1.25.63.63,0,0,0,0,1.25Z"/><path class="cls-3" d="M175.45,129.66a.63.63,0,0,0,0-1.25.63.63,0,0,0,0,1.25Z"/><path class="cls-3" d="M163.75,129.05a.63.63,0,0,0,0-1.25.63.63,0,0,0,0,1.25Z"/><path class="cls-3" d="M153.89,125.35a.63.63,0,0,0,0-1.25.63.63,0,0,0,0,1.25Z"/><path class="cls-3" d="M153.28,125.35a.63.63,0,0,0,0-1.25.63.63,0,0,0,0,1.25Z"/><path class="cls-3" d="M136,127.2a.63.63,0,0,0,0-1.25.63.63,0,0,0,0,1.25Z"/><path class="cls-3" d="M136,127.2a.63.63,0,0,0,0-1.25.63.63,0,0,0,0,1.25Z"/><path class="cls-3" d="M122.48,132.13a.63.63,0,0,0,0-1.25.63.63,0,0,0,0,1.25Z"/><path class="cls-3" d="M120,132.13a.63.63,0,0,0,0-1.25.63.63,0,0,0,0,1.25Z"/><path class="cls-3" d="M122.48,140.75a.63.63,0,0,0,0-1.25.63.63,0,0,0,0,1.25Z"/><path class="cls-3" d="M129.26,139.52a.63.63,0,0,0,0-1.25.63.63,0,0,0,0,1.25Z"/><path class="cls-3" d="M128,142.6a.63.63,0,0,0,0-1.25.63.63,0,0,0,0,1.25Z"/><path class="cls-3" d="M127.41,151.22a.63.63,0,0,0,0-1.25.63.63,0,0,0,0,1.25Z"/><path class="cls-3" d="M118.79,155.53a.63.63,0,0,0,0-1.25.63.63,0,0,0,0,1.25Z"/><path class="cls-3" d="M115.71,154.3a.63.63,0,0,0,0-1.25.63.63,0,0,0,0,1.25Z"/><path class="cls-3" d="M110.17,148.14a.63.63,0,0,0,0-1.25.63.63,0,0,0,0,1.25Z"/><path class="cls-3" d="M89.23,151.84a.63.63,0,0,0,0-1.25.63.63,0,0,0,0,1.25Z"/><path class="cls-3" d="M105.24,146.91a.63.63,0,0,0,0-1.25.63.63,0,0,0,0,1.25Z"/><path class="cls-3" d="M97.85,148.76a.63.63,0,0,0,0-1.25.63.63,0,0,0,0,1.25Z"/><path class="cls-3" d="M108.32,143.83a.63.63,0,0,0,0-1.25.63.63,0,0,0,0,1.25Z"/><path class="cls-3" d="M106.47,143.21a.63.63,0,0,0,0-1.25.63.63,0,0,0,0,1.25Z"/><path class="cls-3" d="M93.54,145.06a.63.63,0,0,0,0-1.25.63.63,0,0,0,0,1.25Z"/><path class="cls-3" d="M110.17,152.45a.63.63,0,0,0,0-1.25.63.63,0,0,0,0,1.25Z"/><path class="cls-3" d="M96.62,156.15a.63.63,0,0,0,0-1.25.63.63,0,0,0,0,1.25Z"/><path class="cls-3" d="M83.68,158a.63.63,0,0,0,0-1.25.63.63,0,0,0,0,1.25Z"/><path class="cls-3" d="M91.69,161.69a.63.63,0,0,0,0-1.25.63.63,0,0,0,0,1.25Z"/><path class="cls-3" d="M118.17,165.39a.63.63,0,0,0,0-1.25.63.63,0,0,0,0,1.25Z"/><path class="cls-3" d="M121.25,165.39a.63.63,0,0,0,0-1.25.63.63,0,0,0,0,1.25Z"/><path class="cls-3" d="M126.79,164.77a.63.63,0,0,0,0-1.25.63.63,0,0,0,0,1.25Z"/><path class="cls-3" d="M168.06,164.15a.63.63,0,0,0,0-1.25.63.63,0,0,0,0,1.25Z"/><path class="cls-3" d="M12.24,128.43a.63.63,0,0,0,0-1.25.63.63,0,0,0,0,1.25Z"/><path class="cls-3" d="M19,139.52a.63.63,0,0,0,0-1.25.63.63,0,0,0,0,1.25Z"/><path class="cls-3" d="M44.27,129.05a.63.63,0,0,0,0-1.25.63.63,0,0,0,0,1.25Z"/><path class="cls-3" d="M32.57,135.21a.63.63,0,0,0,0-1.25.63.63,0,0,0,0,1.25Z"/><path class="cls-3" d="M60.28,153.07a.63.63,0,0,0,0-1.25.63.63,0,0,0,0,1.25Z"/><path class="cls-3" d="M65.82,150a.63.63,0,0,0,0-1.25.63.63,0,0,0,0,1.25Z"/><path class="cls-3" d="M51.66,151.22a.63.63,0,0,0,0-1.25.63.63,0,0,0,0,1.25Z"/><path class="cls-3" d="M27.64,153.07a.63.63,0,0,0,0-1.25.63.63,0,0,0,0,1.25Z"/><path class="cls-3" d="M53.51,151.84a.63.63,0,0,0,0-1.25.63.63,0,0,0,0,1.25Z"/><path class="cls-3" d="M32,155.53a.63.63,0,0,0,0-1.25.63.63,0,0,0,0,1.25Z"/><path class="cls-3" d="M37.49,147.53a.63.63,0,0,0,0-1.25.63.63,0,0,0,0,1.25Z"/><path class="cls-3" d="M21.48,145.68a.63.63,0,0,0,0-1.25.63.63,0,0,0,0,1.25Z"/><path class="cls-3" d="M2.39,137.67a.63.63,0,0,0,0-1.25.63.63,0,0,0,0,1.25Z"/><path class="cls-3" d="M4.85,140.75a.63.63,0,0,0,0-1.25.63.63,0,0,0,0,1.25Z"/><path class="cls-3" d="M44.27,150a.63.63,0,0,0,0-1.25.63.63,0,0,0,0,1.25Z"/><path class="cls-3" d="M40,154.3a.63.63,0,0,0,0-1.25.63.63,0,0,0,0,1.25Z"/><path class="cls-3" d="M52.89,164.15a.63.63,0,0,0,0-1.25.63.63,0,0,0,0,1.25Z"/><path class="cls-3" d="M56.59,164.15a.63.63,0,0,0,0-1.25.63.63,0,0,0,0,1.25Z"/><path class="cls-3" d="M49.81,175.24a.63.63,0,0,0,0-1.25.63.63,0,0,0,0,1.25Z"/><path class="cls-3" d="M70.75,177.09a.63.63,0,0,0,0-1.25.63.63,0,0,0,0,1.25Z"/><path class="cls-3" d="M86.15,178.93a.63.63,0,0,0,0-1.25.63.63,0,0,0,0,1.25Z"/><path class="cls-3" d="M89.84,180.17a.63.63,0,0,0,0-1.25.63.63,0,0,0,0,1.25Z"/><path class="cls-3" d="M94.77,173.39a.63.63,0,0,0,0-1.25.63.63,0,0,0,0,1.25Z"/><path class="cls-3" d="M100.93,167.85a.63.63,0,0,0,0-1.25.63.63,0,0,0,0,1.25Z"/><path class="cls-3" d="M113.25,164.15a.63.63,0,0,0,0-1.25.63.63,0,0,0,0,1.25Z"/><path class="cls-3" d="M98.46,164.77a.63.63,0,0,0,0-1.25.63.63,0,0,0,0,1.25Z"/><path class="cls-3" d="M66.44,166a.63.63,0,0,0,0-1.25.63.63,0,0,0,0,1.25Z"/><path class="cls-3" d="M78.14,158.61a.63.63,0,0,0,0-1.25.63.63,0,0,0,0,1.25Z"/><path class="cls-3" d="M75.06,158.61a.63.63,0,0,0,0-1.25.63.63,0,0,0,0,1.25Z"/><path class="cls-3" d="M70.13,159.23a.63.63,0,0,0,0-1.25.63.63,0,0,0,0,1.25Z"/><path class="cls-3" d="M96,149.37a.63.63,0,0,0,0-1.25.63.63,0,0,0,0,1.25Z"/><path class="cls-3" d="M108.32,166.62h.61a.63.63,0,0,0,0-1.25h-.61a.63.63,0,0,0,0,1.25Z"/><path class="cls-3" d="M144.66,160.46a.63.63,0,0,0,0-1.25.63.63,0,0,0,0,1.25Z"/><path class="cls-3" d="M147.12,153.07a.63.63,0,0,0,0-1.25.63.63,0,0,0,0,1.25Z"/><path class="cls-3" d="M153.28,154.3a.63.63,0,0,0,0-1.25.63.63,0,0,0,0,1.25Z"/><path class="cls-3" d="M146.5,152.45a.63.63,0,0,0,0-1.25.63.63,0,0,0,0,1.25Z"/><path class="cls-3" d="M161.9,146.29a.63.63,0,0,0,0-1.25.63.63,0,0,0,0,1.25Z"/><path class="cls-3" d="M134.8,148.14a.63.63,0,0,0,0-1.25.63.63,0,0,0,0,1.25Z"/><path class="cls-3" d="M177.3,144.45a.63.63,0,0,0,0-1.25.63.63,0,0,0,0,1.25Z"/><path class="cls-3" d="M152.66,144.45a.63.63,0,0,0,0-1.25.63.63,0,0,0,0,1.25Z"/><path class="cls-3" d="M133.57,149.37a.63.63,0,0,0,0-1.25.63.63,0,0,0,0,1.25Z"/><path class="cls-3" d="M150.2,146.91a.63.63,0,0,0,0-1.25.63.63,0,0,0,0,1.25Z"/><path class="cls-3" d="M141,148.14a.63.63,0,0,0,0-1.25.63.63,0,0,0,0,1.25Z"/><path class="cls-3" d="M179.76,138.29a.63.63,0,0,0,0-1.25.63.63,0,0,0,0,1.25Z"/><path class="cls-3" d="M157.59,139.52a.63.63,0,0,0,0-1.25.63.63,0,0,0,0,1.25Z"/><path class="cls-3" d="M171.14,134.59a.63.63,0,0,0,0-1.25.63.63,0,0,0,0,1.25Z"/><path class="cls-3" d="M160.67,137.67h.61a.63.63,0,0,0,0-1.25h-.61a.63.63,0,0,0,0,1.25Z"/><path class="cls-3" d="M178.53,138.9a.63.63,0,0,0,0-1.25.63.63,0,0,0,0,1.25Z"/><path class="cls-3" d="M171.14,145.06a.63.63,0,0,0,0-1.25.63.63,0,0,0,0,1.25Z"/><path class="cls-3" d="M168.06,138.9a.63.63,0,0,0,0-1.25.63.63,0,0,0,0,1.25Z"/><path class="cls-3" d="M165,131.51a.63.63,0,0,0,0-1.25.63.63,0,0,0,0,1.25Z"/><path class="cls-3" d="M171.75,125.35a.63.63,0,0,0,0-1.25.63.63,0,0,0,0,1.25Z"/><path class="cls-3" d="M177.3,120.43a.63.63,0,0,0,0-1.25.63.63,0,0,0,0,1.25Z"/><path class="cls-3" d="M182.22,115.5a.63.63,0,0,0,0-1.25.63.63,0,0,0,0,1.25Z"/><path class="cls-3" d="M184.69,111.19a.63.63,0,0,0,0-1.25.63.63,0,0,0,0,1.25Z"/><path class="cls-3" d="M187.15,108.11a.63.63,0,0,0,0-1.25.63.63,0,0,0,0,1.25Z"/><path class="cls-3" d="M189.61,102a.63.63,0,0,0,0-1.25.63.63,0,0,0,0,1.25Z"/><path class="cls-3" d="M189.61,95.18a.63.63,0,0,0,0-1.25.63.63,0,0,0,0,1.25Z"/><path class="cls-3" d="M186.53,90.87a.63.63,0,0,0,0-1.25.63.63,0,0,0,0,1.25Z"/><path class="cls-3" d="M182.22,82.86a.63.63,0,0,0,0-1.25.63.63,0,0,0,0,1.25Z"/><path class="cls-3" d="M182.22,74.24a.63.63,0,0,0,0-1.25.63.63,0,0,0,0,1.25Z"/><path class="cls-3" d="M181.61,73a.63.63,0,0,0,0-1.25.63.63,0,0,0,0,1.25Z"/><path class="cls-3" d="M175.45,44.67a.63.63,0,0,0,0-1.25.63.63,0,0,0,0,1.25Z"/><path class="cls-3" d="M152.66,45.29a.63.63,0,0,0,0-1.25.63.63,0,0,0,0,1.25Z"/><path class="cls-3" d="M144.66,42.21a.63.63,0,0,0,0-1.25.63.63,0,0,0,0,1.25Z"/><path class="cls-3" d="M131.72,41a.63.63,0,0,0,0-1.25.63.63,0,0,0,0,1.25Z"/><path class="cls-3" d="M139.73,26.81a.63.63,0,0,0,0-1.25.63.63,0,0,0,0,1.25Z"/><path class="cls-3" d="M121.25,30.51a.63.63,0,0,0,0-1.25.63.63,0,0,0,0,1.25Z"/><path class="cls-3" d="M138.5,30.51a.63.63,0,0,0,0-1.25.63.63,0,0,0,0,1.25Z"/><path class="cls-3" d="M131.72,34.2a.63.63,0,0,0,0-1.25.63.63,0,0,0,0,1.25Z"/><path class="cls-3" d="M152.05,37.9a.63.63,0,0,0,0-1.25.63.63,0,0,0,0,1.25Z"/><path class="cls-3" d="M176.68,105a.63.63,0,0,0,0-1.25.63.63,0,0,0,0,1.25Z"/><path class="cls-3" d="M75.68,43.44a.63.63,0,0,0,0-1.25.63.63,0,0,0,0,1.25Z"/><path class="cls-3" d="M37.49,37.28a.63.63,0,0,0,0-1.25.63.63,0,0,0,0,1.25Z"/><path class="cls-3" d="M12.24,61.92a.63.63,0,0,0,0-1.25.63.63,0,0,0,0,1.25Z"/><path class="cls-3" d="M30.72,41a.63.63,0,0,0,0-1.25.63.63,0,0,0,0,1.25Z"/><path class="cls-3" d="M16.55,44.67a.63.63,0,0,0,0-1.25.63.63,0,0,0,0,1.25Z"/><path class="cls-3" d="M10.4,59.46a.63.63,0,0,0,0-1.25.63.63,0,0,0,0,1.25Z"/><path class="cls-3" d="M14.71,58.22a.63.63,0,0,0,0-1.25.63.63,0,0,0,0,1.25Z"/><path class="cls-3" d="M3.62,73.62a.63.63,0,0,0,0-1.25.63.63,0,0,0,0,1.25Z"/><path class="cls-3" d="M4.85,69.31a.63.63,0,0,0,0-1.25.63.63,0,0,0,0,1.25Z"/><path class="cls-3" d="M9.78,77.93a.63.63,0,0,0,0-1.25.63.63,0,0,0,0,1.25Z"/><path class="cls-3" d="M6.08,82.86a.63.63,0,0,0,0-1.25.63.63,0,0,0,0,1.25Z"/><path class="cls-3" d="M1.77,86.55a.63.63,0,0,0,0-1.25.63.63,0,0,0,0,1.25Z"/><path class="cls-3" d="M1.16,92.71a.63.63,0,0,0,0-1.25.63.63,0,0,0,0,1.25Z"/><path class="cls-3" d="M13.47,94.56a.63.63,0,0,0,0-1.25.63.63,0,0,0,0,1.25Z"/><path class="cls-3" d="M14.71,90.87a.63.63,0,0,0,0-1.25.63.63,0,0,0,0,1.25Z"/><path class="cls-3" d="M8.55,90.25a.63.63,0,0,0,0-1.25.63.63,0,0,0,0,1.25Z"/><path class="cls-3" d="M11,94.56a.63.63,0,0,0,0-1.25.63.63,0,0,0,0,1.25Z"/><path class="cls-3" d="M15.94,100.1a.63.63,0,0,0,0-1.25.63.63,0,0,0,0,1.25Z"/><path class="cls-3" d="M6.08,98.26a.63.63,0,0,0,0-1.25.63.63,0,0,0,0,1.25Z"/><path class="cls-3" d="M3,96.41a.63.63,0,0,0,0-1.25.63.63,0,0,0,0,1.25Z"/><path class="cls-3" d="M3.62,89a.63.63,0,0,0,0-1.25.63.63,0,0,0,0,1.25Z"/><path class="cls-3" d="M9.16,82.24a.63.63,0,0,0,0-1.25.63.63,0,0,0,0,1.25Z"/><path class="cls-3" d="M59.67,87.17a.63.63,0,0,0,0-1.25.63.63,0,0,0,0,1.25Z"/><path class="cls-3" d="M76.29,84.71a.63.63,0,0,0,0-1.25.63.63,0,0,0,0,1.25Z"/><path class="cls-3" d="M74.45,83.47a.63.63,0,0,0,0-1.25.63.63,0,0,0,0,1.25Z"/><path class="cls-3" d="M70.75,87.79a.63.63,0,0,0,0-1.25.63.63,0,0,0,0,1.25Z"/><path class="cls-3" d="M70.75,75.47a.63.63,0,0,0,0-1.25.63.63,0,0,0,0,1.25Z"/><path class="cls-3" d="M65.21,84.71a.63.63,0,0,0,0-1.25.63.63,0,0,0,0,1.25Z"/><path class="cls-3" d="M74.45,86.55a.63.63,0,0,0,0-1.25.63.63,0,0,0,0,1.25Z"/><path class="cls-3" d="M72.6,82.86a.63.63,0,0,0,0-1.25.63.63,0,0,0,0,1.25Z"/><path class="cls-3" d="M61.51,85.94a.63.63,0,0,0,0-1.25.63.63,0,0,0,0,1.25Z"/><path class="cls-3" d="M70.75,90.87a.63.63,0,0,0,0-1.25.63.63,0,0,0,0,1.25Z"/><path class="cls-3" d="M75.06,89.63a.63.63,0,0,0,0-1.25.63.63,0,0,0,0,1.25Z"/><path class="cls-3" d="M70.13,98.87a.63.63,0,0,0,0-1.25.63.63,0,0,0,0,1.25Z"/><path class="cls-3" d="M58.43,92.71a.63.63,0,0,0,0-1.25.63.63,0,0,0,0,1.25Z"/><path class="cls-3" d="M68.9,88.4a.63.63,0,0,0,0-1.25.63.63,0,0,0,0,1.25Z"/><path class="cls-3" d="M70.13,87.17a.63.63,0,0,0,0-1.25.63.63,0,0,0,0,1.25Z"/><path class="cls-3" d="M73.83,82.24a.63.63,0,0,0,0-1.25.63.63,0,0,0,0,1.25Z"/><path class="cls-3" d="M77.53,79.78a.63.63,0,0,0,0-1.25.63.63,0,0,0,0,1.25Z"/><path class="cls-3" d="M61.51,25.58a.63.63,0,0,0,0-1.25.63.63,0,0,0,0,1.25Z"/><path class="cls-3" d="M49.81,34.2a.63.63,0,0,0,0-1.25.63.63,0,0,0,0,1.25Z"/><path class="cls-3" d="M63.36,26.2a.63.63,0,0,0,0-1.25.63.63,0,0,0,0,1.25Z"/><path class="cls-3" d="M60.9,28.05a.63.63,0,0,0,0-1.25.63.63,0,0,0,0,1.25Z"/><path class="cls-3" d="M57.2,30.51a.63.63,0,0,0,0-1.25.63.63,0,0,0,0,1.25Z"/><path class="cls-3" d="M54.12,24.35a.63.63,0,0,0,0-1.25.63.63,0,0,0,0,1.25Z"/><path class="cls-3" d="M64.59,25a.63.63,0,0,0,0-1.25.63.63,0,0,0,0,1.25Z"/><path class="cls-3" d="M73,24.17l.62-.62c.57-.57-.32-1.45-.89-.88l-.61.61c-.57.57.31,1.46.88.89Z"/><path class="cls-3" d="M83.68,19.42a.63.63,0,0,0,0-1.25.63.63,0,0,0,0,1.25Z"/><path class="cls-3" d="M75.06,37.9a.63.63,0,0,0,0-1.25.63.63,0,0,0,0,1.25Z"/><path class="cls-3" d="M86.15,37.28a.63.63,0,0,0,0-1.25.63.63,0,0,0,0,1.25Z"/><path class="cls-3" d="M80,25a.63.63,0,0,0,0-1.25A.63.63,0,0,0,80,25Z"/><path class="cls-3" d="M82.45,20.66a.63.63,0,0,0,0-1.25.63.63,0,0,0,0,1.25Z"/><path class="cls-3" d="M88,19.42a.63.63,0,0,0,0-1.25.63.63,0,0,0,0,1.25Z"/><path class="cls-3" d="M72,12.65a.63.63,0,0,0,0-1.25.63.63,0,0,0,0,1.25Z"/><path class="cls-3" d="M49.81,30.51a.63.63,0,0,0,0-1.25.63.63,0,0,0,0,1.25Z"/></g><g class="cls-4"><line class="cls-5" x1="-80.2" y1="245.21" x2="81.81" y2="21.49"/><line class="cls-5" x1="-94.27" y1="242.73" x2="67.74" y2="19"/><line class="cls-5" x1="-108.33" y1="240.24" x2="53.67" y2="16.52"/><line class="cls-5" x1="-122.4" y1="237.76" x2="39.61" y2="14.03"/><line class="cls-5" x1="-136.47" y1="235.27" x2="25.54" y2="11.54"/><line class="cls-5" x1="-150.53" y1="232.78" x2="11.47" y2="9.06"/></g></svg>