<svg id="Capa_1" data-name="Capa 1" xmlns="http://www.w3.org/2000/svg" xmlns:xlink="http://www.w3.org/1999/xlink" viewBox="0 0 200 200"><defs><style>

.cls-1,.cls-3,.cls-7{

fill:none;




animation: form3 10s infinite linear;
transform-origin: 50% 50%;
}

    @keyframes form3 {
        from {transform: rotate(0deg)}
        to {transform: rotate(360deg)}  

}



.cls-2{clip-path:url(#clip-path);}.cls-3{stroke:#fff;stroke-width:0.75px;}.cls-4{clip-path:url(#clip-path-2);}.cls-5{fill:#fff;}.cls-6{clip-path:url(#clip-path-3);}.cls-7{stroke:#c6c6c5;stroke-linecap:round;stroke-miterlimit:10;stroke-width:0.75px;stroke-dasharray:1 6;}



</style><clipPath id="clip-path"><rect class="cls-1" x="48.07" y="47.62" width="104.69" height="104.69"/></clipPath><clipPath id="clip-path-2"><polygon class="cls-1" points="35.81 250.82 110.37 242.05 192.24 231.82 143.99 281.52 192.24 408.71 163 398.48 151.3 384.19 133.76 359.01 8.03 313.69 35.81 250.82"/></clipPath><clipPath id="clip-path-3"><path class="cls-1" d="M273.18,326.49c-19.48,9.49-30.37,6.37-38.5,13-10.41,8.51-1.43,20.85,7.09,32.56,9.53,13.1,18,24.71,34.7,27.58,30.9,5.31,67.35-23.08,73.19-27.63,21.27-16.57,25.89-32.42,35.14-64.11,10.1-34.61,4.05-45.41-3.23-53.09-2.93-3.09-21.38-22.53-48-23-20.78-.4-38.5,10.91-42.91,21.46C285.75,265,300.07,269.62,300,292c0,9.35-2.56,14.33-5,17.76C293.62,311.71,287.89,319.31,273.18,326.49Z"/></clipPath></defs><title>pantallas</title><rect x="0.5" y="0.5" width="199" height="199"/><path d="M199,1V199H1V1H199m1-1H0V200H200V0Z"/><g class="cls-2"><path class="cls-3" d="M99.94,144.2,91.7,151M96,144l-8.89,6m4.76-6.62-9.11,5.26m5.23-6.21-9.61,4.38m5.82-5.68-10,3.46m6.35-5.1L70.19,142M77,137.52l-10.53,1.53m7.23-3.81-10.66.55m7.57-3.11-10.68-.45m7.72-2.52-10.5-1.31m7.94-1.78-10.37-2.29m8.1-1-10.07-3.08m8.11-.41-9.76-4m8.13.38-9.36-5m8.06,1.18-8.87-5.86m7.93,2-8.31-6.72m7.71,2.77L48.73,97m7.45,3.34-7-7.88m7.13,3.89-6.23-8.55m6.73,4.59-5.41-9.15m6.26,5.25-4.53-9.66m5.73,5.84-3.6-10.07m5.23,6.22L57.77,70.61m4.63,6.71L60.63,66.84m4,7.14-.92-10.5m3.43,7.36.06-10.56M69.89,68l1-10.54m2,7.9,2-10.42M76.17,63l3-10.21m.43,8.16,4-9.9m-.36,8.17,4.92-9.51m-1,8.07,5.65-9m-1.78,8,6.32-8.44M95,56.06l7.13-7.83m-3.15,7.52,7.88-7.15m-3.89,7.19,8.58-6.4m-4.42,6.83,9-5.6M111,57l9.37-4.82m-5.53,6,9.81-3.91m-6.09,5.39,10.17-3m-6.6,4.79,10.43-2m-7,4.14,10.6-1M128.73,66l10.67,0m-7.71,2.75,10.66,1m-7.83,2.15L145,73.57m-8,1.4,10.26,2.78m-8.15.63L149,82m-8.12,0,9.56,4.5m-8.1-.77,9.12,5.41m-8-1.58L152,95.81m-7.83-2.37,8,7.12m-7.58-3,7.34,7.52m-7.32-3.53,6.62,8.23m-6.94-4.25,5.83,8.86m-6.51-4.92,5,9.41m-6-5.55,4.06,9.88m-5.44-6.12,3.12,10.24m-4.94-6.47,2.25,10.37m-4.31-6.93,1.28,10.56M135,127.58l.43,10.54m-3.08-7.52-.56,10.56m-2.34-7.8-1.55,10.49m-1.59-8-2.53,10.31m-.82-8.12-3.5,10.07m0-8.18L115,149.66m.76-8.16-5.37,9.28m1.38-8-5.89,8.71m2-7.87-6.72,8.13"/></g><g class="cls-4"><path class="cls-5" d="M112.42,196.31a1.25,1.25,0,0,0,0-2.5,1.25,1.25,0,0,0,0,2.5Z"/><path class="cls-5" d="M62,191.93a1.25,1.25,0,0,0,0-2.5,1.25,1.25,0,0,0,0,2.5Z"/><path class="cls-5" d="M13.73,176.57a1.25,1.25,0,0,0,0-2.5,1.25,1.25,0,0,0,0,2.5Z"/><path class="cls-5" d="M33.47,196.31a1.25,1.25,0,0,0,0-2.5,1.25,1.25,0,0,0,0,2.5Z"/><path class="cls-5" d="M46.63,181a1.25,1.25,0,0,0,0-2.5,1.25,1.25,0,0,0,0,2.5Z"/><path class="cls-5" d="M77.33,172.19a1.25,1.25,0,0,0,0-2.5,1.25,1.25,0,0,0,0,2.5Z"/><path class="cls-5" d="M132.16,189.73a1.25,1.25,0,0,0,0-2.5,1.25,1.25,0,0,0,0,2.5Z"/><path class="cls-5" d="M191.38,196.31a1.25,1.25,0,0,0,0-2.5,1.25,1.25,0,0,0,0,2.5Z"/><path class="cls-5" d="M97.65,194a.63.63,0,0,0,0-1.25.63.63,0,0,0,0,1.25Z"/></g><g class="cls-6"><line class="cls-7" x1="193.67" y1="403.96" x2="343.56" y2="196.97"/><line class="cls-7" x1="180.66" y1="401.66" x2="330.54" y2="194.67"/><line class="cls-7" x1="167.64" y1="399.36" x2="317.53" y2="192.37"/><line class="cls-7" x1="154.63" y1="397.06" x2="304.51" y2="190.07"/><line class="cls-7" x1="141.61" y1="394.76" x2="291.5" y2="187.77"/><line class="cls-7" x1="188.52" y1="401.63" x2="338.4" y2="194.64"/><line class="cls-7" x1="175.5" y1="399.33" x2="325.39" y2="192.34"/><line class="cls-7" x1="162.49" y1="397.03" x2="312.37" y2="190.04"/><line class="cls-7" x1="149.47" y1="394.73" x2="299.36" y2="187.74"/><line class="cls-7" x1="136.46" y1="392.43" x2="286.34" y2="185.44"/></g></svg>