<svg id="Capa_1" data-name="Capa 1" xmlns="http://www.w3.org/2000/svg" xmlns:xlink="http://www.w3.org/1999/xlink" viewBox="0 0 200 200"><defs><style>.cls-1,.cls-5{fill:none;}.cls-2{clip-path:url(#clip-path);}.cls-3{fill:#fff;}.cls-4{clip-path:url(#clip-path-2);}.cls-5{stroke:#c6c6c5;stroke-linecap:round;stroke-miterlimit:10;stroke-width:0.75px;stroke-dasharray:1 6;}</style><clipPath id="clip-path"><polygon class="cls-1" points="-184.19 30.82 -109.63 22.05 -27.76 11.82 -76.01 61.52 -27.76 188.71 -57 178.48 -68.7 164.19 -86.24 139.01 -211.97 93.69 -184.19 30.82"/></clipPath><clipPath id="clip-path-2"><path class="cls-1" d="M53.18,106.49c-19.48,9.49-30.37,6.37-38.5,13-10.41,8.51-1.43,20.85,7.09,32.56,9.53,13.1,18,24.71,34.7,27.58,30.9,5.31,67.35-23.08,73.19-27.63,21.27-16.57,25.89-32.42,35.14-64.11,10.1-34.61,4-45.41-3.23-53.09-2.93-3.09-21.38-22.53-48-23-20.78-.4-38.5,10.91-42.91,21.46C65.75,45,80.07,49.62,80,72c0,9.35-2.56,14.33-5,17.76C73.62,91.71,67.89,99.31,53.18,106.49Z"/></clipPath></defs><title>formas-cuadrado</title><rect x="0.5" y="0.5" width="199" height="199"/><path d="M199,1V199H1V1H199m1-1H0V200H200V0Z"/><g class="cls-2"><path class="cls-3" d="M4.27,88.16a1.25,1.25,0,0,0,0-2.5,1.25,1.25,0,0,0,0,2.5Z"/><path class="cls-3" d="M26.21,94.74a1.25,1.25,0,0,0,0-2.5,1.25,1.25,0,0,0,0,2.5Z"/><path class="cls-3" d="M-.11,134.22a1.25,1.25,0,0,0,0-2.5,1.25,1.25,0,0,0,0,2.5Z"/><path class="cls-3" d="M-.11,114.48a1.25,1.25,0,0,0,0-2.5,1.25,1.25,0,0,0,0,2.5Z"/><path class="cls-3" d="M17.43,39.91a1.25,1.25,0,0,0,0-2.5,1.25,1.25,0,0,0,0,2.5Z"/><path class="cls-3" d="M30.59,61.85a1.25,1.25,0,0,0,0-2.5,1.25,1.25,0,0,0,0,2.5Z"/><path class="cls-3" d="M39.36,61.85a1.25,1.25,0,0,0,0-2.5,1.25,1.25,0,0,0,0,2.5Z"/><path class="cls-3" d="M48.14,31.14a1.25,1.25,0,0,0,0-2.5,1.25,1.25,0,0,0,0,2.5Z"/><path class="cls-3" d="M49,29l-2.19-2.2a1.25,1.25,0,0,0-1.77,1.77l2.19,2.2A1.25,1.25,0,0,0,49,29Z"/><path class="cls-3" d="M-.11,31.14a1.25,1.25,0,0,0,0-2.5,1.25,1.25,0,0,0,0,2.5Z"/><path class="cls-3" d="M32.78,18a1.25,1.25,0,0,0,0-2.5,1.25,1.25,0,0,0,0,2.5Z"/><path class="cls-3" d="M13.05,22.37a1.25,1.25,0,0,0,0-2.5,1.25,1.25,0,0,0,0,2.5Z"/><path class="cls-3" d="M52.52,46.49a1.25,1.25,0,0,0,0-2.5,1.25,1.25,0,0,0,0,2.5Z"/><path class="cls-3" d="M67.88,70.62a1.25,1.25,0,0,0,0-2.5,1.25,1.25,0,0,0,0,2.5Z"/><path class="cls-3" d="M15.24,116.68a1.25,1.25,0,0,0,0-2.5,1.25,1.25,0,0,0,0,2.5Z"/><path class="cls-3" d="M15.24,175.89a1.25,1.25,0,0,0,0-2.5,1.25,1.25,0,0,0,0,2.5Z"/><path class="cls-3" d="M6.47,173.7a1.25,1.25,0,0,0,0-2.5,1.25,1.25,0,0,0,0,2.5Z"/><path class="cls-3" d="M30.59,132a1.25,1.25,0,0,0,0-2.5,1.25,1.25,0,0,0,0,2.5Z"/><path class="cls-3" d="M21.82,154a1.25,1.25,0,0,0,0-2.5,1.25,1.25,0,0,0,0,2.5Z"/><path class="cls-3" d="M50.33,140.8a1.25,1.25,0,0,0,0-2.5,1.25,1.25,0,0,0,0,2.5Z"/><path class="cls-3" d="M43.75,132a1.25,1.25,0,0,0,0-2.5,1.25,1.25,0,0,0,0,2.5Z"/><path class="cls-3" d="M35.82,118.13,38,113.76c.73-1.43-1.42-2.7-2.16-1.26l-2.22,4.36c-.73,1.44,1.43,2.7,2.16,1.27Z"/><path class="cls-3" d="M52.52,96.94a1.25,1.25,0,0,0,0-2.5,1.25,1.25,0,0,0,0,2.5Z"/><path class="cls-3" d="M13.63,82.65a.63.63,0,0,0,0-1.25.63.63,0,0,0,0,1.25Z"/><path class="cls-3" d="M38.5,66.89a.63.63,0,0,0,0-1.25.63.63,0,0,0,0,1.25Z"/><path class="cls-3" d="M9.48,61.92a.63.63,0,0,0,0-1.25.63.63,0,0,0,0,1.25Z"/><path class="cls-3" d="M24.41,76a.63.63,0,0,0,0-1.25.63.63,0,0,0,0,1.25Z"/><path class="cls-3" d="M1.19,79.33a.63.63,0,0,0,0-1.25.63.63,0,0,0,0,1.25Z"/><path class="cls-3" d="M9.48,67.72a.63.63,0,0,0,0-1.25.63.63,0,0,0,0,1.25Z"/><path class="cls-3" d="M2.85,69.38a.63.63,0,0,0,0-1.25.63.63,0,0,0,0,1.25Z"/><path class="cls-3" d="M1.19,67.72a.63.63,0,0,0,0-1.25.63.63,0,0,0,0,1.25Z"/><path class="cls-3" d="M4.51,50.31a.63.63,0,0,0,0-1.25.63.63,0,0,0,0,1.25Z"/><path class="cls-3" d="M10.31,43.68a.63.63,0,0,0,0-1.25.63.63,0,0,0,0,1.25Z"/><path class="cls-3" d="M13.63,56.12a.63.63,0,0,0,0-1.25.63.63,0,0,0,0,1.25Z"/><path class="cls-3" d="M14.46,58.6a.63.63,0,0,0,0-1.25.63.63,0,0,0,0,1.25Z"/><path class="cls-3" d="M12,69.38a.63.63,0,0,0,0-1.25.63.63,0,0,0,0,1.25Z"/><path class="cls-3" d="M11.14,114.16a.63.63,0,0,0,0-1.25.63.63,0,0,0,0,1.25Z"/><path class="cls-3" d="M3.68,104.21a.63.63,0,0,0,0-1.25.63.63,0,0,0,0,1.25Z"/><path class="cls-3" d="M4,103.26l2.49-1.66c.67-.44,0-1.53-.63-1.08l-2.49,1.66c-.67.44,0,1.52.63,1.08Z"/><path class="cls-3" d="M19.43,95.91a.63.63,0,0,0,0-1.25.63.63,0,0,0,0,1.25Z"/><path class="cls-3" d="M22.75,90.94a.63.63,0,0,0,0-1.25.63.63,0,0,0,0,1.25Z"/><path class="cls-3" d="M3.68,95.91a.63.63,0,0,0,0-1.25.63.63,0,0,0,0,1.25Z"/><path class="cls-3" d="M18.6,114.16a.63.63,0,0,0,0-1.25.63.63,0,0,0,0,1.25Z"/><path class="cls-3" d="M15.29,97.57a.63.63,0,0,0,0-1.25.63.63,0,0,0,0,1.25Z"/><path class="cls-3" d="M3.68,104.21a.63.63,0,0,0,0-1.25.63.63,0,0,0,0,1.25Z"/><path class="cls-3" d="M15.29,107.52a.63.63,0,0,0,0-1.25.63.63,0,0,0,0,1.25Z"/><path class="cls-3" d="M6.17,110a.63.63,0,0,0,0-1.25.63.63,0,0,0,0,1.25Z"/><path class="cls-3" d="M2.85,120.79a.63.63,0,0,0,0-1.25.63.63,0,0,0,0,1.25Z"/><path class="cls-3" d="M17,131.57a.63.63,0,0,0,0-1.25.63.63,0,0,0,0,1.25Z"/><path class="cls-3" d="M1.19,130.74a.63.63,0,0,0,0-1.25.63.63,0,0,0,0,1.25Z"/><path class="cls-3" d="M7,178a.63.63,0,0,0,0-1.25A.63.63,0,0,0,7,178Z"/><path class="cls-3" d="M19.43,151.47a.63.63,0,0,0,0-1.25.63.63,0,0,0,0,1.25Z"/><path class="cls-3" d="M22.75,143.18a.63.63,0,0,0,0-1.25.63.63,0,0,0,0,1.25Z"/><path class="cls-3" d="M11.14,138.2a.63.63,0,0,0,0-1.25.63.63,0,0,0,0,1.25Z"/><path class="cls-3" d="M21.09,144a.63.63,0,0,0,0-1.25.63.63,0,0,0,0,1.25Z"/><path class="cls-3" d="M11.14,152.3a.63.63,0,0,0,0-1.25.63.63,0,0,0,0,1.25Z"/><path class="cls-3" d="M7,144a.63.63,0,0,0,0-1.25A.63.63,0,0,0,7,144Z"/><path class="cls-3" d="M2.85,134.06a.63.63,0,0,0,0-1.25.63.63,0,0,0,0,1.25Z"/><path class="cls-3" d="M12,125.76a.63.63,0,0,0,0-1.25.63.63,0,0,0,0,1.25Z"/><path class="cls-3" d="M19.43,119.13a.63.63,0,0,0,0-1.25.63.63,0,0,0,0,1.25Z"/><path class="cls-3" d="M26.07,112.5a.63.63,0,0,0,0-1.25.63.63,0,0,0,0,1.25Z"/><path class="cls-3" d="M29.38,106.69a.63.63,0,0,0,0-1.25.63.63,0,0,0,0,1.25Z"/><path class="cls-3" d="M32.7,102.55a.63.63,0,0,0,0-1.25.63.63,0,0,0,0,1.25Z"/><path class="cls-3" d="M36,94.26A.63.63,0,0,0,36,93a.63.63,0,0,0,0,1.25Z"/><path class="cls-3" d="M36,85.14a.63.63,0,0,0,0-1.25.63.63,0,0,0,0,1.25Z"/><path class="cls-3" d="M31.87,79.33a.63.63,0,0,0,0-1.25.63.63,0,0,0,0,1.25Z"/><path class="cls-3" d="M26.07,68.55a.63.63,0,0,0,0-1.25.63.63,0,0,0,0,1.25Z"/><path class="cls-3" d="M26.07,56.94a.63.63,0,0,0,0-1.25.63.63,0,0,0,0,1.25Z"/><path class="cls-3" d="M25.24,55.29a.63.63,0,0,0,0-1.25.63.63,0,0,0,0,1.25Z"/><path class="cls-3" d="M17,17.14a.63.63,0,0,0,0-1.25.63.63,0,0,0,0,1.25Z"/><path class="cls-3" d="M18.6,98.4a.63.63,0,0,0,0-1.25.63.63,0,0,0,0,1.25Z"/></g><g class="cls-4"><line class="cls-5" x1="129.84" y1="211.56" x2="279.73" y2="4.57"/><line class="cls-5" x1="116.83" y1="209.26" x2="266.71" y2="2.27"/><line class="cls-5" x1="103.81" y1="206.96" x2="253.7" y2="-0.03"/><line class="cls-5" x1="90.8" y1="204.66" x2="240.68" y2="-2.33"/><line class="cls-5" x1="77.79" y1="202.36" x2="227.67" y2="-4.63"/><line class="cls-5" x1="64.77" y1="200.06" x2="214.65" y2="-6.93"/><line class="cls-5" x1="51.76" y1="197.76" x2="201.64" y2="-9.23"/><line class="cls-5" x1="38.74" y1="195.46" x2="188.63" y2="-11.53"/><line class="cls-5" x1="25.73" y1="193.16" x2="175.61" y2="-13.83"/><line class="cls-5" x1="12.71" y1="190.86" x2="162.6" y2="-16.13"/><line class="cls-5" x1="-0.3" y1="188.56" x2="149.58" y2="-18.43"/><line class="cls-5" x1="-13.31" y1="186.26" x2="136.57" y2="-20.73"/><line class="cls-5" x1="-26.33" y1="183.96" x2="123.56" y2="-23.03"/><line class="cls-5" x1="-39.34" y1="181.66" x2="110.54" y2="-25.33"/><line class="cls-5" x1="-52.36" y1="179.36" x2="97.53" y2="-27.63"/><line class="cls-5" x1="-65.37" y1="177.06" x2="84.51" y2="-29.93"/><line class="cls-5" x1="-78.39" y1="174.76" x2="71.5" y2="-32.23"/><line class="cls-5" x1="124.69" y1="209.23" x2="274.57" y2="2.24"/><line class="cls-5" x1="111.67" y1="206.93" x2="261.56" y2="-0.06"/><line class="cls-5" x1="98.66" y1="204.63" x2="248.54" y2="-2.36"/><line class="cls-5" x1="85.64" y1="202.33" x2="235.53" y2="-4.66"/><line class="cls-5" x1="72.63" y1="200.03" x2="222.51" y2="-6.96"/><line class="cls-5" x1="59.62" y1="197.73" x2="209.5" y2="-9.26"/><line class="cls-5" x1="46.6" y1="195.43" x2="196.48" y2="-11.56"/><line class="cls-5" x1="33.59" y1="193.13" x2="183.47" y2="-13.86"/><line class="cls-5" x1="20.57" y1="190.83" x2="170.46" y2="-16.16"/><line class="cls-5" x1="7.56" y1="188.53" x2="157.44" y2="-18.46"/><line class="cls-5" x1="-5.46" y1="186.23" x2="144.43" y2="-20.76"/><line class="cls-5" x1="-18.47" y1="183.93" x2="131.41" y2="-23.06"/><line class="cls-5" x1="-31.48" y1="181.63" x2="118.4" y2="-25.36"/><line class="cls-5" x1="-44.5" y1="179.33" x2="105.39" y2="-27.66"/><line class="cls-5" x1="-57.51" y1="177.03" x2="92.37" y2="-29.96"/><line class="cls-5" x1="-70.53" y1="174.73" x2="79.36" y2="-32.26"/><line class="cls-5" x1="-83.54" y1="172.43" x2="66.34" y2="-34.56"/></g></svg>