<svg id="Capa_1" data-name="Capa 1" xmlns="http://www.w3.org/2000/svg" xmlns:xlink="http://www.w3.org/1999/xlink" viewBox="0 0 200 200"><defs><style>.cls-1,.cls-3,.cls-5{fill:none;}.cls-2{clip-path:url(#clip-path);}.cls-3{stroke:#fff;stroke-width:1.12px;}.cls-4{clip-path:url(#clip-path-2);}.cls-5{stroke:#c6c6c5;stroke-linecap:round;stroke-miterlimit:10;stroke-width:0.75px;stroke-dasharray:1 6;}</style><clipPath id="clip-path"><rect class="cls-1" x="44.03" y="37.4" width="111.83" height="111.83"/></clipPath><clipPath id="clip-path-2"><polygon class="cls-1" points="-187.33 -187.44 -112.77 -196.22 -30.9 -206.45 -79.14 -156.74 -30.9 -29.55 -60.13 -39.78 -71.83 -54.08 -89.38 -79.26 -215.1 -124.58 -187.33 -187.44"/></clipPath></defs><title>formas-cuadrado</title><rect x="0.5" y="0.5" width="199" height="199"/><path d="M199,1V199H1V1H199m1-1H0V200H200V0Z"/><g class="cls-2"><path class="cls-3" d="M98.92,136.54l-.32,12.67m-5.14-13.12-2.22,12.47M87.8,134.83,84.34,147M82.63,133l-5.22,11.54m0-14.22-6.31,11M73,127.09l-7.83,10m3.74-13.68-9.17,8.74m5.58-13-10.33,7.35m7.17-12.24-11,6.31m8.63-11.3L48,113.93m10.08-9.87L45.7,106.91M57,98.36,44.43,100m12.28-7.06-12.66-.32m13.1-5.46-12.57-1.6m13.7-3.77L46.09,78.28m14-1.74L48.53,71.32m14.17,0L51.72,65m14.09,1.76L55.85,59m13.62,3.68-8.74-9.17m13.15,5.35-7.83-10m12.44,6.92-6.32-11m11.26,8.55L78.78,41.56m10.16,9.93L85.48,39.31m8.84,11.14L92.73,37.88m7.06,12.19.32-12.66m5.46,13,1.6-12.57M111,51.49l3.47-12.18m2,14,4.65-11.79m.29,14.22,6.32-11m-1.7,14,7.82-10m-3.42,13.78,8.74-9.17m-5.08,13.32L144,59m-6.85,12.39,11-6.32m-8.36,11.51,11.54-5.22m-9.75,10.42,12.19-3.46m-11.06,8.83,12.57-1.6m-12.13,7.38,12.67-.32m-13,5.79L155.46,100m-13.61,4.11,12.34,2.85m-14.05,2.37,11.78,4.65m-14.14.34,11,6.31m-14.14-1.42L145,126.51M131,123.37l9.17,8.74m-13.25-5,7.83,10m-12.35-6.78,6.32,11M117.26,133l5.22,11.54m-10.39-9.66L115.56,147m-9.13-10.92,2.23,12.47m-7.69-12,.32,12.67"/></g><g class="cls-4"><line class="cls-5" x1="-80.2" y1="25.21" x2="81.81" y2="-198.51"/><line class="cls-5" x1="-94.27" y1="22.73" x2="67.74" y2="-201"/><line class="cls-5" x1="-108.33" y1="20.24" x2="53.67" y2="-203.48"/><line class="cls-5" x1="-122.4" y1="17.76" x2="39.61" y2="-205.97"/><line class="cls-5" x1="-136.47" y1="15.27" x2="25.54" y2="-208.46"/><line class="cls-5" x1="-150.53" y1="12.78" x2="11.47" y2="-210.94"/></g></svg>