<svg id="Capa_1" data-name="Capa 1" xmlns="http://www.w3.org/2000/svg" viewBox="0 0 99 101"><defs><style>.cls-1{fill:#fff;}.cls-2{fill:none;stroke:#fff;stroke-miterlimit:10;stroke-width:2px;}</style></defs><title>logo</title><path class="cls-1" d="M49.15,22c16.51,0,25.29,11.74,25.29,25.71v3.7H32.75C33.28,62,39.73,69,49.15,69,57.2,69,62.59,65.2,66.3,58.43l7.09,3.7C67.46,73.45,59.1,77.05,49.15,77.05c-15.55,0-25.5-12-25.5-27.51C23.65,34.51,33.18,22,49.15,22ZM65,43.4c-1.58-8.46-7.08-13.33-15.87-13.33-8.57,0-14,5.29-15.77,13.33Z"/><circle class="cls-2" cx="49" cy="50" r="46"/><circle class="cls-1" cx="68.5" cy="8.5" r="7"/></svg>